SplineFontDB: 3.0
FontName: Ume-P-Gothic_Balsa
FullName: Ume P Gothic Balsa
FamilyName: Ume P Gothic Balsa
Weight: Extrabold
Copyright: Author: HORAI Wataru. License: This font is a free software. Unlimited permission is granted to use, copy, and distribute it, with or without modification, either commercially and noncommercially. THIS FONT IS PROVIDED "AS IS" WITHOUT WARRANTY. - Modified and boldified crudly for the Balsamine theater in Belgium by OSP osp.constantvzw.org 2013
Version: Look update time of this file.
ItalicAngle: 0
UnderlinePosition: -72
UnderlineWidth: 48
Ascent: 3520
Descent: 576
LayerCount: 2
Layer: 0 1 "Back"  1
Layer: 1 1 "Fore"  0
XUID: [1021 992 1258595862 470570]
FSType: 8
OS2Version: 1
OS2_WeightWidthSlopeOnly: 0
OS2_UseTypoMetrics: 1
CreationTime: -2082844800
ModificationTime: 1367534709
PfmFamily: 17
TTFWeight: 400
TTFWidth: 5
LineGap: 0
VLineGap: 0
Panose: 2 0 6 0 0 0 0 0 0 0
OS2TypoAscent: 0
OS2TypoAOffset: 1
OS2TypoDescent: 0
OS2TypoDOffset: 1
OS2TypoLinegap: 0
OS2WinAscent: -224
OS2WinAOffset: 1
OS2WinDescent: -112
OS2WinDOffset: 1
HheadAscent: -224
HheadAOffset: 1
HheadDescent: 112
HheadDOffset: 1
OS2SubXSize: 2048
OS2SubYSize: 2048
OS2SubXOff: 0
OS2SubYOff: 1472
OS2SupXSize: 2048
OS2SupYSize: 2048
OS2SupXOff: 0
OS2SupYOff: 1760
OS2StrikeYSize: 208
OS2StrikeYPos: 1056
OS2Vendor: 'Take'
OS2CodePages: 4002009f.dfd70000
OS2UnicodeRanges: a00002bf.68c7fcfb.00000010.00000000
Lookup: 1 1 0 "'vert' Vertical Alternates (obs) in Hiragana & Katakana lookup 0"  {"'vert' Vertical Alternates (obs) in Hiragana & Katakana lookup 0 subtable"  } ['vert' ('kana' <'JAN ' 'dflt' > ) ]
MarkAttachClasses: 1
DEI: 91125
TtTable: prep
PUSHW_1
 511
SCANCTRL
PUSHB_1
 1
SCANTYPE
PUSHB_2
 1
 129
RCVT
WCVTP
PUSHB_2
 2
 130
RCVT
WCVTP
PUSHB_2
 3
 131
RCVT
WCVTP
PUSHB_2
 4
 132
RCVT
WCVTP
PUSHB_2
 5
 133
RCVT
WCVTP
PUSHB_2
 6
 134
RCVT
WCVTP
PUSHB_2
 7
 135
RCVT
WCVTP
PUSHB_2
 8
 136
RCVT
WCVTP
PUSHB_2
 9
 137
RCVT
WCVTP
PUSHB_2
 10
 138
RCVT
WCVTP
PUSHB_2
 11
 139

StartChar: .notdef
Encoding: 65536 -1 0
Width: 4096
Flags: W
LayerCount: 2
Fore
SplineSet
400 400 m 1,0,-1
 400 620 l 1,1,-1
 620 620 l 1,2,-1
 620 400 l 1,3,-1
 400 400 l 1,0,-1
EndSplineSet
Validated: 1
EndChar

StartChar: exclam
Encoding: 33 33 4
Width: 896
GlyphClass: 2
Flags: W
LayerCount: 2
Fore
SplineSet
770 3229 m 1,0,-1
 680 851 l 1,1,-1
 199 851 l 1,2,-1
 127 3229 l 1,3,-1
 770 3229 l 1,0,-1
717 -125 m 1,4,-1
 179 -125 l 1,5,-1
 179 653 l 1,6,-1
 717 653 l 1,7,-1
 717 -125 l 1,4,-1
EndSplineSet
Validated: 1
EndChar

StartChar: quotedbl
Encoding: 34 34 5
Width: 2048
GlyphClass: 2
Flags: W
LayerCount: 2
Fore
SplineSet
861 3229 m 1,0,-1
 861 2512 l 2,1,2
 861 2409 861 2409 853 2318 c 0,3,4
 839 2163 839 2163 796 2037 c 256,5,6
 754 1911 754 1911 685 1817 c 256,7,8
 615 1723 615 1723 512 1667 c 256,9,10
 409 1612 409 1612 281 1603 c 2,11,-1
 147 1594 l 1,12,-1
 147 2141 l 1,13,-1
 272 2141 l 2,14,15
 279 2141 279 2141 285 2143 c 256,16,17
 292 2145 292 2145 305 2159 c 256,18,19
 318 2173 318 2173 328 2197 c 256,20,21
 338 2221 338 2221 349 2271 c 256,22,23
 360 2321 360 2321 366 2389 c 0,24,25
 367 2396 367 2396 367 2403 c 1,26,-1
 147 2403 l 1,27,-1
 147 3229 l 1,28,-1
 861 3229 l 1,0,-1
1613 3229 m 1,29,-1
 1613 2512 l 2,30,31
 1613 2409 1613 2409 1605 2318 c 0,32,33
 1591 2163 1591 2163 1548 2037 c 256,34,35
 1506 1911 1506 1911 1437 1817 c 256,36,37
 1367 1723 1367 1723 1264 1667 c 256,38,39
 1161 1612 1161 1612 1033 1603 c 2,40,-1
 899 1594 l 1,41,-1
 899 2141 l 1,42,-1
 1024 2141 l 2,43,44
 1031 2141 1031 2141 1037 2143 c 256,45,46
 1044 2145 1044 2145 1057 2159 c 256,47,48
 1070 2173 1070 2173 1080 2197 c 256,49,50
 1090 2221 1090 2221 1101 2271 c 256,51,52
 1112 2321 1112 2321 1118 2389 c 0,53,54
 1119 2396 1119 2396 1119 2403 c 1,55,-1
 899 2403 l 1,56,-1
 899 3229 l 1,57,-1
 1613 3229 l 1,29,-1
EndSplineSet
Validated: 1
EndChar

StartChar: numbersign
Encoding: 35 35 6
Width: 2048
GlyphClass: 2
Flags: W
LayerCount: 2
Fore
SplineSet
2125 1955 m 1,0,-1
 1761 1955 l 1,1,-1
 1649 1277 l 1,2,-1
 1981 1277 l 1,3,-1
 1981 803 l 1,4,-1
 1571 803 l 1,5,-1
 1418 -125 l 1,6,-1
 877 -125 l 1,7,-1
 1030 803 l 1,8,-1
 755 803 l 1,9,-1
 602 -125 l 1,10,-1
 61 -125 l 1,11,-1
 214 803 l 1,12,-1
 -77 803 l 1,13,-1
 -77 1277 l 1,14,-1
 292 1277 l 1,15,-1
 404 1955 l 1,16,-1
 51 1955 l 1,17,-1
 51 2429 l 1,18,-1
 482 2429 l 1,19,-1
 614 3229 l 1,20,-1
 1155 3229 l 1,21,-1
 1023 2429 l 1,22,-1
 1298 2429 l 1,23,-1
 1430 3229 l 1,24,-1
 1971 3229 l 1,25,-1
 1839 2429 l 1,26,-1
 2125 2429 l 1,27,-1
 2125 1955 l 1,0,-1
945 1955 m 1,28,-1
 833 1277 l 1,29,-1
 1108 1277 l 1,30,-1
 1220 1955 l 1,31,-1
 945 1955 l 1,28,-1
EndSplineSet
Validated: 1
EndChar

StartChar: dollar
Encoding: 36 36 7
Width: 2048
GlyphClass: 2
Flags: W
LayerCount: 2
Fore
SplineSet
755 3111 m 1,0,-1
 755 3520 l 1,1,-1
 1293 3520 l 1,2,-1
 1293 3105 l 1,3,4
 1422 3082 1422 3082 1537 3036 c 0,5,6
 1767 2944 1767 2944 1960 2762 c 2,7,-1
 1997 2727 l 1,8,-1
 1997 1943 l 1,9,-1
 1776 2196 l 2,10,11
 1563 2439 1563 2439 1401 2543 c 0,12,13
 1352 2575 1352 2575 1293 2596 c 1,14,-1
 1293 1728 l 1,15,16
 1447 1686 1447 1686 1593 1603 c 0,17,18
 1807 1480 1807 1480 1911 1293 c 0,19,20
 2013 1109 2013 1109 2013 854 c 0,21,22
 2013 413 2013 413 1776 190 c 0,23,24
 1606 30 1606 30 1293 -16 c 1,25,-1
 1293 -576 l 1,26,-1
 755 -576 l 1,27,-1
 755 -3 l 1,28,29
 642 21 642 21 523 65 c 0,30,31
 248 166 248 166 68 352 c 2,32,-1
 35 386 l 1,33,-1
 35 1105 l 1,34,-1
 254 871 l 2,35,36
 475 635 475 635 673 555 c 0,37,38
 715 538 715 538 755 524 c 1,39,-1
 755 1355 l 1,40,41
 649 1385 649 1385 535 1432 c 0,42,43
 334 1513 334 1513 185 1714 c 0,44,45
 35 1918 35 1918 35 2226 c 0,46,47
 35 2612 35 2612 236 2863 c 0,48,49
 396 3061 396 3061 755 3111 c 1,0,-1
755 2667 m 1,50,51
 701 2645 701 2645 675 2611 c 0,52,53
 589 2501 589 2501 589 2272 c 0,54,55
 589 2052 589 2052 680 1960 c 0,56,57
 714 1926 714 1926 755 1901 c 1,58,-1
 755 2667 l 1,50,51
1293 455 m 1,59,60
 1341 475 1341 475 1376 504 c 0,61,62
 1475 587 1475 587 1475 816 c 0,63,64
 1475 929 1475 929 1444 1004 c 256,65,66
 1413 1079 1413 1079 1353 1127 c 0,67,68
 1322 1152 1322 1152 1293 1173 c 1,69,-1
 1293 455 l 1,59,60
EndSplineSet
Validated: 1
EndChar

StartChar: percent
Encoding: 37 37 8
Width: 2048
GlyphClass: 2
Flags: W
LayerCount: 2
Fore
SplineSet
549 2572 m 256,0,1
 535 2705 535 2705 511 2769 c 1,2,3
 461 2625 461 2625 461 2256 c 0,4,5
 461 1883 461 1883 512 1734 c 1,6,7
 563 1883 563 1883 563 2256 c 0,8,9
 563 2439 563 2439 549 2572 c 256,0,1
237 3126 m 256,10,11
 359 3200 359 3200 512 3200 c 0,12,13
 676 3200 676 3200 800 3112 c 256,14,15
 924 3024 924 3024 988 2866 c 0,16,17
 1082 2634 1082 2634 1098 2278 c 1,18,-1
 1483 3248 l 1,19,-1
 2056 3248 l 1,20,-1
 1411 1749 l 1,21,22
 1456 1757 1456 1757 1504 1757 c 0,23,24
 1659 1757 1659 1757 1781 1681 c 256,25,26
 1903 1605 1903 1605 1976 1467 c 0,27,28
 2109 1217 2109 1217 2109 769 c 0,29,30
 2109 512 2109 512 2075 333 c 256,31,32
 2041 154 2041 154 1961 38 c 0,33,34
 1882 -78 1882 -78 1764 -141 c 0,35,36
 1646 -208 1646 -208 1504 -208 c 0,37,38
 1343 -208 1343 -208 1219 -128 c 256,39,40
 1095 -48 1095 -48 1030 98 c 0,41,42
 939 300 939 300 920 638 c 1,43,-1
 597 -176 l 1,44,-1
 24 -176 l 1,45,-1
 619 1198 l 1,46,47
 567 1187 567 1187 512 1187 c 0,48,49
 342 1187 342 1187 214 1267 c 256,50,51
 86 1347 86 1347 21 1493 c 0,52,53
 -93 1748 -93 1748 -93 2194 c 0,54,55
 -93 2675 -93 2675 41 2918 c 0,56,57
 115 3052 115 3052 237 3126 c 256,10,11
1555 1011 m 256,58,59
 1539 1140 1539 1140 1515 1200 c 1,60,61
 1469 1057 1469 1057 1469 704 c 0,62,63
 1469 360 1469 360 1515 222 c 1,64,65
 1540 281 1540 281 1555 405 c 256,66,67
 1571 530 1571 530 1571 704 c 0,68,69
 1571 882 1571 882 1555 1011 c 256,58,59
EndSplineSet
Validated: 1
EndChar

StartChar: ampersand
Encoding: 38 38 9
Width: 2432
GlyphClass: 2
Flags: W
LayerCount: 2
Fore
SplineSet
912 -125 m 0,0,1
 512 -125 512 -125 261 99 c 0,2,3
 3 328 3 328 3 768 c 0,4,5
 3 1048 3 1048 162 1272 c 0,6,7
 303 1471 303 1471 534 1615 c 1,8,9
 289 2094 289 2094 275 2427 c 2,10,-1
 275 2432 l 1,11,-1
 275 2438 l 2,12,13
 293 2843 293 2843 526 3046 c 0,14,15
 640 3146 640 3146 784 3192 c 256,16,17
 906 3231 906 3231 1041 3230 c 0,18,19
 1066 3230 1066 3230 1091 3229 c 1,20,21
 1444 3228 1444 3228 1648 3024 c 0,22,23
 1853 2819 1853 2819 1853 2480 c 0,24,25
 1853 2151 1853 2151 1653 1878 c 0,26,27
 1465 1622 1465 1622 1249 1467 c 0,28,29
 1232 1455 1232 1455 1216 1443 c 1,30,31
 1358 1232 1358 1232 1580 961 c 1,32,33
 1616 1036 1616 1036 1640 1117 c 0,34,35
 1732 1416 1732 1416 1763 1818 c 2,36,-1
 1772 1933 l 1,37,-1
 2325 1933 l 1,38,39
 2324 1910 2324 1910 2321 1866 c 256,40,41
 2318 1822 2318 1822 2317 1800 c 0,42,43
 2284 1252 2284 1252 2124 850 c 0,44,45
 2054 673 2054 673 1960 521 c 1,46,47
 2146 315 2146 315 2363 86 c 2,48,-1
 2563 -125 l 1,49,-1
 1783 -125 l 1,50,-1
 1745 -81 l 2,51,52
 1666 11 1666 11 1592 98 c 1,53,54
 1306 -125 1306 -125 912 -125 c 0,0,1
1072 2000 m 0,55,56
 1197 2105 1197 2105 1256 2222 c 256,57,58
 1315 2340 1315 2340 1315 2480 c 0,59,60
 1315 2604 1315 2604 1256 2664 c 256,61,62
 1197 2723 1197 2723 1088 2723 c 0,63,64
 951 2723 951 2723 884 2651 c 0,65,66
 814 2576 814 2576 813 2435 c 1,67,68
 823 2206 823 2206 957 1907 c 1,69,70
 1014 1951 1014 1951 1072 2000 c 0,55,56
776 1130 m 0,71,72
 660 1048 660 1048 604 958 c 256,73,74
 548 868 548 868 541 764 c 1,75,76
 542 561 542 561 639 495 c 0,77,78
 759 413 759 413 928 413 c 0,79,80
 1076 413 1076 413 1237 538 c 1,81,82
 987 862 987 862 803 1149 c 1,83,84
 790 1140 790 1140 776 1130 c 0,71,72
EndSplineSet
Validated: 33
EndChar

StartChar: quotesingle
Encoding: 39 39 10
Width: 832
GlyphClass: 2
Flags: W
LayerCount: 2
Fore
SplineSet
797 3229 m 1,0,-1
 797 2512 l 2,1,2
 797 2354 797 2354 775 2221 c 256,3,4
 753 2087 753 2087 707 1976 c 256,5,6
 660 1865 660 1865 590 1786 c 256,7,8
 520 1706 520 1706 422 1659 c 256,9,10
 323 1612 323 1612 200 1603 c 2,11,-1
 67 1594 l 1,12,-1
 67 2141 l 1,13,-1
 192 2141 l 2,14,15
 199 2141 199 2141 206 2143 c 256,16,17
 213 2145 213 2145 226 2161 c 256,18,19
 239 2176 239 2176 250 2201 c 256,20,21
 261 2226 261 2226 271 2279 c 256,22,23
 282 2332 282 2332 287 2403 c 1,24,-1
 67 2403 l 1,25,-1
 67 3229 l 1,26,-1
 797 3229 l 1,0,-1
EndSplineSet
Validated: 1
EndChar

StartChar: parenleft
Encoding: 40 40 11
Width: 1248
GlyphClass: 2
Flags: W
LayerCount: 2
Fore
SplineSet
1269 -419 m 1,0,-1
 854 -675 l 1,1,-1
 784 -592 l 2,2,3
 83 243 83 243 83 1472 c 0,4,5
 83 2669 83 2669 784 3519 c 2,6,-1
 853 3604 l 1,7,-1
 1267 3349 l 1,8,-1
 1190 3240 l 2,9,10
 637 2456 637 2456 637 1472 c 0,11,12
 637 441 637 441 1189 -310 c 2,13,-1
 1269 -419 l 1,0,-1
EndSplineSet
Validated: 1
EndChar

StartChar: parenright
Encoding: 41 41 12
Width: 1248
GlyphClass: 2
Flags: W
LayerCount: 2
Fore
SplineSet
463 3521 m 2,0,1
 1197 2654 1197 2654 1197 1472 c 0,2,3
 1197 241 1197 241 462 -595 c 2,4,-1
 392 -674 l 1,5,-1
 -23 -418 l 1,6,-1
 60 -309 l 2,7,8
 627 442 627 442 627 1472 c 0,9,10
 627 2456 627 2456 59 3239 c 2,11,-1
 -20 3348 l 1,12,-1
 394 3603 l 1,13,-1
 463 3521 l 2,0,1
EndSplineSet
Validated: 1
EndChar

StartChar: asterisk
Encoding: 42 42 13
Width: 2048
GlyphClass: 2
Flags: W
LayerCount: 2
Fore
SplineSet
2070 1047 m 1,0,-1
 1693 482 l 1,1,-1
 1290 946 l 1,2,-1
 1330 -125 l 1,3,-1
 718 -125 l 1,4,-1
 758 938 l 1,5,-1
 372 480 l 1,6,-1
 -6 1047 l 1,7,-1
 592 1553 l 1,8,-1
 78 2002 l 2,9,10
 15 2057 15 2057 -7 2076 c 1,11,-1
 372 2617 l 1,12,-1
 758 2184 l 1,13,-1
 718 3229 l 1,14,-1
 1330 3229 l 1,15,16
 1329 3207 1329 3207 1327 3164 c 256,17,18
 1325 3121 1325 3121 1325 3099 c 2,19,-1
 1290 2175 l 1,20,21
 1340 2230 1340 2230 1439 2338 c 256,22,23
 1538 2446 1538 2446 1588 2500 c 0,24,25
 1607 2520 1607 2520 1643 2561 c 256,26,27
 1679 2601 1679 2601 1697 2619 c 1,28,-1
 1993 2164 l 2,29,30
 2046 2083 2046 2083 2051 2074 c 1,31,32
 2041 2065 2041 2065 1971 2003 c 2,33,-1
 1470 1555 l 1,34,-1
 2070 1047 l 1,0,-1
EndSplineSet
Validated: 1
EndChar

StartChar: plus
Encoding: 43 43 14
Width: 2048
GlyphClass: 2
Flags: W
LayerCount: 2
Fore
SplineSet
2045 1235 m 1,0,-1
 1293 1235 l 1,1,-1
 1293 -125 l 1,2,-1
 755 -125 l 1,3,-1
 755 1235 l 1,4,-1
 -13 1235 l 1,5,-1
 -13 1757 l 1,6,-1
 755 1757 l 1,7,-1
 755 3069 l 1,8,-1
 1293 3069 l 1,9,-1
 1293 1757 l 1,10,-1
 2045 1757 l 1,11,-1
 2045 1235 l 1,0,-1
EndSplineSet
Validated: 1
EndChar

StartChar: comma
Encoding: 44 44 15
Width: 832
GlyphClass: 2
Flags: W
LayerCount: 2
Fore
SplineSet
797 925 m 1,0,-1
 797 224 l 2,1,2
 797 60 797 60 774 -78 c 256,3,4
 751 -216 751 -216 704 -330 c 256,5,6
 656 -444 656 -444 583 -525 c 256,7,8
 511 -605 511 -605 409 -651 c 256,9,10
 307 -697 307 -697 180 -701 c 2,11,-1
 51 -705 l 1,12,-1
 51 -163 l 1,13,-1
 176 -163 l 2,14,15
 266 -163 266 -163 287 99 c 1,16,-1
 51 99 l 1,17,-1
 51 925 l 1,18,-1
 797 925 l 1,0,-1
EndSplineSet
Validated: 1
EndChar

StartChar: hyphen
Encoding: 45 45 16
Width: 2048
GlyphClass: 2
Flags: W
LayerCount: 2
Fore
SplineSet
1853 963 m 1,0,-1
 179 963 l 1,1,-1
 179 1437 l 1,2,-1
 1853 1437 l 1,3,-1
 1853 963 l 1,0,-1
EndSplineSet
Validated: 1
EndChar

StartChar: period
Encoding: 46 46 17
Width: 832
GlyphClass: 2
Flags: W
LayerCount: 2
Fore
SplineSet
765 -125 m 1,0,-1
 83 -125 l 1,1,-1
 83 925 l 1,2,-1
 765 925 l 1,3,-1
 765 -125 l 1,0,-1
EndSplineSet
Validated: 1
EndChar

StartChar: slash
Encoding: 47 47 18
Width: 2048
GlyphClass: 2
Flags: W
LayerCount: 2
Fore
SplineSet
1986 3310 m 1,0,-1
 569 -549 l 1,1,-1
 65 -342 l 1,2,-1
 1460 3485 l 1,3,-1
 1864 3351 l 2,4,5
 1884 3344 1884 3344 1925 3330 c 256,6,7
 1966 3317 1966 3317 1986 3310 c 1,0,-1
EndSplineSet
Validated: 1
EndChar

StartChar: zero
Encoding: 48 48 19
Width: 2048
GlyphClass: 2
Flags: W
LayerCount: 2
Fore
SplineSet
770 764 m 0,0,1
 881 538 881 538 1024 538 c 0,2,3
 1167 538 1167 538 1286 772 c 0,4,5
 1412 1021 1412 1021 1413 1466 c 0,6,7
 1413 1515 1413 1515 1411 1566 c 1,8,9
 1411 2058 1411 2058 1277 2344 c 0,10,11
 1165 2582 1165 2582 1024 2582 c 256,12,13
 883 2582 883 2582 771 2344 c 0,14,15
 637 2058 637 2058 637 1581 c 0,16,17
 637 1035 637 1035 770 764 c 0,0,1
1120 0 m 2,18,-1
 928 0 l 2,19,20
 583 0 583 0 331 414 c 0,21,22
 99 796 99 796 99 1567 c 0,23,24
 99 1959 99 1959 158 2244 c 256,25,26
 217 2529 217 2529 342 2716 c 0,27,28
 603 3104 603 3104 928 3104 c 2,29,-1
 1120 3104 l 2,30,31
 1445 3104 1445 3104 1706 2716 c 0,32,33
 1832 2529 1832 2529 1890 2244 c 256,34,35
 1949 1959 1949 1959 1949 1567 c 0,36,37
 1949 812 1949 812 1717 423 c 0,38,39
 1466 0 1466 0 1120 0 c 2,18,-1
787 1211 m 0,40,41
 739 1337 739 1337 739 1568 c 256,42,43
 739 1799 739 1799 787 1925 c 0,44,45
 817 2003 817 2003 878 2056 c 256,46,47
 939 2109 939 2109 1024 2109 c 256,48,49
 1108 2109 1108 2109 1170 2056 c 256,50,51
 1231 2003 1231 2003 1261 1925 c 0,52,53
 1309 1799 1309 1799 1309 1568 c 256,54,55
 1309 1337 1309 1337 1261 1211 c 0,56,57
 1231 1133 1231 1133 1170 1080 c 256,58,59
 1109 1027 1109 1027 1024 1027 c 256,60,61
 940 1027 940 1027 878 1080 c 256,62,63
 817 1133 817 1133 787 1211 c 0,40,41
EndSplineSet
Validated: 1
EndChar

StartChar: one
Encoding: 49 49 20
Width: 2048
GlyphClass: 2
Flags: W
LayerCount: 2
Fore
SplineSet
831 3104 m 1,0,-1
 1293 3104 l 1,1,-1
 1293 506 l 1,2,-1
 1773 506 l 1,3,-1
 1773 0 l 1,4,-1
 275 0 l 1,5,-1
 275 506 l 1,6,-1
 755 506 l 1,7,-1
 755 2243 l 1,8,-1
 275 2243 l 1,9,-1
 275 2703 l 1,10,-1
 560 2703 l 2,11,12
 719 2703 719 2703 807 3010 c 2,13,-1
 831 3104 l 1,0,-1
EndSplineSet
Validated: 1
EndChar

StartChar: two
Encoding: 50 50 21
Width: 2048
GlyphClass: 2
Flags: W
LayerCount: 2
Fore
SplineSet
1885 522 m 1,0,-1
 1885 0 l 1,1,-1
 163 0 l 1,2,-1
 163 375 l 1,3,-1
 166 388 l 2,4,5
 287 859 287 859 730 1239 c 0,6,7
 929 1410 929 1410 1058 1553 c 256,8,9
 1186 1696 1186 1696 1238 1801 c 0,10,11
 1347 2019 1347 2019 1347 2257 c 0,12,13
 1348 2428 1348 2428 1272 2497 c 256,14,15
 1196 2566 1196 2566 1008 2566 c 0,16,17
 922 2566 922 2566 871 2541 c 256,18,19
 819 2516 819 2516 785 2463 c 0,20,21
 701 2334 701 2334 701 2163 c 2,22,-1
 701 2038 l 1,23,-1
 163 2038 l 1,24,-1
 163 2163 l 2,25,26
 163 2557 163 2557 364 2823 c 0,27,28
 467 2959 467 2959 603 3031 c 256,29,30
 739 3104 739 3104 896 3104 c 2,31,-1
 1120 3104 l 2,32,33
 1281 3104 1281 3104 1421 3040 c 0,34,35
 1561 2982 1561 2982 1670 2871 c 0,36,37
 1885 2650 1885 2650 1885 2300 c 0,38,39
 1885 1892 1885 1892 1711 1592 c 0,40,41
 1542 1299 1542 1299 1135 945 c 0,42,43
 870 714 870 714 784 522 c 1,44,-1
 1885 522 l 1,0,-1
EndSplineSet
Validated: 33
EndChar

StartChar: three
Encoding: 51 51 22
Width: 2048
GlyphClass: 2
Flags: W
LayerCount: 2
Fore
SplineSet
1885 2713 m 1,0,-1
 1281 1986 l 1,1,2
 1382 1946 1382 1946 1474 1884 c 0,3,4
 1649 1765 1649 1765 1767 1556 c 0,5,6
 1885 1346 1885 1346 1885 1038 c 0,7,8
 1885 551 1885 551 1630 282 c 0,9,10
 1507 152 1507 152 1308 74 c 0,11,12
 1118 0 1118 0 880 0 c 1,13,14
 686 0 686 0 508 53 c 0,15,16
 330 106 330 106 219 181 c 2,17,-1
 163 218 l 1,18,-1
 163 810 l 1,19,-1
 352 696 l 2,20,21
 499 608 499 608 638 564 c 0,22,23
 772 522 772 522 880 522 c 0,24,25
 1137 522 1137 522 1235 641 c 0,26,27
 1347 776 1347 776 1347 1053 c 0,28,29
 1347 1297 1347 1297 1210 1437 c 0,30,31
 1143 1506 1143 1506 1063 1538 c 256,32,33
 983 1570 983 1570 880 1570 c 0,34,35
 808 1570 808 1570 750 1549 c 2,36,-1
 579 1488 l 1,37,-1
 579 1919 l 1,38,-1
 1156 2598 l 1,39,-1
 163 2598 l 1,40,-1
 163 3104 l 1,41,-1
 1885 3104 l 1,42,-1
 1885 2713 l 1,0,-1
EndSplineSet
Validated: 1
EndChar

StartChar: four
Encoding: 52 52 23
Width: 2048
GlyphClass: 2
Flags: W
LayerCount: 2
Fore
SplineSet
663 1069 m 1,0,-1
 1091 1069 l 1,1,-1
 1091 1962 l 1,2,-1
 663 1069 l 1,0,-1
2029 1069 m 1,3,-1
 2029 563 l 1,4,-1
 1613 563 l 1,5,-1
 1613 0 l 1,6,-1
 1091 0 l 1,7,-1
 1091 563 l 1,8,-1
 35 563 l 1,9,-1
 35 938 l 1,10,-1
 1138 3104 l 1,11,-1
 1613 3104 l 1,12,-1
 1613 1069 l 1,13,-1
 2029 1069 l 1,3,-1
EndSplineSet
Validated: 1
EndChar

StartChar: five
Encoding: 53 53 24
Width: 2048
GlyphClass: 2
Flags: W
LayerCount: 2
Fore
SplineSet
701 2598 m 1,0,-1
 701 2219 l 1,1,2
 737 2221 737 2221 768 2221 c 0,3,4
 1284 2221 1284 2221 1584 1937 c 256,5,6
 1885 1653 1885 1653 1885 1120 c 0,7,8
 1885 656 1885 656 1618 337 c 0,9,10
 1479 171 1479 171 1271 88 c 0,11,12
 1063 0 1063 0 800 0 c 0,13,14
 473 0 473 0 243 88 c 2,15,-1
 163 119 l 1,16,-1
 163 673 l 1,17,-1
 332 610 l 2,18,19
 567 522 567 522 800 522 c 0,20,21
 934 522 934 522 1027 562 c 256,22,23
 1120 602 1120 602 1187 685 c 0,24,25
 1331 864 1331 864 1331 1118 c 0,26,27
 1331 1432 1331 1432 1169 1573 c 0,28,29
 1005 1715 1005 1715 768 1715 c 0,30,31
 548 1715 548 1715 328 1641 c 2,32,-1
 163 1587 l 1,33,-1
 163 3104 l 1,34,-1
 1885 3104 l 1,35,-1
 1885 2598 l 1,36,-1
 701 2598 l 1,0,-1
EndSplineSet
Validated: 1
EndChar

StartChar: six
Encoding: 54 54 25
Width: 2048
GlyphClass: 2
Flags: W
LayerCount: 2
Fore
SplineSet
1478 2930 m 2,0,1
 1146 2510 1146 2510 950 2139 c 1,2,3
 971 2141 971 2141 992 2141 c 2,4,-1
 1104 2141 l 2,5,6
 1271 2141 1271 2141 1415 2064 c 256,7,8
 1559 1987 1559 1987 1669 1844 c 0,9,10
 1885 1564 1885 1564 1885 1058 c 0,11,12
 1885 582 1885 582 1669 302 c 0,13,14
 1558 159 1558 159 1415 82 c 0,15,16
 1271 0 1271 0 1104 0 c 2,17,-1
 960 0 l 2,18,19
 792 0 792 0 647 84 c 0,20,21
 502 161 502 161 387 304 c 0,22,23
 163 585 163 585 163 1037 c 0,24,25
 163 1356 163 1356 222 1638 c 0,26,27
 276 1899 276 1899 381 2129 c 0,28,29
 594 2597 594 2597 920 3048 c 2,30,-1
 957 3104 l 1,31,-1
 1616 3104 l 1,32,-1
 1478 2930 l 2,0,1
1150 1559 m 256,33,34
 1102 1587 1102 1587 1040 1587 c 0,35,36
 978 1587 978 1587 927 1558 c 256,37,38
 876 1529 876 1529 825 1460 c 0,39,40
 717 1309 717 1309 717 1055 c 0,41,42
 717 799 717 799 812 654 c 0,43,44
 853 592 853 592 905 565 c 256,45,46
 958 538 958 538 1040 538 c 0,47,48
 1103 538 1103 538 1152 565 c 256,49,50
 1201 592 1201 592 1246 657 c 0,51,52
 1347 801 1347 801 1347 1055 c 0,53,54
 1347 1310 1347 1310 1245 1463 c 0,55,56
 1198 1531 1198 1531 1150 1559 c 256,33,34
EndSplineSet
Validated: 1
EndChar

StartChar: seven
Encoding: 55 55 26
Width: 2048
GlyphClass: 2
Flags: W
LayerCount: 2
Fore
SplineSet
1885 2732 m 1,0,-1
 1878 2713 l 2,1,2
 1353 1361 1353 1361 1050 98 c 2,3,-1
 1028 0 l 1,4,-1
 469 0 l 1,5,-1
 502 138 l 2,6,7
 790 1368 790 1368 1277 2598 c 1,8,-1
 163 2598 l 1,9,-1
 163 3104 l 1,10,-1
 1885 3104 l 1,11,-1
 1885 2732 l 1,0,-1
EndSplineSet
Validated: 1
EndChar

StartChar: eight
Encoding: 56 56 27
Width: 2048
GlyphClass: 2
Flags: W
LayerCount: 2
Fore
SplineSet
1837 2260 m 0,0,1
 1837 1838 1837 1838 1549 1567 c 1,2,3
 1714 1419 1714 1419 1799 1244 c 256,4,5
 1885 1069 1885 1069 1885 873 c 0,6,7
 1885 506 1885 506 1655 260 c 0,8,9
 1541 138 1541 138 1405 71 c 0,10,11
 1270 0 1270 0 1120 0 c 2,12,-1
 928 0 l 2,13,14
 651 0 651 0 406 235 c 0,15,16
 163 468 163 468 163 855 c 0,17,18
 163 1062 163 1062 248 1241 c 256,19,20
 333 1421 333 1421 497 1566 c 1,21,22
 195 1847 195 1847 195 2259 c 0,23,24
 195 2627 195 2627 409 2859 c 0,25,26
 517 2976 517 2976 653 3037 c 0,27,28
 789 3104 789 3104 944 3104 c 2,29,-1
 1120 3104 l 2,30,31
 1269 3104 1269 3104 1399 3036 c 0,32,33
 1530 2973 1530 2973 1633 2857 c 0,34,35
 1837 2626 1837 2626 1837 2260 c 0,0,1
822 1913 m 256,36,37
 888 1796 888 1796 1022 1715 c 1,38,39
 1157 1802 1157 1802 1220 1919 c 256,40,41
 1283 2035 1283 2035 1283 2195 c 0,42,43
 1283 2407 1283 2407 1207 2500 c 0,44,45
 1172 2543 1172 2543 1130 2563 c 256,46,47
 1087 2582 1087 2582 1024 2582 c 0,48,49
 962 2582 962 2582 917 2561 c 256,50,51
 872 2540 872 2540 832 2492 c 0,52,53
 749 2391 749 2391 749 2197 c 1,54,55
 756 2030 756 2030 822 1913 c 256,36,37
1250 1200 m 256,56,57
 1176 1317 1176 1317 1024 1418 c 1,58,59
 873 1317 873 1317 799 1197 c 256,60,61
 725 1077 725 1077 717 927 c 1,62,63
 732 761 732 761 819 650 c 0,64,65
 858 600 858 600 906 577 c 256,66,67
 954 554 954 554 1024 554 c 0,68,69
 1104 554 1104 554 1157 576 c 256,70,71
 1210 598 1210 598 1248 644 c 0,72,73
 1331 745 1331 745 1331 938 c 1,74,75
 1324 1083 1324 1083 1250 1200 c 256,56,57
EndSplineSet
Validated: 1
EndChar

StartChar: nine
Encoding: 57 57 28
Width: 2048
GlyphClass: 2
Flags: W
LayerCount: 2
Fore
SplineSet
571 176 m 2,0,1
 914 595 914 595 1114 965 c 1,2,3
 1093 963 1093 963 1072 963 c 2,4,-1
 944 963 l 2,5,6
 777 963 777 963 633 1040 c 256,7,8
 489 1117 489 1117 379 1260 c 0,9,10
 163 1540 163 1540 163 2046 c 0,11,12
 163 2538 163 2538 380 2811 c 0,13,14
 490 2951 490 2951 634 3025 c 0,15,16
 778 3104 778 3104 944 3104 c 2,17,-1
 1088 3104 l 2,18,19
 1263 3104 1263 3104 1411 3020 c 0,20,21
 1559 2943 1559 2943 1670 2798 c 0,22,23
 1885 2517 1885 2517 1885 2067 c 0,24,25
 1885 1715 1885 1715 1816 1408 c 0,26,27
 1765 1180 1765 1180 1676 976 c 0,28,29
 1471 506 1471 506 1126 53 c 2,30,-1
 1089 0 l 1,31,-1
 427 0 l 1,32,-1
 571 176 l 2,0,1
898 1545 m 256,33,34
 946 1517 946 1517 1008 1517 c 0,35,36
 1070 1517 1070 1517 1121 1546 c 256,37,38
 1172 1575 1172 1575 1223 1644 c 0,39,40
 1331 1795 1331 1795 1331 2049 c 0,41,42
 1331 2305 1331 2305 1236 2450 c 0,43,44
 1195 2512 1195 2512 1143 2539 c 256,45,46
 1090 2566 1090 2566 1008 2566 c 0,47,48
 945 2566 945 2566 896 2539 c 256,49,50
 847 2512 847 2512 802 2447 c 0,51,52
 701 2303 701 2303 701 2049 c 0,53,54
 701 1794 701 1794 803 1641 c 0,55,56
 850 1573 850 1573 898 1545 c 256,33,34
EndSplineSet
Validated: 1
EndChar

StartChar: colon
Encoding: 58 58 29
Width: 832
GlyphClass: 2
Flags: W
LayerCount: 2
Fore
SplineSet
765 1683 m 1,0,-1
 67 1683 l 1,1,-1
 67 2605 l 1,2,-1
 765 2605 l 1,3,-1
 765 1683 l 1,0,-1
765 227 m 1,4,-1
 67 227 l 1,5,-1
 67 1165 l 1,6,-1
 765 1165 l 1,7,-1
 765 227 l 1,4,-1
EndSplineSet
Validated: 1
EndChar

StartChar: semicolon
Encoding: 59 59 30
Width: 832
GlyphClass: 2
Flags: W
LayerCount: 2
Fore
SplineSet
765 957 m 1,0,-1
 765 176 l 2,1,2
 765 42 765 42 751 -72 c 0,3,4
 734 -211 734 -211 690 -323 c 256,5,6
 647 -435 647 -435 579 -519 c 256,7,8
 511 -602 511 -602 414 -649 c 256,9,10
 317 -696 317 -696 196 -701 c 2,11,-1
 67 -706 l 1,12,-1
 67 -163 l 1,13,-1
 192 -163 l 2,14,15
 202 -163 202 -163 208 -162 c 256,16,17
 215 -161 215 -161 227 -150 c 256,18,19
 239 -140 239 -140 249 -120 c 256,20,21
 258 -101 258 -101 268 -61 c 256,22,23
 278 -22 278 -22 284 33 c 0,24,25
 285 42 285 42 286 51 c 1,26,-1
 67 51 l 1,27,-1
 67 957 l 1,28,-1
 765 957 l 1,0,-1
765 1683 m 1,29,-1
 67 1683 l 1,30,-1
 67 2605 l 1,31,-1
 765 2605 l 1,32,-1
 765 1683 l 1,29,-1
EndSplineSet
Validated: 1
EndChar

StartChar: less
Encoding: 60 60 31
Width: 2048
GlyphClass: 2
Flags: W
LayerCount: 2
Fore
SplineSet
2037 601 m 1,0,-1
 1670 149 l 1,1,-1
 67 1312 l 1,2,-1
 67 1681 l 1,3,-1
 120 1718 l 2,4,5
 1099 2407 1099 2407 1576 2742 c 2,6,-1
 1668 2807 l 1,7,-1
 2042 2376 l 1,8,-1
 763 1502 l 1,9,-1
 2037 601 l 1,0,-1
EndSplineSet
Validated: 1
EndChar

StartChar: equal
Encoding: 61 61 32
Width: 2048
GlyphClass: 2
Flags: W
LayerCount: 2
Fore
SplineSet
2029 1411 m 1,0,-1
 19 1411 l 1,1,-1
 19 1885 l 1,2,-1
 2029 1885 l 1,3,-1
 2029 1411 l 1,0,-1
2029 643 m 1,4,-1
 19 643 l 1,5,-1
 19 1117 l 1,6,-1
 2029 1117 l 1,7,-1
 2029 643 l 1,4,-1
EndSplineSet
Validated: 1
EndChar

StartChar: greater
Encoding: 62 62 33
Width: 2048
GlyphClass: 2
Flags: W
LayerCount: 2
Fore
SplineSet
-5 2359 m 1,0,-1
 362 2811 l 1,1,-1
 1965 1648 l 1,2,-1
 1965 1279 l 1,3,-1
 364 153 l 1,4,-1
 -10 584 l 1,5,-1
 1269 1458 l 1,6,7
 620 1917 620 1917 104 2282 c 2,8,-1
 -5 2359 l 1,0,-1
EndSplineSet
Validated: 1
EndChar

StartChar: question
Encoding: 63 63 34
Width: 1856
GlyphClass: 2
Flags: W
LayerCount: 2
Fore
SplineSet
149 3038 m 2,0,1
 372 3158 372 3158 533 3194 c 0,2,3
 690 3229 690 3229 928 3229 c 0,4,5
 1335 3230 1335 3230 1554 2996 c 256,6,7
 1773 2762 1773 2762 1773 2336 c 0,8,9
 1773 2065 1773 2065 1670 1839 c 256,10,11
 1567 1613 1567 1613 1366 1445 c 1,12,13
 1255 1325 1255 1325 1207 1232 c 256,14,15
 1164 1148 1164 1148 1164 1093 c 0,16,17
 1164 1087 1164 1087 1165 1082 c 0,18,19
 1165 1079 1165 1079 1165 1077 c 2,20,-1
 1165 851 l 1,21,-1
 627 851 l 1,22,-1
 627 1069 l 1,23,24
 626 1087 626 1087 626 1105 c 0,25,26
 626 1457 626 1457 933 1782 c 2,27,-1
 936 1784 l 1,28,-1
 938 1787 l 2,29,30
 1074 1916 1074 1916 1139 2051 c 256,31,32
 1203 2187 1203 2187 1203 2336 c 0,33,34
 1203 2474 1203 2474 1173 2552 c 256,35,36
 1143 2630 1143 2630 1085 2660 c 256,37,38
 1027 2690 1027 2690 928 2691 c 0,39,40
 750 2691 750 2691 619 2662 c 0,41,42
 495 2634 495 2634 272 2501 c 2,43,-1
 83 2387 l 1,44,-1
 83 3003 l 1,45,-1
 149 3038 l 2,0,1
1213 -125 m 1,46,-1
 595 -125 l 1,47,-1
 595 653 l 1,48,-1
 1213 653 l 1,49,-1
 1213 -125 l 1,46,-1
EndSplineSet
Validated: 33
EndChar

StartChar: at
Encoding: 64 64 35
Width: 2736
GlyphClass: 2
Flags: W
LayerCount: 2
Fore
SplineSet
2029 2427 m 1,0,-1
 2029 957 l 1,1,-1
 2067 957 l 1,2,3
 2211 1266 2211 1266 2211 1728 c 0,4,5
 2211 2190 2211 2190 2029 2427 c 1,0,-1
1626 2685 m 1,6,7
 1531 2707 1531 2707 1424 2707 c 0,8,9
 1273 2707 1273 2707 1148 2672 c 1,10,11
 1212 2685 1212 2685 1280 2685 c 0,12,13
 1391 2685 1391 2685 1491 2646 c 1,14,-1
 1491 2685 l 1,15,-1
 1626 2685 l 1,6,7
800 2455 m 1,16,17
 773 2425 773 2425 750 2391 c 0,18,19
 509 2056 509 2056 509 1488 c 0,20,21
 509 1186 509 1186 564 976 c 256,22,23
 619 766 619 766 719 649 c 0,24,25
 923 412 923 412 1410 397 c 1,26,27
 1737 397 1737 397 2049 451 c 1,28,-1
 1491 451 l 1,29,-1
 1491 505 l 1,30,31
 1388 467 1388 467 1280 467 c 0,32,33
 1106 467 1106 467 964 546 c 256,34,35
 822 625 822 625 727 772 c 0,36,37
 547 1051 547 1051 547 1552 c 0,38,39
 547 2033 547 2033 723 2342 c 0,40,41
 759 2404 759 2404 800 2455 c 1,16,17
2384 525 m 1,42,-1
 2461 544 l 1,43,-1
 2461 -3 l 1,44,-1
 2364 -26 l 2,45,46
 1934 -125 1934 -125 1408 -125 c 0,47,48
 714 -125 714 -125 341 275 c 0,49,50
 -29 671 -29 671 -29 1488 c 0,51,52
 -29 2267 -29 2267 342 2741 c 0,53,54
 532 2984 532 2984 805 3106 c 256,55,56
 1079 3229 1079 3229 1424 3229 c 0,57,58
 1703 3229 1703 3229 1942 3131 c 256,59,60
 2181 3033 2181 3033 2369 2839 c 0,61,62
 2749 2451 2749 2451 2749 1728 c 0,63,64
 2749 910 2749 910 2401 542 c 0,65,66
 2393 534 2393 534 2384 525 c 1,42,-1
1280 2147 m 0,67,68
 1250 2147 1250 2147 1227 2129 c 256,69,70
 1205 2111 1205 2111 1180 2049 c 0,71,72
 1117 1894 1117 1894 1101 1549 c 1,73,74
 1101 1225 1101 1225 1163 1081 c 0,75,76
 1187 1025 1187 1025 1212 1007 c 256,77,78
 1237 989 1237 989 1280 989 c 0,79,80
 1383 989 1383 989 1475 1075 c 1,81,-1
 1475 2073 l 1,82,83
 1384 2147 1384 2147 1280 2147 c 0,67,68
EndSplineSet
Validated: 1
EndChar

StartChar: A
Encoding: 65 65 36
Width: 2592
GlyphClass: 2
Flags: W
LayerCount: 2
Fore
SplineSet
574 0 m 1,0,-1
 -10 0 l 1,1,-1
 1028 3104 l 1,2,-1
 1581 3104 l 1,3,-1
 2552 155 l 2,4,5
 2560 130 2560 130 2576 81 c 0,6,7
 2592 27 2592 27 2601 0 c 1,8,-1
 2002 0 l 1,9,-1
 1694 947 l 1,10,-1
 888 947 l 1,11,-1
 574 0 l 1,0,-1
1544 1469 m 1,12,-1
 1295 2336 l 1,13,-1
 1041 1469 l 1,14,-1
 1544 1469 l 1,12,-1
EndSplineSet
Validated: 1
EndChar

StartChar: B
Encoding: 66 66 37
Width: 2608
GlyphClass: 2
Flags: W
LayerCount: 2
Fore
SplineSet
733 1411 m 1,0,-1
 733 538 l 1,1,-1
 1632 538 l 2,2,3
 1794 538 1794 538 1911 624 c 0,4,5
 2019 703 2019 703 2019 891 c 0,6,7
 2019 1163 2019 1163 1861 1284 c 0,8,9
 1696 1411 1696 1411 1520 1411 c 2,10,-1
 733 1411 l 1,0,-1
2343 1957 m 256,11,12
 2273 1803 2273 1803 2135 1689 c 1,13,14
 2344 1537 2344 1537 2451 1330 c 256,15,16
 2557 1123 2557 1123 2557 871 c 0,17,18
 2557 450 2557 450 2293 223 c 0,19,20
 2033 0 2033 0 1632 0 c 2,21,-1
 195 0 l 1,22,-1
 195 3104 l 1,23,-1
 1520 3104 l 2,24,25
 1870 3104 1870 3104 2138 2891 c 0,26,27
 2275 2782 2275 2782 2344 2629 c 256,28,29
 2413 2477 2413 2477 2413 2292 c 0,30,31
 2413 2111 2413 2111 2343 1957 c 256,11,12
733 2582 m 1,32,-1
 733 1933 l 1,33,-1
 1520 1933 l 2,34,35
 1593 1933 1593 1933 1650 1953 c 256,36,37
 1708 1973 1708 1973 1760 2016 c 0,38,39
 1859 2099 1859 2099 1859 2284 c 0,40,41
 1859 2438 1859 2438 1765 2508 c 0,42,43
 1664 2582 1664 2582 1520 2582 c 2,44,-1
 733 2582 l 1,32,-1
EndSplineSet
Validated: 1
EndChar

StartChar: C
Encoding: 67 67 38
Width: 2720
GlyphClass: 2
Flags: W
LayerCount: 2
Fore
SplineSet
2621 1238 m 5,0,-1
 2621 1185 l 2,1,2
 2621 750 2621 750 2294 378 c 0,3,4
 2128 190 2128 190 1899.5 95 c 128,-1,5
 1671 0 1671 0 1392 0 c 0,6,7
 1095 0 1095 0 842 121 c 0,8,9
 593 239 593 239 434 449 c 0,10,11
 115 869 115 869 115 1596 c 0,12,13
 115 2267 115 2267 444 2673 c 0,14,15
 604 2871 604 2871 827 2987 c 0,16,17
 1052 3104 1052 3104 1296 3104 c 2,18,-1
 1504 3104 l 2,19,20
 1902 3104 1902 3104 2257 2802 c 0,21,22
 2438 2648 2438 2648 2529.5 2433.5 c 128,-1,23
 2621 2219 2621 2219 2621 1955 c 2,24,-1
 2621 1914 l 1,25,-1
 2097 1914 l 1,26,-1
 2097 1940 l 2,27,28
 2094 2258 2094 2258 1865 2431 c 0,29,30
 1667 2582 1667 2582 1392 2582 c 0,31,32
 1213 2582 1213 2582 1083 2520 c 128,-1,33
 953 2458 953 2458 857 2326 c 0,34,35
 653 2047 653 2047 653 1596 c 0,36,37
 653 1088 653 1088 864 802 c 0,38,39
 965 666 965 666 1093.5 602 c 128,-1,40
 1222 538 1222 538 1392 538 c 0,41,42
 1530 538 1530 538 1642 582.5 c 128,-1,43
 1754 627 1754 627 1849 719 c 0,44,45
 2060 922 2060 922 2084 1199 c 2,46,-1
 2087 1238 l 5,47,-1
 2621 1238 l 5,0,-1
EndSplineSet
Validated: 1
EndChar

StartChar: D
Encoding: 68 68 39
Width: 2656
GlyphClass: 2
Flags: W
LayerCount: 2
Fore
SplineSet
195 0 m 1,0,-1
 195 3104 l 1,1,-1
 1024 3104 l 2,2,3
 1375 3104 1375 3104 1655 2989 c 0,4,5
 1936 2883 1936 2883 2135 2672 c 0,6,7
 2524 2258 2524 2258 2541 1568 c 1,8,9
 2541 861 2541 861 2142 439 c 0,10,11
 1940 225 1940 225 1658 117 c 0,12,13
 1375 0 1375 0 1024 0 c 2,14,-1
 195 0 l 1,0,-1
749 2582 m 1,15,-1
 749 538 l 1,16,-1
 1024 538 l 2,17,18
 1264 538 1264 538 1441 606 c 256,19,20
 1618 674 1618 674 1743 811 c 0,21,22
 2003 1094 2003 1094 2003 1567 c 0,23,24
 2003 2053 2003 2053 1745 2322 c 0,25,26
 1620 2452 1620 2452 1442 2517 c 256,27,28
 1265 2582 1265 2582 1024 2582 c 2,29,-1
 749 2582 l 1,15,-1
EndSplineSet
Validated: 1
EndChar

StartChar: E
Encoding: 69 69 40
Width: 2320
GlyphClass: 2
Flags: W
LayerCount: 2
Fore
SplineSet
2125 554 m 1,0,-1
 2125 0 l 1,1,-1
 195 0 l 1,2,-1
 195 3104 l 1,3,-1
 2125 3104 l 1,4,-1
 2125 2566 l 1,5,-1
 733 2566 l 1,6,-1
 733 1933 l 1,7,-1
 1965 1933 l 1,8,-1
 1965 1411 l 1,9,-1
 733 1411 l 1,10,-1
 733 554 l 1,11,-1
 2125 554 l 1,0,-1
EndSplineSet
Validated: 1
EndChar

StartChar: F
Encoding: 70 70 41
Width: 2256
GlyphClass: 2
Flags: W
LayerCount: 2
Fore
SplineSet
2125 3104 m 1,0,-1
 2125 2566 l 1,1,-1
 733 2566 l 1,2,-1
 733 1933 l 1,3,-1
 1821 1933 l 1,4,-1
 1821 1411 l 1,5,-1
 733 1411 l 1,6,-1
 733 0 l 1,7,-1
 195 0 l 1,8,-1
 195 3104 l 1,9,-1
 2125 3104 l 1,0,-1
EndSplineSet
Validated: 1
EndChar

StartChar: G
Encoding: 71 71 42
Width: 2784
GlyphClass: 2
Flags: W
LayerCount: 2
Fore
SplineSet
2589 1789 m 1,0,-1
 2589 0 l 1,1,-1
 2051 0 l 1,2,-1
 2051 120 l 1,3,4
 1752 0 1752 0 1424 0 c 0,5,6
 1146 0 1146 0 895 106 c 0,7,8
 648 210 648 210 474 394 c 0,9,10
 115 772 115 772 115 1522 c 0,11,12
 115 2255 115 2255 479 2669 c 0,13,14
 654 2868 654 2868 875 2986 c 0,15,16
 1098 3104 1098 3104 1328 3104 c 2,17,-1
 1520 3104 l 2,18,19
 1916 3104 1916 3104 2247 2836 c 0,20,21
 2415 2700 2415 2700 2502 2551.5 c 128,-1,22
 2589 2403 2589 2403 2589 2192 c 2,23,-1
 2589 2067 l 1,24,-1
 2042 2067 l 1,25,26
 2038 2086 2038 2086 2039 2103.5 c 128,-1,27
 2040 2121 2040 2121 2038 2130 c 4,28,29
 1998 2336 1998 2336 1823 2462 c 0,30,31
 1656 2582 1656 2582 1408 2582 c 0,32,33
 1249 2582 1249 2582 1120 2510.5 c 128,-1,34
 991 2439 991 2439 881 2284 c 0,35,36
 668 1983 668 1983 668 1556 c 0,37,38
 668 1528 668 1528 669 1500 c 1,39,40
 669 992 669 992 872 751 c 0,41,42
 973 631 973 631 1107 570 c 0,43,44
 1243 508 1243 508 1426 500 c 1,45,46
 1743 501 1743 501 2051 658 c 1,47,-1
 2051 1267 l 1,48,-1
 1443 1267 l 1,49,-1
 1443 1789 l 1,50,-1
 2589 1789 l 1,0,-1
EndSplineSet
Validated: 1
EndChar

StartChar: H
Encoding: 72 72 43
Width: 2624
GlyphClass: 2
Flags: W
LayerCount: 2
Fore
SplineSet
2429 3104 m 1,0,-1
 2429 0 l 1,1,-1
 1875 0 l 1,2,-1
 1875 1411 l 1,3,-1
 733 1411 l 1,4,-1
 733 0 l 1,5,-1
 195 0 l 1,6,-1
 195 3104 l 1,7,-1
 733 3104 l 1,8,-1
 733 1933 l 1,9,-1
 1875 1933 l 1,10,-1
 1875 3104 l 1,11,-1
 2429 3104 l 1,0,-1
EndSplineSet
Validated: 1
EndChar

StartChar: I
Encoding: 73 73 44
Width: 1008
GlyphClass: 2
Flags: W
LayerCount: 2
Fore
SplineSet
1037 522 m 1,0,-1
 1037 0 l 1,1,-1
 -45 0 l 1,2,-1
 -45 522 l 1,3,-1
 227 522 l 1,4,-1
 227 2598 l 1,5,-1
 -45 2598 l 1,6,-1
 -45 3104 l 1,7,-1
 1037 3104 l 1,8,-1
 1037 2598 l 1,9,-1
 765 2598 l 1,10,-1
 765 522 l 1,11,-1
 1037 522 l 1,0,-1
EndSplineSet
Validated: 1
EndChar

StartChar: J
Encoding: 74 74 45
Width: 2224
GlyphClass: 2
Flags: W
LayerCount: 2
Fore
SplineSet
1475 3104 m 1,0,-1
 2029 3104 l 1,1,-1
 2029 1063 l 2,2,3
 2029 546 2029 546 1711 273 c 256,4,5
 1393 0 1393 0 800 0 c 0,6,7
 491 0 491 0 198 103 c 2,8,-1
 115 133 l 1,9,-1
 115 724 l 1,10,-1
 285 658 l 2,11,12
 551 554 551 554 800 554 c 0,13,14
 1036 554 1036 554 1183 612 c 256,15,16
 1330 670 1330 670 1400 789 c 256,17,18
 1470 907 1470 907 1475 1097 c 1,19,-1
 1475 3104 l 1,0,-1
EndSplineSet
Validated: 1
EndChar

StartChar: K
Encoding: 75 75 46
Width: 2448
GlyphClass: 2
Flags: W
LayerCount: 2
Fore
SplineSet
733 1486 m 1,0,-1
 733 0 l 1,1,-1
 195 0 l 1,2,-1
 195 3104 l 1,3,-1
 733 3104 l 1,4,-1
 733 1984 l 1,5,-1
 1819 3104 l 1,6,-1
 2570 3104 l 1,7,8
 2535 3069 2535 3069 2466 2998 c 0,9,10
 2396 2933 2396 2933 2361 2900 c 2,11,-1
 1285 1890 l 1,12,13
 2074 652 2074 652 2380 174 c 2,14,-1
 2491 0 l 1,15,-1
 1814 0 l 1,16,-1
 900 1655 l 1,17,-1
 733 1486 l 1,0,-1
EndSplineSet
Validated: 1
EndChar

StartChar: L
Encoding: 76 76 47
Width: 2208
GlyphClass: 2
Flags: W
LayerCount: 2
Fore
SplineSet
2013 522 m 1,0,-1
 2013 0 l 1,1,-1
 195 0 l 1,2,-1
 195 3104 l 1,3,-1
 733 3104 l 1,4,-1
 733 522 l 1,5,-1
 2013 522 l 1,0,-1
EndSplineSet
Validated: 1
EndChar

StartChar: M
Encoding: 77 77 48
Width: 3040
GlyphClass: 2
Flags: W
LayerCount: 2
Fore
SplineSet
195 0 m 1,0,-1
 195 3104 l 1,1,-1
 888 3104 l 1,2,-1
 1493 1428 l 1,3,-1
 2155 3104 l 1,4,-1
 2829 3104 l 1,5,-1
 2829 0 l 1,6,-1
 2291 0 l 1,7,-1
 2291 2198 l 1,8,-1
 1748 848 l 1,9,-1
 1225 848 l 1,10,-1
 749 2143 l 1,11,-1
 749 0 l 1,12,-1
 195 0 l 1,0,-1
EndSplineSet
Validated: 1
EndChar

StartChar: N
Encoding: 78 78 49
Width: 2624
GlyphClass: 2
Flags: W
LayerCount: 2
Fore
SplineSet
2413 3104 m 1,0,-1
 2413 0 l 1,1,-1
 1760 0 l 1,2,-1
 733 2240 l 1,3,-1
 733 0 l 1,4,-1
 195 0 l 1,5,-1
 195 3104 l 1,6,-1
 800 3104 l 1,7,-1
 1875 805 l 1,8,-1
 1875 3104 l 1,9,-1
 2413 3104 l 1,0,-1
EndSplineSet
Validated: 1
EndChar

StartChar: O
Encoding: 79 79 50
Width: 2896
GlyphClass: 2
Flags: W
LayerCount: 2
Fore
SplineSet
1344 3104 m 2,0,-1
 1568 3104 l 2,1,2
 1800 3104 1800 3104 2009 2986 c 0,3,4
 2219 2877 2219 2877 2401 2669 c 0,5,6
 2765 2255 2765 2255 2765 1537 c 0,7,8
 2765 819 2765 819 2409 419 c 0,9,10
 2228 216 2228 216 1982 113 c 0,11,12
 1737 0 1737 0 1440 0 c 0,13,14
 1133 0 1133 0 885 122 c 0,15,16
 636 234 636 234 460 454 c 0,17,18
 115 882 115 882 115 1537 c 0,19,20
 115 2239 115 2239 478 2661 c 0,21,22
 660 2873 660 2873 879 2983 c 0,23,24
 1097 3104 1097 3104 1344 3104 c 2,0,-1
1749 2520 m 260,25,26
 1619 2582 1619 2582 1456 2582 c 4,27,28
 1292 2582 1292 2582 1158 2519 c 260,29,30
 1023 2456 1023 2456 906 2323 c 4,31,32
 669 2051 669 2051 669 1528 c 4,33,34
 669 1006 669 1006 889 764 c 4,35,36
 996 646 996 646 1136 585 c 260,37,38
 1276 524 1276 524 1458 517 c 5,39,40
 1624 517 1624 517 1754 573 c 260,41,42
 1884 628 1884 628 1992 744 c 4,43,44
 2211 979 2211 979 2211 1528 c 4,45,46
 2211 2053 2211 2053 1987 2325 c 4,47,48
 1879 2458 1879 2458 1749 2520 c 260,25,26
EndSplineSet
Validated: 1
EndChar

StartChar: P
Encoding: 80 80 51
Width: 2528
GlyphClass: 2
Flags: W
LayerCount: 2
Fore
SplineSet
195 0 m 1,0,-1
 195 3104 l 1,1,-1
 1264 3104 l 2,2,3
 1801 3104 1801 3104 2098 2903 c 0,4,5
 2255 2797 2255 2797 2334 2636 c 256,6,7
 2413 2475 2413 2475 2413 2272 c 0,8,9
 2413 2070 2413 2070 2335 1907 c 256,10,11
 2257 1743 2257 1743 2101 1630 c 0,12,13
 1803 1411 1803 1411 1264 1411 c 2,14,-1
 749 1411 l 1,15,-1
 749 0 l 1,16,-1
 195 0 l 1,0,-1
749 2582 m 1,17,-1
 749 1933 l 1,18,-1
 1264 1933 l 2,19,20
 1439 1933 1439 1933 1560 1958 c 256,21,22
 1682 1983 1682 1983 1748 2025 c 0,23,24
 1813 2067 1813 2067 1844 2126 c 256,25,26
 1875 2185 1875 2185 1875 2271 c 0,27,28
 1875 2357 1875 2357 1845 2411 c 256,29,30
 1815 2465 1815 2465 1754 2500 c 0,31,32
 1688 2538 1688 2538 1564 2560 c 256,33,34
 1440 2582 1440 2582 1264 2582 c 2,35,-1
 749 2582 l 1,17,-1
EndSplineSet
Validated: 1
EndChar

StartChar: Q
Encoding: 81 81 52
Width: 2896
GlyphClass: 2
Flags: W
LayerCount: 2
Fore
SplineSet
1821 1024 m 1,0,-1
 1821 899 l 2,1,2
 1821 798 1821 798 1834 612 c 5,3,4
 1919 663 1919 663 1992 741 c 4,5,6
 2212 977 2212 977 2227 1527 c 5,7,8
 2227 2050 2227 2050 1997 2322 c 4,9,10
 1884 2455 1884 2455 1752 2517 c 260,11,12
 1620 2580 1620 2580 1456 2580 c 4,13,14
 1292 2580 1292 2580 1158 2517 c 260,15,16
 1023 2454 1023 2454 906 2320 c 4,17,18
 669 2048 669 2048 669 1524 c 5,19,20
 668 1492 668 1492 668 1461 c 0,21,22
 668 989 668 989 880 763 c 4,23,24
 1051 580 1051 580 1304 532 c 5,25,26
 1267 784 1267 784 1267 899 c 2,27,-1
 1267 1024 l 1,28,-1
 1821 1024 l 1,0,-1
1344 3104 m 2,29,-1
 1568 3104 l 2,30,31
 1800 3104 1800 3104 2009 2986 c 0,32,33
 2219 2877 2219 2877 2401 2669 c 0,34,35
 2765 2255 2765 2255 2765 1537 c 0,36,37
 2765 819 2765 819 2409 419 c 0,38,39
 2232 220 2232 220 1995 117 c 1,40,41
 2049 38 2049 38 2131 0 c 256,42,43
 2212 -38 2212 -38 2336 -38 c 0,44,45
 2516 -38 2516 -38 2583 -24 c 0,46,47
 2657 -9 2657 -9 2859 52 c 2,48,-1
 3021 102 l 1,49,-1
 3021 -459 l 1,50,-1
 2939 -488 l 2,51,52
 2747 -558 2747 -558 2626 -568 c 0,53,54
 2517 -576 2517 -576 2336 -576 c 0,55,56
 1916 -576 1916 -576 1664 -323 c 0,57,58
 1528 -187 1528 -187 1443 0 c 1,59,60
 1441 0 1441 0 1440 0 c 0,61,62
 1133 0 1133 0 885 122 c 0,63,64
 636 234 636 234 460 454 c 0,65,66
 115 882 115 882 115 1537 c 0,67,68
 115 2239 115 2239 478 2661 c 0,69,70
 660 2873 660 2873 879 2983 c 0,71,72
 1097 3104 1097 3104 1344 3104 c 2,29,-1
EndSplineSet
Validated: 1
EndChar

StartChar: R
Encoding: 82 82 53
Width: 2560
GlyphClass: 2
Flags: W
LayerCount: 2
Fore
SplineSet
2530 94 m 0,0,1
 2566 31 2566 31 2585 0 c 1,2,-1
 1926 0 l 1,3,-1
 1089 1411 l 1,4,-1
 749 1411 l 1,5,-1
 749 0 l 1,6,-1
 195 0 l 1,7,-1
 195 3104 l 1,8,-1
 1264 3104 l 2,9,10
 1801 3104 1801 3104 2098 2905 c 0,11,12
 2255 2800 2255 2800 2334 2640 c 256,13,14
 2413 2480 2413 2480 2413 2279 c 0,15,16
 2413 2079 2413 2079 2335 1917 c 256,17,18
 2257 1755 2257 1755 2101 1642 c 0,19,20
 1927 1515 1927 1515 1670 1463 c 1,21,22
 2239 557 2239 557 2476 181 c 0,23,24
 2494 152 2494 152 2530 94 c 0,0,1
749 2582 m 1,25,-1
 749 1933 l 1,26,-1
 1264 1933 l 2,27,28
 1439 1933 1439 1933 1560 1958 c 256,29,30
 1682 1983 1682 1983 1748 2025 c 0,31,32
 1813 2067 1813 2067 1844 2126 c 256,33,34
 1875 2185 1875 2185 1875 2271 c 0,35,36
 1875 2357 1875 2357 1845 2411 c 256,37,38
 1815 2465 1815 2465 1754 2500 c 0,39,40
 1688 2538 1688 2538 1564 2560 c 256,41,42
 1440 2582 1440 2582 1264 2582 c 2,43,-1
 749 2582 l 1,25,-1
EndSplineSet
Validated: 1
EndChar

StartChar: S
Encoding: 83 83 54
Width: 2464
GlyphClass: 2
Flags: W
LayerCount: 2
Fore
SplineSet
1768 2050 m 6,0,1
 1738 2349 1738 2349 1586 2462 c 4,2,3
 1423 2582 1423 2582 1224 2582 c 4,4,5
 1008 2582 1008 2582 844 2479 c 4,6,7
 772 2434 772 2434 735 2364 c 132,-1,8
 698 2294 698 2294 694 2185 c 4,9,10
 694 2176 694 2176 694 2168 c 0,11,12
 694 2083 694 2083 726 2029 c 4,13,14
 761 1969 761 1969 842 1928 c 4,15,16
 1049 1825 1049 1825 1161 1800 c 6,17,-1
 1166 1799 l 5,18,-1
 1402 1726 l 5,19,20
 1557 1693 1557 1693 1793 1588 c 4,21,22
 2050 1473 2050 1473 2182 1296 c 4,23,24
 2308 1127 2308 1127 2308 858 c 0,25,26
 2308 836 2308 836 2307 814 c 4,27,28
 2299 608 2299 608 2209 447.5 c 132,-1,29
 2119 287 2119 287 1948 186 c 4,30,31
 1630 0 1630 0 1176 0 c 4,32,33
 676 0 676 0 387 301 c 4,34,35
 100 599 100 599 96 999 c 6,36,-1
 95 1130 l 5,37,-1
 632 1130 l 5,38,-1
 649 1030 l 6,39,40
 682 827 682 827 825 677 c 4,41,42
 959 538 959 538 1196 538 c 4,43,44
 1435 538 1435 538 1617 632 c 4,45,46
 1696 673 1696 673 1732 726.5 c 132,-1,47
 1768 780 1768 780 1771 861 c 4,48,49
 1771 873 1771 873 1771 884 c 0,50,51
 1771 988 1771 988 1734 1056 c 4,52,53
 1692 1130 1692 1130 1599 1177 c 4,54,55
 1369 1294 1369 1294 1257 1320 c 5,56,-1
 1029 1380 l 5,57,-1
 1024 1381 l 6,58,59
 849 1440 849 1440 666 1506 c 4,60,61
 457 1581 457 1581 300 1748 c 4,62,63
 141 1915 141 1915 141 2194 c 0,64,65
 141 2213 141 2213 142 2232 c 4,66,67
 150 2437 150 2437 238.5 2603 c 132,-1,68
 327 2769 327 2769 494 2883 c 4,69,70
 816 3104 816 3104 1115 3104 c 6,71,-1
 1355 3104 l 6,72,73
 1554 3104 1554 3104 1729 3030 c 132,-1,74
 1904 2956 1904 2956 2047 2813 c 4,75,76
 2336 2522 2336 2522 2338 2072 c 6,77,-1
 1768 2050 l 6,0,1
EndSplineSet
Validated: 1
EndChar

StartChar: T
Encoding: 84 84 55
Width: 2416
GlyphClass: 2
Flags: W
LayerCount: 2
Fore
SplineSet
2365 3104 m 1,0,-1
 2365 2582 l 1,1,-1
 1469 2582 l 1,2,-1
 1469 0 l 1,3,-1
 931 0 l 1,4,-1
 931 2582 l 1,5,-1
 35 2582 l 1,6,-1
 35 3104 l 1,7,-1
 2365 3104 l 1,0,-1
EndSplineSet
Validated: 1
EndChar

StartChar: U
Encoding: 85 85 56
Width: 2624
GlyphClass: 2
Flags: W
LayerCount: 2
Fore
SplineSet
1891 3104 m 1,0,-1
 2429 3104 l 1,1,-1
 2429 1019 l 2,2,3
 2429 542 2429 542 2136 271 c 256,4,5
 1843 0 1843 0 1328 0 c 0,6,7
 762 0 762 0 477 281 c 0,8,9
 195 559 195 559 195 1034 c 2,10,-1
 195 3104 l 1,11,-1
 733 3104 l 1,12,-1
 733 1066 l 2,13,14
 733 806 733 806 874 670 c 0,15,16
 1013 538 1013 538 1328 538 c 0,17,18
 1625 538 1625 538 1756 669 c 0,19,20
 1891 804 1891 804 1891 1051 c 2,21,-1
 1891 3104 l 1,0,-1
EndSplineSet
Validated: 1
EndChar

StartChar: V
Encoding: 86 86 57
Width: 2592
GlyphClass: 2
Flags: W
LayerCount: 2
Fore
SplineSet
2616 3104 m 1,0,-1
 1613 0 l 1,1,-1
 995 0 l 1,2,-1
 -8 3104 l 1,3,-1
 574 3104 l 1,4,-1
 1297 608 l 1,5,-1
 2008 3014 l 2,6,7
 2013 3030 2013 3030 2022 3060 c 256,8,9
 2031 3090 2031 3090 2035 3104 c 1,10,-1
 2616 3104 l 1,0,-1
EndSplineSet
Validated: 1
EndChar

StartChar: W
Encoding: 87 87 58
Width: 4672
GlyphClass: 2
Flags: W
LayerCount: 2
Fore
SplineSet
4658 3104 m 1,0,-1
 3655 -0 l 1,1,-1
 3037 -0 l 1,2,-1
 2325 2204 l 1,3,-1
 1613 0 l 1,4,-1
 995 0 l 1,5,-1
 -8 3104 l 1,6,-1
 574 3104 l 1,7,-1
 1297 608 l 1,8,-1
 2008 3014 l 2,9,10
 2013 3030 2013 3030 2022 3060 c 0,11,12
 2031 3089 2031 3089 2034 3103 c 0,13,14
 2034 3104 l 2,15,-1
 2035 3104 l 1,16,-1
 2616 3104 l 1,17,-1
 3339 608 l 1,18,-1
 4050 3014 l 2,19,20
 4055 3030 4055 3030 4063.5 3060 c 128,-1,21
 4072 3090 4072 3090 4077 3104 c 1,22,-1
 4658 3104 l 1,0,-1
EndSplineSet
Validated: 1
EndChar

StartChar: X
Encoding: 88 88 59
Width: 2464
GlyphClass: 2
Flags: W
LayerCount: 2
Fore
SplineSet
1232 1114 m 1,0,-1
 601 0 l 1,1,-1
 -56 0 l 1,2,-1
 908 1559 l 1,3,-1
 -39 3104 l 1,4,-1
 600 3104 l 1,5,-1
 1232 2001 l 1,6,-1
 1864 3104 l 1,7,-1
 2503 3104 l 1,8,-1
 2397 2931 l 2,9,10
 1871 2072 1871 2072 1556 1559 c 1,11,-1
 2520 0 l 1,12,-1
 1863 0 l 1,13,-1
 1232 1114 l 1,0,-1
EndSplineSet
Validated: 1
EndChar

StartChar: Y
Encoding: 89 89 60
Width: 2416
GlyphClass: 2
Flags: W
LayerCount: 2
Fore
SplineSet
1825 3104 m 1,0,-1
 2457 3104 l 1,1,-1
 1485 1273 l 1,2,-1
 1485 0 l 1,3,-1
 931 0 l 1,4,-1
 931 1273 l 1,5,-1
 -41 3104 l 1,6,-1
 608 3104 l 1,7,-1
 1203 1802 l 1,8,-1
 1825 3104 l 1,0,-1
EndSplineSet
Validated: 1
EndChar

StartChar: Z
Encoding: 90 90 61
Width: 2320
GlyphClass: 2
Flags: W
LayerCount: 2
Fore
SplineSet
2125 538 m 1,0,-1
 2125 0 l 1,1,-1
 195 0 l 1,2,-1
 195 405 l 1,3,-1
 1471 2582 l 1,4,-1
 195 2582 l 1,5,-1
 195 3104 l 1,6,-1
 2125 3104 l 1,7,-1
 2125 2714 l 1,8,-1
 849 538 l 1,9,-1
 2125 538 l 1,0,-1
EndSplineSet
Validated: 1
EndChar

StartChar: bracketleft
Encoding: 91 91 62
Width: 1376
GlyphClass: 2
Flags: W
LayerCount: 2
Fore
SplineSet
1277 -509 m 1,0,-1
 83 -509 l 1,1,-1
 83 3453 l 1,2,-1
 1309 3453 l 1,3,-1
 1309 2947 l 1,4,-1
 605 2947 l 1,5,-1
 605 -3 l 1,6,-1
 1277 -3 l 1,7,-1
 1277 -509 l 1,0,-1
EndSplineSet
Validated: 1
EndChar

StartChar: backslash
Encoding: 92 92 63
Width: 2064
GlyphClass: 2
Flags: W
LayerCount: 2
Fore
SplineSet
1997 -336 m 1,0,-1
 1499 -571 l 1,1,-1
 49 3282 l 1,2,3
 67 3290 67 3290 103 3306 c 256,4,5
 139 3322 139 3322 157 3330 c 2,6,-1
 567 3512 l 1,7,-1
 1997 -336 l 1,0,-1
EndSplineSet
Validated: 1
EndChar

StartChar: bracketright
Encoding: 93 93 64
Width: 1376
GlyphClass: 2
Flags: W
LayerCount: 2
Fore
SplineSet
1213 -509 m 1,0,-1
 115 -509 l 1,1,-1
 115 13 l 1,2,-1
 675 13 l 1,3,-1
 675 2963 l 1,4,-1
 115 2963 l 1,5,-1
 115 3453 l 1,6,-1
 1213 3453 l 1,7,-1
 1213 -509 l 1,0,-1
EndSplineSet
Validated: 1
EndChar

StartChar: asciicircum
Encoding: 94 94 65
Width: 1696
GlyphClass: 2
Flags: W
LayerCount: 2
Fore
SplineSet
1629 2838 m 1,0,-1
 1629 2109 l 1,1,-1
 847 2853 l 1,2,-1
 83 2146 l 1,3,-1
 83 2871 l 1,4,5
 97 2884 97 2884 123 2908 c 2,6,-1
 763 3500 l 2,7,8
 777 3514 777 3514 806 3540 c 256,9,10
 835 3567 835 3567 849 3579 c 1,11,-1
 1629 2838 l 1,0,-1
EndSplineSet
Validated: 1
EndChar

StartChar: underscore
Encoding: 95 95 66
Width: 1248
GlyphClass: 2
Flags: W
LayerCount: 2
Fore
SplineSet
1373 -701 m 1,0,-1
 -125 -701 l 1,1,-1
 -125 -163 l 1,2,-1
 1373 -163 l 1,3,-1
 1373 -701 l 1,0,-1
EndSplineSet
Validated: 1
EndChar

StartChar: grave
Encoding: 96 96 67
Width: 1696
GlyphClass: 2
Flags: W
LayerCount: 2
Fore
SplineSet
1362 2403 m 1,0,-1
 793 2403 l 1,1,-1
 244 3325 l 1,2,-1
 945 3325 l 1,3,-1
 1362 2403 l 1,0,-1
EndSplineSet
Validated: 1
EndChar

StartChar: a
Encoding: 97 97 68
Width: 1952
GlyphClass: 2
Flags: W
LayerCount: 2
Fore
SplineSet
1773 1660 m 2,0,-1
 1773 0 l 1,1,-1
 1219 0 l 1,2,-1
 1219 96 l 1,3,4
 1033 0 1033 0 832 0 c 0,5,6
 486 0 486 0 300.5 185.5 c 128,-1,7
 115 371 115 371 115 701 c 0,8,9
 115 815 115 815 190.5 963.5 c 128,-1,10
 266 1112 266 1112 409 1216.5 c 128,-1,11
 552 1321 552 1321 755.5 1386 c 128,-1,12
 959 1451 959 1451 1219 1477 c 1,13,-1
 1219 1616 l 2,14,15
 1219 1731 1219 1731 1155 1776 c 0,16,17
 1077 1830 1077 1830 944 1830 c 0,18,19
 861 1830 861 1830 764 1766 c 0,20,21
 660 1698 660 1698 654 1612 c 2,22,-1
 650 1544 l 1,23,-1
 107 1544 l 1,24,-1
 115 1609 l 2,25,26
 149 1894 149 1894 328 2107 c 0,27,28
 431 2229 431 2229 580 2290.5 c 128,-1,29
 729 2352 729 2352 912 2352 c 2,30,-1
 1088 2352 l 2,31,32
 1323 2352 1323 2352 1541 2198 c 0,33,34
 1773 2033 1773 2033 1773 1660 c 2,0,-1
1219 711 m 1,35,-1
 1219 1144 l 1,36,37
 1066 1119 1066 1119 956.5 1078.5 c 128,-1,38
 847 1038 847 1038 782 984 c 0,39,40
 722 933 722 933 687 866 c 0,41,42
 654 803 654 803 653 795 c 1,43,44
 653 692 653 692 676 637 c 128,-1,45
 699 582 699 582 746 560 c 128,-1,46
 793 538 793 538 880 538 c 0,47,48
 937 538 937 538 1024.5 580 c 128,-1,49
 1112 622 1112 622 1219 711 c 1,35,-1
EndSplineSet
Validated: 1
EndChar

StartChar: b
Encoding: 98 98 69
Width: 2032
GlyphClass: 2
Flags: W
LayerCount: 2
Fore
SplineSet
749 3248 m 1,0,-1
 749 2277 l 1,1,2
 887 2352 887 2352 1008 2352 c 2,3,-1
 1200 2352 l 2,4,5
 1466 2352 1466 2352 1687 2118 c 0,6,7
 1803 1996 1803 1996 1852 1785 c 0,8,9
 1901 1574 1901 1574 1901 1259 c 2,10,-1
 1901 1101 l 2,11,12
 1901 847 1901 847 1851 647 c 0,13,14
 1800 447 1800 447 1700 304 c 0,15,16
 1600 160 1600 160 1441 84 c 0,17,18
 1282 0 1282 0 1072 0 c 0,19,20
 904 0 904 0 749 61 c 1,21,-1
 749 0 l 1,22,-1
 195 0 l 1,23,-1
 195 3248 l 1,24,-1
 749 3248 l 1,0,-1
1104 1814 m 0,25,26
 944 1814 944 1814 749 1693 c 1,27,-1
 749 631 l 1,28,29
 902 538 902 538 1072 538 c 0,30,31
 1126 538 1126 538 1170 554 c 0,32,33
 1214 570 1214 570 1253 610 c 0,34,35
 1293 651 1293 651 1320 715 c 0,36,37
 1347 779 1347 779 1363 881 c 0,38,39
 1379 983 1379 983 1379 1116 c 2,40,-1
 1379 1250 l 2,41,42
 1379 1814 1379 1814 1104 1814 c 0,25,26
EndSplineSet
Validated: 1
EndChar

StartChar: c
Encoding: 99 99 70
Width: 2048
GlyphClass: 2
Flags: W
LayerCount: 2
Fore
SplineSet
1971 981 m 1,0,-1
 1963 885 l 6,1,2
 1934 543 1934 543 1720 285 c 0,3,4
 1602 144 1602 144 1437 72 c 128,-1,5
 1272 0 1272 0 1072 0 c 0,6,7
 862 0 862 0 672 90 c 0,8,9
 485 179 485 179 363 329 c 0,10,11
 115 633 115 633 115 1173 c 0,12,13
 115 1746 115 1746 383 2044 c 0,14,15
 660 2352 660 2352 992 2352 c 2,16,-1
 1168 2352 l 2,17,18
 1323 2352 1323 2352 1464 2284 c 0,19,20
 1626 2206 1626 2206 1724 2088 c 0,21,22
 1965 1796 1965 1796 1965 1427 c 2,23,-1
 1965 1397 l 1,24,-1
 1424 1397 l 1,25,-1
 1411 1469 l 2,26,27
 1399 1536 1399 1536 1366 1618 c 0,28,29
 1334 1698 1334 1698 1294 1733 c 0,30,31
 1201 1814 1201 1814 1072 1814 c 0,32,33
 984 1814 984 1814 915 1780 c 128,-1,34
 846 1746 846 1746 785 1668 c 0,35,36
 653 1500 653 1500 653 1184 c 0,37,38
 653 1005 653 1005 689 880 c 128,-1,39
 725 755 725 755 787 687 c 0,40,41
 852 616 852 616 921 585 c 128,-1,42
 990 554 990 554 1072 554 c 0,43,44
 1132 554 1132 554 1182 579 c 128,-1,45
 1232 604 1232 604 1280 662 c 0,46,47
 1373 772 1373 772 1387 865 c 2,48,-1
 1404 981 l 1,49,-1
 1971 981 l 1,0,-1
EndSplineSet
Validated: 1
EndChar

StartChar: d
Encoding: 100 100 71
Width: 2032
GlyphClass: 2
Flags: W
LayerCount: 2
Fore
SplineSet
1837 3248 m 1,0,-1
 1837 0 l 1,1,-1
 1315 0 l 1,2,-1
 1315 49 l 1,3,4
 1175 0 1175 0 1008 0 c 0,5,6
 784 0 784 0 614 84 c 0,7,8
 444 159 444 159 334 301 c 0,9,10
 224 443 224 443 170 643 c 0,11,12
 115 843 115 843 115 1097 c 2,13,-1
 115 1241 l 2,14,15
 115 1530 115 1530 162 1736 c 0,16,17
 209 1942 209 1942 314 2074 c 0,18,19
 417 2204 417 2204 558 2274 c 0,20,21
 698 2352 698 2352 864 2352 c 2,22,-1
 1008 2352 l 2,23,24
 1159 2352 1159 2352 1315 2283 c 1,25,-1
 1315 3248 l 1,26,-1
 1837 3248 l 1,0,-1
1008 538 m 0,27,28
 1164 538 1164 538 1315 631 c 1,29,-1
 1315 1706 l 1,30,31
 1137 1814 1137 1814 992 1814 c 0,32,33
 887 1814 887 1814 830 1785 c 0,34,35
 773 1756 773 1756 739 1690 c 0,36,37
 653 1522 653 1522 653 1236 c 2,38,-1
 653 1102 l 2,39,40
 653 973 653 973 670 876 c 0,41,42
 686 778 686 778 716 714 c 0,43,44
 746 650 746 650 792 611 c 0,45,46
 838 571 838 571 890 554 c 0,47,48
 942 538 942 538 1008 538 c 0,27,28
EndSplineSet
Validated: 1
EndChar

StartChar: e
Encoding: 101 101 72
Width: 2048
GlyphClass: 2
Flags: W
LayerCount: 2
Fore
SplineSet
1933 931 m 1,0,-1
 665 931 l 1,1,2
 694 744 694 744 785 622 c 0,3,4
 836 553 836 553 913 517 c 0,5,6
 990 481 990 481 1107 474 c 1,7,8
 1212 475 1212 475 1269 506 c 0,9,10
 1328 539 1328 539 1360 597 c 2,11,-1
 1395 658 l 1,12,-1
 1955 658 l 1,13,-1
 1913 519 l 2,14,15
 1837 267 1837 267 1605 131 c 0,16,17
 1382 0 1382 0 1104 0 c 0,18,19
 878 0 878 0 693 87 c 0,20,21
 507 165 507 165 374 318 c 0,22,23
 115 614 115 614 115 1069 c 2,24,-1
 115 1313 l 2,25,26
 115 1828 115 1828 352 2082 c 0,27,28
 471 2209 471 2209 617 2277 c 0,29,30
 763 2352 763 2352 928 2352 c 2,31,-1
 1120 2352 l 2,32,33
 1278 2352 1278 2352 1421 2277 c 0,34,35
 1564 2208 1564 2208 1686 2079 c 0,36,37
 1933 1820 1933 1820 1933 1294 c 2,38,-1
 1933 931 l 1,0,-1
658 1453 m 1,39,-1
 1380 1453 l 1,40,41
 1374 1650 1374 1650 1291 1736 c 0,42,43
 1244 1784 1244 1784 1181 1807 c 0,44,45
 1118 1830 1118 1830 1024 1830 c 0,46,47
 950 1830 950 1830 890 1805 c 0,48,49
 830 1780 830 1780 772 1723 c 0,50,51
 678 1629 678 1629 658 1453 c 1,39,-1
EndSplineSet
Validated: 1
EndChar

StartChar: f
Encoding: 102 102 73
Width: 1248
GlyphClass: 2
Flags: W
LayerCount: 2
Fore
SplineSet
768 3248 m 2,0,-1
 1229 3248 l 1,1,-1
 1229 2726 l 1,2,-1
 768 2726 l 2,3,4
 749 2726 749 2726 734 2724 c 1,5,6
 733 2716 733 2716 733 2707 c 2,7,-1
 733 2352 l 1,8,-1
 1229 2352 l 1,9,-1
 1229 1830 l 1,10,-1
 733 1830 l 1,11,-1
 733 0 l 1,12,-1
 195 0 l 1,13,-1
 195 1830 l 1,14,-1
 -77 1830 l 1,15,-1
 -77 2352 l 1,16,-1
 195 2352 l 1,17,-1
 195 2707 l 2,18,19
 195 2986 195 2986 339 3119 c 0,20,21
 479 3248 479 3248 768 3248 c 2,0,-1
EndSplineSet
Validated: 1
EndChar

StartChar: g
Encoding: 103 103 74
Width: 1888
GlyphClass: 2
Flags: W
LayerCount: 2
Fore
SplineSet
163 138 m 1,0,-1
 328 84 l 2,1,2
 597 -6 597 -6 808 -6 c 0,3,4
 986 -6 986 -6 1069 82 c 0,5,6
 1083 97 1083 97 1095 115 c 1,7,8
 986 80 986 80 880 80 c 0,9,10
 686 80 686 80 539 150.5 c 128,-1,11
 392 221 392 221 299.5 353.5 c 128,-1,12
 207 486 207 486 161 668.5 c 128,-1,13
 115 851 115 851 115 1083 c 2,14,-1
 115 1298 l 2,15,16
 115 1572 115 1572 155.5 1766 c 128,-1,17
 196 1960 196 1960 287 2085 c 0,18,19
 376 2208 376 2208 495 2276 c 0,20,21
 613 2352 613 2352 752 2352 c 2,22,-1
 928 2352 l 2,23,24
 1038 2352 1038 2352 1155 2302 c 1,25,-1
 1155 2352 l 1,26,-1
 1693 2352 l 1,27,-1
 1693 447 l 2,28,29
 1693 199 1693 199 1640 16 c 0,30,31
 1587 -186 1587 -186 1469 -318 c 0,32,33
 1355 -446 1355 -446 1201 -511 c 128,-1,34
 1047 -576 1047 -576 864 -576 c 0,35,36
 545 -576 545 -576 259 -509 c 2,37,-1
 163 -486 l 1,38,-1
 163 138 l 1,0,-1
653 1295 m 2,39,-1
 653 1097 l 2,40,41
 653 618 653 618 880 618 c 0,42,43
 1008 618 1008 618 1155 700 c 1,44,-1
 1155 1742 l 1,45,46
 1009 1814 1009 1814 880 1814 c 0,47,48
 846 1814 846 1814 815.5 1801 c 128,-1,49
 785 1788 785 1788 754.5 1753 c 128,-1,50
 724 1718 724 1718 702 1662 c 128,-1,51
 680 1606 680 1606 666.5 1511.5 c 128,-1,52
 653 1417 653 1417 653 1295 c 2,39,-1
EndSplineSet
Validated: 1
EndChar

StartChar: h
Encoding: 104 104 75
Width: 2048
GlyphClass: 2
Flags: W
LayerCount: 2
Fore
SplineSet
1853 1787 m 2,0,-1
 1853 0 l 1,1,-1
 1299 0 l 1,2,-1
 1299 1699 l 2,3,4
 1299 1731 1299 1731 1293 1754 c 0,5,6
 1287 1777 1287 1777 1284 1784 c 0,7,8
 1280 1790 1280 1790 1278 1792 c 0,9,10
 1274 1795 1274 1795 1261 1799 c 0,11,12
 1248 1803 1248 1803 1214 1809 c 0,13,14
 1179 1814 1179 1814 1136 1814 c 0,15,16
 1039 1814 1039 1814 947 1771 c 0,17,18
 890 1744 890 1744 817 1686 c 0,19,20
 777 1654 777 1654 733 1614 c 1,21,-1
 733 0 l 1,22,-1
 195 0 l 1,23,-1
 195 3248 l 1,24,-1
 733 3248 l 1,25,-1
 733 2224 l 1,26,27
 750 2235 750 2235 767 2246 c 0,28,29
 941 2352 941 2352 1120 2352 c 2,30,-1
 1264 2352 l 2,31,32
 1391 2352 1391 2352 1500 2308 c 0,33,34
 1609 2268 1609 2268 1691 2189 c 0,35,36
 1853 2034 1853 2034 1853 1787 c 2,0,-1
EndSplineSet
Validated: 1
EndChar

StartChar: i
Encoding: 105 105 76
Width: 864
GlyphClass: 2
Flags: W
LayerCount: 2
Fore
SplineSet
717 2352 m 1,0,-1
 717 0 l 1,1,-1
 163 0 l 1,2,-1
 163 2352 l 1,3,-1
 717 2352 l 1,0,-1
717 3248 m 1,4,-1
 717 2470 l 1,5,-1
 163 2470 l 1,6,-1
 163 3248 l 1,7,-1
 717 3248 l 1,4,-1
EndSplineSet
Validated: 1
EndChar

StartChar: j
Encoding: 106 106 77
Width: 896
GlyphClass: 2
Flags: W
LayerCount: 2
Fore
SplineSet
717 3248 m 1,0,-1
 717 2470 l 1,1,-1
 179 2470 l 1,2,-1
 179 3248 l 1,3,-1
 717 3248 l 1,0,-1
179 2352 m 1,4,-1
 717 2352 l 1,5,-1
 717 45 l 2,6,7
 716 -92 716 -92 686 -204 c 0,8,9
 656 -316 656 -316 596 -400 c 0,10,11
 536 -484 536 -484 441 -530 c 0,12,13
 346 -576 346 -576 224 -576 c 2,14,-1
 -125 -576 l 1,15,-1
 -125 -22 l 1,16,-1
 128 -22 l 2,17,18
 134 -22 134 -22 144 -22 c 0,19,20
 154 -148 154 -148 158 -22 c 0,21,22
 160 -22 160 -22 166 -22 c 0,23,24
 172 -22 172 -22 172 -17 c 0,25,26
 172 -12 172 -12 176 -10 c 0,27,28
 178 -8 178 -8 178 2 c 0,29,30
 178 12 178 12 178 20 c 0,31,32
 178 28 178 28 179 45 c 2,33,-1
 179 2352 l 1,4,-1
EndSplineSet
Validated: 1
EndChar

StartChar: k
Encoding: 107 107 78
Width: 1888
GlyphClass: 2
Flags: W
LayerCount: 2
Fore
SplineSet
733 1064 m 1,0,-1
 733 0 l 1,1,-1
 195 0 l 1,2,-1
 195 3248 l 1,3,-1
 733 3248 l 1,4,-1
 733 1617 l 1,5,-1
 1316 2352 l 1,6,-1
 2010 2352 l 1,7,-1
 1174 1443 l 1,8,-1
 1943 0 l 1,9,-1
 1311 0 l 1,10,-1
 796 1140 l 1,11,-1
 733 1064 l 1,0,-1
EndSplineSet
Validated: 1
EndChar

StartChar: l
Encoding: 108 108 79
Width: 864
GlyphClass: 2
Flags: W
LayerCount: 2
Fore
SplineSet
909 538 m 1,0,-1
 909 0 l 1,1,-1
 656 0 l 2,2,3
 428 0 428 0 296 123 c 0,4,5
 164 246 164 246 163 458 c 2,6,-1
 163 3248 l 1,7,-1
 717 3248 l 1,8,-1
 717 538 l 1,9,-1
 909 538 l 1,0,-1
EndSplineSet
Validated: 1
EndChar

StartChar: m
Encoding: 109 109 80
Width: 3008
GlyphClass: 2
Flags: W
LayerCount: 2
Fore
SplineSet
2813 1733 m 2,0,-1
 2813 0 l 1,1,-1
 2259 0 l 1,2,-1
 2259 1687 l 2,3,4
 2259 1775 2259 1775 2226 1798 c 0,5,6
 2209 1810 2209 1810 2163 1820 c 0,7,8
 2118 1830 2118 1830 2048 1830 c 0,9,10
 1893 1830 1893 1830 1773 1748 c 0,11,12
 1765 1743 1765 1743 1757 1737 c 1,13,-1
 1757 0 l 1,14,-1
 1219 0 l 1,15,-1
 1219 1687 l 2,16,17
 1219 1776 1219 1776 1181 1794 c 0,18,19
 1105 1830 1105 1830 992 1830 c 0,20,21
 848 1830 848 1830 764 1771 c 0,22,23
 748 1760 748 1760 733 1746 c 1,24,-1
 733 0 l 1,25,-1
 195 0 l 1,26,-1
 195 2352 l 1,27,-1
 733 2352 l 1,28,-1
 733 2304 l 1,29,30
 851 2352 851 2352 992 2352 c 2,31,-1
 1136 2352 l 2,32,33
 1296 2352 1296 2352 1427 2281 c 0,34,35
 1497 2243 1497 2243 1559 2190 c 1,36,37
 1774 2352 1774 2352 2048 2352 c 2,38,-1
 2224 2352 l 2,39,40
 2430 2352 2430 2352 2617 2210 c 0,41,42
 2813 2060 2813 2060 2813 1733 c 2,0,-1
EndSplineSet
Validated: 1
EndChar

StartChar: n
Encoding: 110 110 81
Width: 2048
GlyphClass: 2
Flags: W
LayerCount: 2
Fore
SplineSet
1853 1791 m 2,0,-1
 1853 0 l 1,1,-1
 1315 0 l 1,2,-1
 1315 1687 l 2,3,4
 1315 1723 1315 1723 1309 1751 c 0,5,6
 1303 1780 1303 1780 1299 1789 c 0,7,8
 1294 1800 1294 1800 1292 1802 c 1,9,10
 1232 1830 1232 1830 1120 1830 c 0,11,12
 985 1830 985 1830 898 1774 c 0,13,14
 855 1746 855 1746 815 1710 c 0,15,16
 772 1672 772 1672 733 1624 c 1,17,-1
 733 0 l 1,18,-1
 195 0 l 1,19,-1
 195 2352 l 1,20,-1
 733 2352 l 1,21,-1
 733 2252 l 1,22,23
 785 2285 785 2285 837 2309 c 0,24,25
 933 2352 933 2352 1104 2352 c 2,26,-1
 1280 2352 l 2,27,28
 1506 2352 1506 2352 1678 2206 c 0,29,30
 1853 2057 1853 2057 1853 1791 c 2,0,-1
EndSplineSet
Validated: 1
EndChar

StartChar: o
Encoding: 111 111 82
Width: 2080
GlyphClass: 2
Flags: W
LayerCount: 2
Fore
SplineSet
944 2352 m 2,0,-1
 1152 2352 l 2,1,2
 1472 2352 1472 2352 1725 2039 c 0,3,4
 1965 1743 1965 1743 1965 1231 c 2,5,-1
 1965 1145 l 2,6,7
 1965 664 1965 664 1728 347 c 0,8,9
 1605 182 1605 182 1429 96 c 0,10,11
 1254 0 1254 0 1040 0 c 0,12,13
 818 0 818 0 640 99 c 0,14,15
 462 188 462 188 342 356 c 0,16,17
 115 677 115 677 115 1140 c 2,18,-1
 115 1226 l 2,19,20
 115 1720 115 1720 345 2021 c 0,21,22
 463 2175 463 2175 615 2259 c 0,23,24
 766 2352 766 2352 944 2352 c 2,0,-1
770 1682 m 0,25,26
 653 1527 653 1527 653 1224 c 2,27,-1
 653 1144 l 2,28,29
 653 879 653 879 779 704 c 0,30,31
 838 623 838 623 900 588 c 0,32,33
 963 554 963 554 1040 554 c 0,34,35
 1119 554 1119 554 1179 585 c 0,36,37
 1239 616 1239 616 1293 691 c 0,38,39
 1411 853 1411 853 1411 1144 c 2,40,-1
 1411 1224 l 2,41,42
 1411 1503 1411 1503 1292 1672 c 0,43,44
 1238 1749 1238 1749 1178 1782 c 0,45,46
 1118 1814 1118 1814 1040 1814 c 0,47,48
 951 1814 951 1814 887 1783 c 0,49,50
 823 1752 823 1752 770 1682 c 0,25,26
EndSplineSet
Validated: 1
EndChar

StartChar: p
Encoding: 112 112 83
Width: 2032
GlyphClass: 2
Flags: W
LayerCount: 2
Fore
SplineSet
1088 477 m 4,0,1
 1141 477 1141 477 1183 490.5 c 132,-1,2
 1225 504 1225 504 1262.5 538.5 c 132,-1,3
 1300 573 1300 573 1325 628 c 132,-1,4
 1350 683 1350 683 1364.5 770.5 c 132,-1,5
 1379 858 1379 858 1379 974 c 6,6,-1
 1379 1175 l 6,7,8
 1379 1365 1379 1365 1349.5 1492 c 132,-1,9
 1320 1619 1320 1619 1277 1667 c 4,10,11
 1198 1754 1198 1754 1128 1754 c 0,12,13
 1123 1754 1123 1754 1118 1754 c 6,14,-1
 1111 1753 l 5,15,-1
 1104 1753 l 6,16,17
 903 1753 903 1753 733 1677 c 5,18,-1
 733 554 l 5,19,20
 912 477 912 477 1088 477 c 4,0,1
733 2352 m 5,21,-1
 733 2283 l 5,22,23
 865 2352 865 2352 976 2352 c 6,24,-1
 1136 2352 l 6,25,26
 1294 2352 1294 2352 1435 2276 c 4,27,28
 1575 2208 1575 2208 1689 2080 c 4,29,30
 1809 1947 1809 1947 1863 1735.5 c 132,-1,31
 1917 1524 1917 1524 1917 1227 c 6,32,-1
 1917 1112 l 6,33,34
 1917 855 1917 855 1864.5 653 c 132,-1,35
 1812 451 1812 451 1707.5 306 c 132,-1,36
 1603 161 1603 161 1438 85 c 4,37,38
 1273 0 1273 0 1056 0 c 4,39,40
 883 0 883 0 733 52 c 5,41,-1
 733 -576 l 5,42,-1
 195 -576 l 5,43,-1
 195 2352 l 5,44,-1
 733 2352 l 5,21,-1
EndSplineSet
Validated: 1
EndChar

StartChar: q
Encoding: 113 113 84
Width: 2032
GlyphClass: 2
Flags: W
LayerCount: 2
Fore
SplineSet
1837 2352 m 1,0,-1
 1837 -576 l 1,1,-1
 1299 -576 l 1,2,-1
 1299 62 l 1,3,4
 1123 1 1123 1 945 0 c 0,5,6
 934 0 934 0 923 -0 c 0,7,8
 923 -0 l 0,9,10
 760 0 760 0 628 51 c 0,11,12
 496 97 496 97 400.5 183.5 c 128,-1,13
 305 270 305 270 241 395.5 c 128,-1,14
 177 521 177 521 146 678 c 128,-1,15
 115 835 115 835 115 1024 c 2,16,-1
 115 1239 l 2,17,18
 115 1528 115 1528 162 1734.5 c 128,-1,19
 209 1941 209 1941 314 2074 c 0,20,21
 417 2204 417 2204 553 2274 c 0,22,23
 689 2352 689 2352 848 2352 c 2,24,-1
 1040 2352 l 2,25,26
 1158 2352 1158 2352 1299 2298 c 1,27,-1
 1299 2352 l 1,28,-1
 1837 2352 l 1,0,-1
944 538 m 4,29,30
 1120 538 1120 538 1299 615 c 5,31,-1
 1299 1738 l 5,32,33
 1129 1814 1129 1814 928 1814 c 6,34,-1
 921 1814 l 5,35,-1
 914 1815 l 6,36,37
 909 1815 909 1815 904 1815 c 0,38,39
 835 1815 835 1815 755 1728 c 4,40,41
 712 1681 712 1681 682.5 1553.5 c 132,-1,42
 653 1426 653 1426 653 1236 c 6,43,-1
 653 1036 l 6,44,45
 653 920 653 920 667.5 832.5 c 132,-1,46
 682 745 682 745 707 689.5 c 132,-1,47
 732 634 732 634 769.5 599.5 c 132,-1,48
 807 565 807 565 849 551.5 c 132,-1,49
 891 538 891 538 944 538 c 4,29,30
EndSplineSet
Validated: 5
EndChar

StartChar: r
Encoding: 114 114 85
Width: 1424
GlyphClass: 2
Flags: W
LayerCount: 2
Fore
SplineSet
1469 2352 m 1,0,-1
 1469 1830 l 1,1,-1
 1120 1830 l 2,2,3
 1044 1830 1044 1830 920 1793 c 0,4,5
 862 1776 862 1776 804 1735 c 0,6,7
 769 1710 769 1710 733 1675 c 1,8,-1
 733 0 l 1,9,-1
 195 0 l 1,10,-1
 195 2352 l 1,11,-1
 733 2352 l 1,12,-1
 733 2251 l 1,13,14
 770 2271 770 2271 808 2287 c 0,15,16
 967 2352 967 2352 1120 2352 c 2,17,-1
 1469 2352 l 1,0,-1
EndSplineSet
Validated: 1
EndChar

StartChar: s
Encoding: 115 115 86
Width: 1888
GlyphClass: 2
Flags: W
LayerCount: 2
Fore
SplineSet
1126 1736 m 4,0,1
 1044 1814 1044 1814 933 1814 c 4,2,3
 790 1814 790 1814 729 1766 c 4,4,5
 700 1743 700 1743 685.5 1714.5 c 132,-1,6
 671 1686 671 1686 670 1643 c 4,7,8
 670 1638 670 1638 670 1633 c 0,9,10
 670 1528 670 1528 729 1471 c 4,11,12
 795 1407 795 1407 929 1385 c 6,13,-1
 933 1384 l 5,14,-1
 1063 1356 l 5,15,16
 1292 1309 1292 1309 1437 1220 c 4,17,18
 1588 1127 1588 1127 1671 984 c 4,19,20
 1749 849 1749 849 1749 655 c 0,21,22
 1749 643 1749 643 1749 630 c 4,23,24
 1745 484 1745 484 1687.5 364 c 132,-1,25
 1630 244 1630 244 1518 160 c 4,26,27
 1303 0 1303 0 952 0 c 4,28,29
 601 0 601 0 371 207 c 4,30,31
 182 377 182 377 112 834 c 6,32,-1
 102 901 l 5,33,-1
 664 901 l 5,34,-1
 665 863 l 6,35,36
 671 697 671 697 764 609 c 4,37,38
 838 538 838 538 966 538 c 4,39,40
 1110 538 1110 538 1163 580 c 4,41,42
 1211 618 1211 618 1213 695 c 4,43,44
 1213 704 1213 704 1213 712 c 0,45,46
 1213 781 1213 781 1198 822 c 4,47,48
 1185 858 1185 858 1131 902 c 4,49,50
 1081 942 1081 942 992 952 c 6,51,-1
 985 953 l 5,52,-1
 856 981 l 5,53,54
 621 1014 621 1014 387 1170 c 4,55,56
 255 1258 255 1258 192 1395 c 4,57,58
 133 1524 133 1524 133 1685 c 0,59,60
 133 1696 133 1696 134 1708 c 4,61,62
 137 1847 137 1847 194 1966 c 132,-1,63
 251 2085 251 2085 360 2174 c 4,64,65
 577 2352 577 2352 851 2352 c 6,66,-1
 1027 2352 l 6,67,68
 1317 2352 1317 2352 1540 2133 c 4,69,70
 1683 1993 1683 1993 1771 1529 c 6,71,-1
 1777 1500 l 5,72,-1
 1227 1500 l 5,73,-1
 1226 1515 l 6,74,75
 1225 1642 1225 1642 1126 1736 c 4,0,1
EndSplineSet
Validated: 1
EndChar

StartChar: t
Encoding: 116 116 87
Width: 1440
GlyphClass: 2
Flags: W
LayerCount: 2
Fore
SplineSet
1325 0 m 1,0,-1
 720 0 l 2,1,2
 474 0 474 0 334 128 c 0,3,4
 194 256 194 256 195 476 c 2,5,-1
 195 1830 l 1,6,-1
 -45 1830 l 1,7,-1
 -45 2352 l 1,8,-1
 195 2352 l 1,9,-1
 195 3104 l 1,10,-1
 733 3104 l 1,11,-1
 733 2352 l 1,12,-1
 1325 2352 l 1,13,-1
 1325 1830 l 1,14,-1
 733 1830 l 1,15,-1
 733 541 l 2,16,17
 733 540 733 540 733 538 c 1,18,-1
 1325 538 l 1,19,-1
 1325 0 l 1,0,-1
EndSplineSet
Validated: 33
EndChar

StartChar: u
Encoding: 117 117 88
Width: 2048
GlyphClass: 2
Flags: W
LayerCount: 2
Fore
SplineSet
1853 2352 m 1,0,-1
 1853 0 l 1,1,-1
 1299 0 l 1,2,-1
 1299 95 l 1,3,4
 1109 0 1109 0 880 0 c 0,5,6
 581 0 581 0 395 133 c 0,7,8
 195 275 195 275 195 590 c 2,9,-1
 195 2352 l 1,10,-1
 749 2352 l 1,11,-1
 749 653 l 2,12,13
 750 582 750 582 776 560 c 0,14,15
 802 538 802 538 896 538 c 0,16,17
 1109 538 1109 538 1299 722 c 1,18,-1
 1299 2352 l 1,19,-1
 1853 2352 l 1,0,-1
EndSplineSet
Validated: 1
EndChar

StartChar: v
Encoding: 118 118 89
Width: 1952
GlyphClass: 2
Flags: W
LayerCount: 2
Fore
SplineSet
1918 2352 m 5,0,-1
 1299 0 l 5,1,-1
 688 0 l 5,2,-1
 -2 2352 l 5,3,-1
 610 2352 l 5,4,-1
 986 825 l 5,5,-1
 1324 2352 l 5,6,-1
 1918 2352 l 5,0,-1
EndSplineSet
Validated: 1
EndChar

StartChar: w
Encoding: 119 119 90
Width: 3256
GlyphClass: 2
Flags: W
LayerCount: 2
Fore
SplineSet
3244 2352 m 1,0,-1
 2625 -0 l 1,1,-1
 2014 -0 l 1,2,-1
 1637 1284 l 1,3,-1
 1299 0 l 1,4,-1
 688 0 l 1,5,-1
 -2 2352 l 1,6,-1
 610 2352 l 1,7,-1
 986 825 l 1,8,-1
 1324 2352 l 1,9,-1
 1918 2352 l 1,10,-1
 1936 2352 l 1,11,-1
 2312 825 l 1,12,-1
 2650 2352 l 1,13,-1
 3244 2352 l 1,0,-1
EndSplineSet
Validated: 1
EndChar

StartChar: x
Encoding: 120 120 91
Width: 1888
GlyphClass: 2
Flags: W
LayerCount: 2
Fore
SplineSet
936 689 m 1,0,-1
 589 0 l 1,1,-1
 -44 0 l 1,2,-1
 624 1184 l 1,3,-1
 -27 2352 l 1,4,-1
 589 2352 l 1,5,-1
 936 1671 l 1,6,-1
 1249 2284 l 2,7,8
 1255 2295 1255 2295 1266 2318 c 0,9,10
 1278 2341 1278 2341 1283 2352 c 1,11,-1
 1899 2352 l 1,12,-1
 1248 1184 l 1,13,-1
 1916 0 l 1,14,-1
 1283 0 l 1,15,-1
 936 689 l 1,0,-1
EndSplineSet
Validated: 1
EndChar

StartChar: y
Encoding: 121 121 92
Width: 1952
GlyphClass: 2
Flags: W
LayerCount: 2
Fore
SplineSet
1383 2352 m 1,0,-1
 1967 2352 l 1,1,-1
 873 -576 l 1,2,-1
 289 -576 l 1,3,-1
 710 553 l 1,4,-1
 -20 2352 l 1,5,-1
 567 2352 l 1,6,-1
 990 1212 l 1,7,-1
 1383 2352 l 1,0,-1
EndSplineSet
Validated: 1
EndChar

StartChar: z
Encoding: 122 122 93
Width: 1872
GlyphClass: 2
Flags: W
LayerCount: 2
Fore
SplineSet
1821 538 m 1,0,-1
 1821 0 l 1,1,-1
 35 0 l 1,2,-1
 35 397 l 1,3,-1
 1126 1830 l 1,4,-1
 35 1830 l 1,5,-1
 35 2352 l 1,6,-1
 1821 2352 l 1,7,-1
 1821 1970 l 1,8,-1
 759 538 l 1,9,-1
 1821 538 l 1,0,-1
EndSplineSet
Validated: 1
EndChar

StartChar: braceleft
Encoding: 123 123 94
Width: 960
GlyphClass: 2
Flags: W
LayerCount: 2
Fore
SplineSet
880 -557 m 2,0,1
 535 -556 535 -556 341 -378 c 256,2,3
 147 -200 147 -200 147 128 c 2,4,-1
 147 1030 l 1,5,-1
 148 1036 l 1,6,7
 151 1085 151 1085 152 1121 c 256,8,9
 153 1157 153 1157 145 1184 c 256,10,11
 138 1211 138 1211 130 1228 c 256,12,13
 122 1245 122 1245 107 1257 c 256,14,15
 92 1269 92 1269 76 1275 c 256,16,17
 61 1281 61 1281 39 1285 c 2,18,-1
 -61 1306 l 1,19,-1
 -61 1678 l 1,20,-1
 48 1692 l 2,21,22
 71 1695 71 1695 86 1699 c 256,23,24
 101 1703 101 1703 116 1713 c 256,25,26
 131 1723 131 1723 140 1740 c 256,27,28
 148 1757 148 1757 153 1782 c 256,29,30
 158 1808 158 1808 156 1846 c 256,31,32
 155 1884 155 1884 148 1935 c 2,33,-1
 147 1944 l 1,34,-1
 147 2768 l 2,35,36
 146 3102 146 3102 340 3286 c 256,37,38
 534 3470 534 3470 880 3469 c 2,39,-1
 1005 3469 l 1,40,-1
 1005 3011 l 1,41,-1
 880 3011 l 2,42,43
 806 3011 806 3011 766 2992 c 256,44,45
 726 2972 726 2972 706 2920 c 256,46,47
 686 2868 686 2868 685 2768 c 2,48,-1
 685 1952 l 2,49,50
 685 1656 685 1656 521 1485 c 1,51,52
 685 1308 685 1308 685 1024 c 2,53,-1
 685 128 l 2,54,55
 686 28 686 28 706 -24 c 256,56,57
 726 -76 726 -76 766 -96 c 256,58,59
 806 -115 806 -115 880 -115 c 2,60,-1
 1005 -115 l 1,61,-1
 1005 -557 l 1,62,-1
 880 -557 l 2,0,1
EndSplineSet
Validated: 33
EndChar

StartChar: bar
Encoding: 124 124 95
Width: 960
GlyphClass: 2
Flags: W
LayerCount: 2
Fore
SplineSet
749 -477 m 1,0,-1
 211 -477 l 1,1,-1
 211 3453 l 1,2,-1
 749 3453 l 1,3,-1
 749 -477 l 1,0,-1
EndSplineSet
Validated: 1
EndChar

StartChar: braceright
Encoding: 125 125 96
Width: 960
GlyphClass: 2
Flags: W
LayerCount: 2
Fore
SplineSet
80 3469 m 2,0,1
 432 3469 432 3469 630 3291 c 256,2,3
 828 3113 828 3113 829 2784 c 2,4,-1
 829 1879 l 1,5,-1
 828 1870 l 2,6,7
 820 1812 820 1812 820 1771 c 256,8,9
 820 1729 820 1729 826 1704 c 256,10,11
 832 1679 832 1679 848 1662 c 256,12,13
 863 1646 863 1646 879 1639 c 256,14,15
 895 1632 895 1632 921 1627 c 2,16,-1
 1021 1606 l 1,17,-1
 1021 1235 l 1,18,-1
 913 1220 l 2,19,20
 890 1217 890 1217 875 1212 c 256,21,22
 861 1207 861 1207 847 1192 c 256,23,24
 832 1177 832 1177 826 1152 c 256,25,26
 820 1127 820 1127 820 1083 c 256,27,28
 820 1039 820 1039 828 977 c 2,29,-1
 829 968 l 1,30,-1
 829 144 l 2,31,32
 829 -191 829 -191 631 -374 c 256,33,34
 433 -557 433 -557 80 -557 c 2,35,-1
 -45 -557 l 1,36,-1
 -45 -99 l 1,37,-1
 80 -99 l 2,38,39
 154 -99 154 -99 194 -80 c 256,40,41
 234 -60 234 -60 254 -8 c 256,42,43
 274 44 274 44 275 144 c 2,44,-1
 275 960 l 2,45,46
 275 1256 275 1256 447 1427 c 1,47,48
 275 1604 275 1604 275 1888 c 2,49,-1
 275 2784 l 2,50,51
 274 2884 274 2884 254 2936 c 256,52,53
 234 2988 234 2988 194 3008 c 256,54,55
 154 3027 154 3027 80 3027 c 2,56,-1
 -45 3027 l 1,57,-1
 -45 3469 l 1,58,-1
 80 3469 l 2,0,1
EndSplineSet
Validated: 1
EndChar

StartChar: asciitilde
Encoding: 126 126 97
Width: 1696
GlyphClass: 2
Flags: W
LayerCount: 2
Fore
SplineSet
1472 2880 m 1,0,1
 1331 2609 1331 2609 1096 2609 c 0,2,3
 957 2609 957 2609 784 2704 c 1,4,5
 667 2786 667 2786 571 2786 c 0,6,7
 443 2786 443 2786 352 2640 c 1,8,-1
 160 2816 l 1,9,10
 303 3122 303 3122 531 3122 c 0,11,12
 660 3122 660 3122 816 3024 c 1,13,14
 935 2926 935 2926 1039 2926 c 0,15,16
 1172 2926 1172 2926 1280 3088 c 1,17,-1
 1472 2880 l 1,0,1
EndSplineSet
Validated: 1
EndChar

StartChar: uni00A0
Encoding: 160 160 98
Width: 2048
GlyphClass: 2
Flags: W
LayerCount: 2
Fore
SplineSet
1472 2880 m 1,0,1
 1331 2609 1331 2609 1096 2609 c 0,2,3
 957 2609 957 2609 784 2704 c 1,4,5
 667 2786 667 2786 571 2786 c 0,6,7
 443 2786 443 2786 352 2640 c 1,8,-1
 160 2816 l 1,9,10
 303 3122 303 3122 531 3122 c 0,11,12
 660 3122 660 3122 816 3024 c 1,13,14
 935 2926 935 2926 1039 2926 c 0,15,16
 1172 2926 1172 2926 1280 3088 c 1,17,-1
 1472 2880 l 1,0,1
EndSplineSet
Validated: 1
EndChar

StartChar: exclamdown
Encoding: 161 161 99
Width: 896
GlyphClass: 2
Flags: W
LayerCount: 2
Fore
SplineSet
272 -304 m 1,0,-1
 320 2192 l 1,1,-1
 576 2192 l 1,2,-1
 624 -304 l 1,3,-1
 272 -304 l 1,0,-1
608 3248 m 1,4,-1
 608 2720 l 1,5,-1
 304 2720 l 1,6,-1
 304 3248 l 1,7,-1
 608 3248 l 1,4,-1
EndSplineSet
Validated: 1
EndChar

StartChar: cent
Encoding: 162 162 100
Width: 2048
GlyphClass: 2
Flags: W
LayerCount: 2
Fore
SplineSet
208 1632 m 0,0,1
 208 2144 208 2144 440 2424 c 128,-1,2
 672 2704 672 2704 1008 2704 c 0,3,4
 1104 2704 1104 2704 1184 2688 c 1,5,-1
 1248 2992 l 1,6,-1
 1392 2960 l 1,7,-1
 1312 2656 l 1,8,9
 1552 2576 1552 2576 1680 2392 c 128,-1,10
 1808 2208 1808 2208 1840 1920 c 1,11,-1
 1520 1920 l 1,12,13
 1488 2096 1488 2096 1424 2216 c 128,-1,14
 1360 2336 1360 2336 1248 2368 c 1,15,-1
 896 864 l 1,16,17
 976 848 976 848 1040 848 c 0,18,19
 1216 848 1216 848 1352 952 c 128,-1,20
 1488 1056 1488 1056 1520 1248 c 1,21,-1
 1824 1248 l 1,22,23
 1792 960 1792 960 1576 760 c 128,-1,24
 1360 560 1360 560 1040 560 c 0,25,26
 928 560 928 560 832 576 c 1,27,-1
 720 80 l 1,28,-1
 576 112 l 1,29,-1
 704 640 l 1,30,31
 496 720 496 720 352 976 c 128,-1,32
 208 1232 208 1232 208 1632 c 0,0,1
1008 2400 m 2,33,34
 800 2400 800 2400 648 2216 c 128,-1,35
 496 2032 496 2032 496 1616 c 0,36,37
 496 1360 496 1360 560 1200 c 128,-1,38
 624 1040 624 1040 768 944 c 1,39,-1
 1120 2400 l 1,40,-1
 1008 2400 l 2,33,34
EndSplineSet
Validated: 1
EndChar

StartChar: sterling
Encoding: 163 163 101
Width: 2736
GlyphClass: 2
Flags: W
LayerCount: 2
Fore
SplineSet
1888 320 m 0,0,1
 2048 320 2048 320 2152 432 c 128,-1,2
 2256 544 2256 544 2256 976 c 1,3,-1
 2592 880 l 1,4,5
 2592 336 2592 336 2408 168 c 128,-1,6
 2224 0 2224 0 1920 0 c 0,7,8
 1680 0 1680 0 1376 192 c 1,9,10
 1184 0 1184 0 720 0 c 0,11,12
 496 0 496 0 320 112 c 128,-1,13
 144 224 144 224 144 432 c 0,14,15
 144 704 144 704 304 800 c 128,-1,16
 464 896 464 896 672 896 c 0,17,18
 928 896 928 896 1232 688 c 1,19,20
 1248 752 1248 752 1248 816 c 0,21,22
 1248 1200 1248 1200 1056 1552 c 1,23,-1
 416 1552 l 1,24,-1
 416 1792 l 1,25,-1
 944 1792 l 1,26,27
 832 2016 832 2016 832 2272 c 0,28,29
 832 2656 832 2656 1016 2880 c 128,-1,30
 1200 3104 1200 3104 1568 3104 c 0,31,32
 1920 3104 1920 3104 2120 2920 c 128,-1,33
 2320 2736 2320 2736 2320 2496 c 1,34,-1
 1920 2496 l 1,35,36
 1920 2608 1920 2608 1840 2712 c 128,-1,37
 1760 2816 1760 2816 1568 2816 c 256,38,39
 1376 2816 1376 2816 1288 2656 c 128,-1,40
 1200 2496 1200 2496 1200 2272 c 256,41,42
 1200 2048 1200 2048 1328 1792 c 1,43,-1
 2128 1792 l 1,44,-1
 2128 1552 l 1,45,-1
 1472 1552 l 1,46,47
 1664 1152 1664 1152 1664 832 c 0,48,49
 1664 656 1664 656 1568 464 c 1,50,51
 1760 320 1760 320 1888 320 c 0,0,1
672 608 m 0,52,53
 480 608 480 608 480 432 c 0,54,55
 480 272 480 272 720 256 c 1,56,57
 960 256 960 256 1104 432 c 1,58,59
 880 608 880 608 672 608 c 0,52,53
EndSplineSet
Validated: 1
EndChar

StartChar: currency
Encoding: 164 164 102
Width: 2096
GlyphClass: 2
Flags: W
LayerCount: 2
Fore
SplineSet
560 1472 m 0,0,1
 560 976 560 976 704 736 c 128,-1,2
 848 496 848 496 1056 496 c 0,3,4
 1312 496 1312 496 1432 808 c 128,-1,5
 1552 1120 1552 1120 1552 1472 c 0,6,7
 1552 1904 1552 1904 1416 2168 c 128,-1,8
 1280 2432 1280 2432 1056 2432 c 0,9,10
 816 2432 816 2432 688 2152 c 128,-1,11
 560 1872 560 1872 560 1472 c 0,0,1
368 1472 m 1,12,13
 368 1904 368 1904 512 2288 c 1,14,-1
 240 2800 l 1,15,-1
 384 3072 l 1,16,-1
 656 2544 l 1,17,18
 832 2800 832 2800 1056 2800 c 0,19,20
 1296 2800 1296 2800 1472 2528 c 1,21,-1
 1744 3056 l 1,22,-1
 1888 2816 l 1,23,-1
 1616 2272 l 1,24,25
 1730 1959 1730 1959 1730 1570 c 0,26,27
 1730 1521 1730 1521 1728 1472 c 1,28,29
 1728 1024 1728 1024 1600 672 c 1,30,-1
 1888 112 l 1,31,-1
 1760 -128 l 1,32,-1
 1472 416 l 1,33,34
 1296 160 1296 160 1056 160 c 0,35,36
 832 160 832 160 640 400 c 1,37,-1
 384 -128 l 1,38,-1
 240 128 l 1,39,-1
 512 656 l 1,40,41
 384 976 384 976 368 1472 c 1,12,13
EndSplineSet
Validated: 1
EndChar

StartChar: yen
Encoding: 165 165 103
Width: 2416
GlyphClass: 2
Flags: W
LayerCount: 2
Fore
SplineSet
1392 640 m 1,0,-1
 1392 0 l 1,1,-1
 1040 0 l 1,2,-1
 1040 640 l 1,3,-1
 256 640 l 1,4,-1
 256 896 l 1,5,-1
 1040 896 l 1,6,-1
 1040 1472 l 1,7,-1
 256 1472 l 1,8,-1
 256 1728 l 1,9,-1
 960 1728 l 1,10,-1
 208 3104 l 1,11,-1
 592 3104 l 1,12,-1
 1216 1952 l 1,13,-1
 1840 3104 l 1,14,-1
 2208 3104 l 1,15,-1
 1472 1728 l 1,16,-1
 2160 1728 l 1,17,-1
 2160 1472 l 1,18,-1
 1392 1472 l 1,19,-1
 1392 896 l 1,20,-1
 2160 896 l 1,21,-1
 2160 640 l 1,22,-1
 1392 640 l 1,0,-1
EndSplineSet
Validated: 1
EndChar

StartChar: brokenbar
Encoding: 166 166 104
Width: 928
GlyphClass: 2
Flags: W
LayerCount: 2
Fore
SplineSet
384 -304 m 1,0,-1
 384 3248 l 1,1,-1
 544 3248 l 1,2,-1
 544 -304 l 1,3,-1
 384 -304 l 1,0,-1
EndSplineSet
Validated: 1
EndChar

StartChar: section
Encoding: 167 167 105
Width: 4096
GlyphClass: 2
Flags: W
LayerCount: 2
Fore
SplineSet
1088 464 m 1,0,1
 1152 -32 1152 -32 2064 -32 c 0,2,3
 2992 -32 2992 -32 2992 336 c 0,4,5
 2992 512 2992 512 2656 632 c 128,-1,6
 2320 752 2320 752 1792 880 c 1,7,8
 1120 1040 1120 1040 888 1184 c 128,-1,9
 656 1328 656 1328 656 1584 c 0,10,11
 656 1824 656 1824 1232 2064 c 1,12,13
 800 2272 800 2272 800 2576 c 0,14,15
 800 2896 800 2896 1112 3072 c 128,-1,16
 1424 3248 1424 3248 2064 3248 c 0,17,18
 3344 3248 3344 3248 3424 2480 c 1,19,-1
 3024 2480 l 1,20,21
 3008 2960 3008 2960 2064 2960 c 0,22,23
 1232 2960 1232 2960 1232 2576 c 0,24,25
 1232 2368 1232 2368 1552 2256 c 128,-1,26
 1872 2144 1872 2144 2240 2064 c 1,27,28
 2864 1888 2864 1888 3144 1736 c 128,-1,29
 3424 1584 3424 1584 3424 1344 c 0,30,31
 3424 1056 3424 1056 2896 864 c 1,32,33
 3408 672 3408 672 3408 336 c 0,34,35
 3408 48 3408 48 3024 -128 c 128,-1,36
 2640 -304 2640 -304 2064 -304 c 0,37,38
 768 -304 768 -304 656 464 c 1,39,-1
 1088 464 l 1,0,1
1632 1936 m 1,40,41
 1072 1776 1072 1776 1072 1584 c 0,42,43
 1072 1360 1072 1360 2000 1136 c 1,44,-1
 2512 1008 l 1,45,46
 2992 1136 2992 1136 2992 1360 c 256,47,48
 2992 1584 2992 1584 2176 1792 c 1,49,-1
 1632 1936 l 1,40,41
EndSplineSet
Validated: 1
Substitution2: "'vert' Vertical Alternates (obs) in Hiragana & Katakana lookup 0 subtable" section.vert
EndChar

StartChar: dieresis
Encoding: 168 168 106
Width: 2048
GlyphClass: 2
Flags: W
LayerCount: 2
Fore
SplineSet
288 3104 m 1,0,-1
 784 3104 l 1,1,-1
 784 2624 l 1,2,-1
 288 2624 l 1,3,-1
 288 3104 l 1,0,-1
1280 3104 m 1,4,-1
 1776 3104 l 1,5,-1
 1776 2624 l 1,6,-1
 1280 2624 l 1,7,-1
 1280 3104 l 1,4,-1
EndSplineSet
Validated: 1
Substitution2: "'vert' Vertical Alternates (obs) in Hiragana & Katakana lookup 0 subtable" dieresis.vert
EndChar

StartChar: copyright
Encoding: 169 169 107
Width: 2736
GlyphClass: 2
Flags: W
LayerCount: 2
Fore
SplineSet
768 1456 m 0,0,1
 768 1712 768 1712 944 1912 c 128,-1,2
 1120 2112 1120 2112 1360 2112 c 0,3,4
 1568 2112 1568 2112 1712 1984 c 128,-1,5
 1856 1856 1856 1856 1904 1616 c 1,6,-1
 1696 1616 l 1,7,8
 1664 1776 1664 1776 1584 1848 c 128,-1,9
 1504 1920 1504 1920 1360 1920 c 256,10,11
 1216 1920 1216 1920 1096 1800 c 128,-1,12
 976 1680 976 1680 976 1456 c 256,13,14
 976 1232 976 1232 1088 1104 c 128,-1,15
 1200 976 1200 976 1360 976 c 0,16,17
 1504 976 1504 976 1592 1064 c 128,-1,18
 1680 1152 1680 1152 1712 1312 c 1,19,-1
 1920 1312 l 1,20,21
 1904 1088 1904 1088 1752 944 c 128,-1,22
 1600 800 1600 800 1360 800 c 256,23,24
 1120 800 1120 800 944 992 c 128,-1,25
 768 1184 768 1184 768 1456 c 0,0,1
240 1472 m 0,26,27
 240 2048 240 2048 584 2392 c 128,-1,28
 928 2736 928 2736 1360 2736 c 0,29,30
 1856 2736 1856 2736 2168 2392 c 128,-1,31
 2480 2048 2480 2048 2480 1472 c 0,32,33
 2480 944 2480 944 2168 576 c 128,-1,34
 1856 208 1856 208 1360 208 c 256,35,36
 864 208 864 208 552 576 c 128,-1,37
 240 944 240 944 240 1472 c 0,26,27
416 1472 m 1,38,39
 432 992 432 992 696 696 c 128,-1,40
 960 400 960 400 1360 400 c 256,41,42
 1760 400 1760 400 2040 704 c 128,-1,43
 2320 1008 2320 1008 2320 1472 c 256,44,45
 2320 1936 2320 1936 2040 2240 c 128,-1,46
 1760 2544 1760 2544 1360 2544 c 256,47,48
 960 2544 960 2544 688 2232 c 128,-1,49
 416 1920 416 1920 416 1472 c 1,38,39
EndSplineSet
Validated: 1
EndChar

StartChar: ordfeminine
Encoding: 170 170 108
Width: 1456
GlyphClass: 2
Flags: W
LayerCount: 2
Fore
SplineSet
800 3248 m 2,0,1
 912 3248 912 3248 984 3144 c 128,-1,2
 1056 3040 1056 3040 1056 2864 c 2,3,-1
 1056 2352 l 1,4,-1
 1088 2112 l 1,5,-1
 944 2112 l 1,6,-1
 928 2240 l 1,7,8
 880 2176 880 2176 832 2144 c 128,-1,9
 784 2112 784 2112 688 2112 c 0,10,11
 560 2112 560 2112 496 2192 c 128,-1,12
 432 2272 432 2272 432 2400 c 0,13,14
 432 2624 432 2624 576 2728 c 128,-1,15
 720 2832 720 2832 912 2848 c 1,16,-1
 912 2928 l 2,17,18
 912 2992 912 2992 872 3056 c 128,-1,19
 832 3120 832 3120 752 3120 c 256,20,21
 672 3120 672 3120 632 3064 c 128,-1,22
 592 3008 592 3008 592 2928 c 1,23,-1
 464 2928 l 1,24,25
 464 3072 464 3072 528 3160 c 128,-1,26
 592 3248 592 3248 688 3248 c 2,27,-1
 800 3248 l 2,0,1
912 2704 m 1,28,29
 752 2688 752 2688 664 2624 c 128,-1,30
 576 2560 576 2560 576 2416 c 0,31,32
 576 2336 576 2336 608 2296 c 128,-1,33
 640 2256 640 2256 688 2256 c 0,34,35
 768 2256 768 2256 816 2288 c 128,-1,36
 864 2320 864 2320 912 2432 c 1,37,-1
 912 2704 l 1,28,29
EndSplineSet
Validated: 1
EndChar

StartChar: guillemotleft
Encoding: 171 171 109
Width: 2736
GlyphClass: 2
Flags: W
LayerCount: 2
Fore
SplineSet
1856 2656 m 1,0,-1
 512 1472 l 1,1,-1
 1856 288 l 1,2,-1
 1712 144 l 1,3,-1
 224 1472 l 1,4,-1
 1712 2784 l 1,5,-1
 1856 2656 l 1,0,-1
2512 2656 m 1,6,-1
 1168 1472 l 1,7,-1
 2512 288 l 1,8,-1
 2368 144 l 1,9,-1
 864 1472 l 1,10,-1
 2368 2784 l 1,11,-1
 2512 2656 l 1,6,-1
EndSplineSet
Validated: 1
EndChar

StartChar: logicalnot
Encoding: 172 172 110
Width: 2624
GlyphClass: 2
Flags: W
LayerCount: 2
Fore
SplineSet
224 2048 m 1,0,-1
 2304 2048 l 1,1,-1
 2304 1040 l 1,2,-1
 2000 1040 l 1,3,-1
 2000 1792 l 1,4,-1
 224 1792 l 1,5,-1
 224 2048 l 1,0,-1
EndSplineSet
Validated: 1
EndChar

StartChar: uni00AD
Encoding: 173 173 111
Width: 2064
GlyphClass: 2
Flags: W
LayerCount: 2
Fore
SplineSet
128 1616 m 1,0,-1
 1920 1616 l 1,1,-1
 1920 1344 l 1,2,-1
 128 1344 l 1,3,-1
 128 1616 l 1,0,-1
EndSplineSet
Validated: 1
EndChar

StartChar: registered
Encoding: 174 174 112
Width: 2736
GlyphClass: 2
Flags: W
LayerCount: 2
Fore
SplineSet
240 1472 m 0,0,1
 240 2048 240 2048 584 2392 c 128,-1,2
 928 2736 928 2736 1360 2736 c 0,3,4
 1856 2736 1856 2736 2168 2392 c 128,-1,5
 2480 2048 2480 2048 2480 1472 c 0,6,7
 2480 944 2480 944 2168 576 c 128,-1,8
 1856 208 1856 208 1360 208 c 256,9,10
 864 208 864 208 552 576 c 128,-1,11
 240 944 240 944 240 1472 c 0,0,1
416 1472 m 1,12,13
 432 992 432 992 696 696 c 128,-1,14
 960 400 960 400 1360 400 c 256,15,16
 1760 400 1760 400 2040 704 c 128,-1,17
 2320 1008 2320 1008 2320 1472 c 256,18,19
 2320 1936 2320 1936 2040 2240 c 128,-1,20
 1760 2544 1760 2544 1360 2544 c 256,21,22
 960 2544 960 2544 688 2232 c 128,-1,23
 416 1920 416 1920 416 1472 c 1,12,13
1920 752 m 1,24,-1
 1728 752 l 1,25,-1
 1360 1472 l 1,26,-1
 1104 1472 l 1,27,-1
 1104 752 l 1,28,-1
 960 752 l 1,29,-1
 960 2208 l 1,30,-1
 1456 2208 l 2,31,32
 1648 2208 1648 2208 1752 2096 c 128,-1,33
 1856 1984 1856 1984 1856 1840 c 256,34,35
 1856 1696 1856 1696 1784 1592 c 128,-1,36
 1712 1488 1712 1488 1520 1472 c 1,37,-1
 1920 752 l 1,24,-1
1104 1600 m 1,38,-1
 1456 1600 l 2,39,40
 1552 1600 1552 1600 1616 1656 c 128,-1,41
 1680 1712 1680 1712 1680 1840 c 0,42,43
 1680 1952 1680 1952 1616 2008 c 128,-1,44
 1552 2064 1552 2064 1456 2064 c 2,45,-1
 1104 2064 l 1,46,-1
 1104 1600 l 1,38,-1
EndSplineSet
Validated: 1
EndChar

StartChar: macron
Encoding: 175 175 113
Width: 2736
GlyphClass: 2
Flags: W
LayerCount: 2
Fore
SplineSet
0 3520 m 1,0,-1
 2736 3520 l 1,1,-1
 2736 3248 l 1,2,-1
 0 3248 l 1,3,-1
 0 3520 l 1,0,-1
EndSplineSet
Validated: 1
EndChar

StartChar: degree
Encoding: 176 176 114
Width: 4096
GlyphClass: 2
Flags: W
LayerCount: 2
Fore
SplineSet
912 3312 m 0,0,1
 1184 3312 1184 3312 1392 3120 c 128,-1,2
 1600 2928 1600 2928 1600 2608 c 0,3,4
 1600 2272 1600 2272 1400 2088 c 128,-1,5
 1200 1904 1200 1904 912 1904 c 256,6,7
 624 1904 624 1904 424 2088 c 128,-1,8
 224 2272 224 2272 224 2608 c 0,9,10
 224 2928 224 2928 408 3120 c 128,-1,11
 592 3312 592 3312 912 3312 c 0,0,1
912 3024 m 0,12,13
 720 3024 720 3024 616 2912 c 128,-1,14
 512 2800 512 2800 512 2608 c 256,15,16
 512 2416 512 2416 624 2312 c 128,-1,17
 736 2208 736 2208 912 2208 c 0,18,19
 1072 2208 1072 2208 1184 2312 c 128,-1,20
 1296 2416 1296 2416 1296 2608 c 0,21,22
 1296 2768 1296 2768 1192 2896 c 128,-1,23
 1088 3024 1088 3024 912 3024 c 0,12,13
EndSplineSet
Validated: 1
Substitution2: "'vert' Vertical Alternates (obs) in Hiragana & Katakana lookup 0 subtable" degree.vert
EndChar

StartChar: plusminus
Encoding: 177 177 115
Width: 4096
GlyphClass: 2
Flags: W
LayerCount: 2
Fore
SplineSet
1904 3248 m 1,0,-1
 2192 3248 l 1,1,-1
 2192 2048 l 1,2,-1
 3456 2048 l 1,3,-1
 3456 1728 l 1,4,-1
 2192 1728 l 1,5,-1
 2192 512 l 1,6,-1
 1904 512 l 1,7,-1
 1904 1728 l 1,8,-1
 640 1728 l 1,9,-1
 640 2048 l 1,10,-1
 1904 2048 l 1,11,-1
 1904 3248 l 1,0,-1
640 -16 m 1,12,-1
 3456 -16 l 1,13,-1
 3456 -304 l 1,14,-1
 640 -304 l 1,15,-1
 640 -16 l 1,12,-1
EndSplineSet
Validated: 1
Substitution2: "'vert' Vertical Alternates (obs) in Hiragana & Katakana lookup 0 subtable" plusminus.vert
EndChar

StartChar: uni00B2
Encoding: 178 178 116
Width: 976
GlyphClass: 2
Flags: W
LayerCount: 2
Fore
SplineSet
272 3424 m 0,0,1
 368 3424 368 3424 432 3328 c 128,-1,2
 496 3232 496 3232 496 3056 c 0,3,4
 496 2848 496 2848 400 2640 c 1,5,-1
 176 2224 l 1,6,-1
 496 2224 l 1,7,-1
 496 2064 l 1,8,-1
 64 2064 l 1,9,-1
 64 2240 l 1,10,-1
 304 2688 l 1,11,12
 416 2880 416 2880 416 3056 c 0,13,14
 416 3184 416 3184 376 3224 c 128,-1,15
 336 3264 336 3264 272 3264 c 0,16,17
 224 3264 224 3264 184 3224 c 128,-1,18
 144 3184 144 3184 144 3040 c 1,19,-1
 64 3040 l 1,20,21
 64 3216 64 3216 128 3320 c 128,-1,22
 192 3424 192 3424 272 3424 c 0,0,1
EndSplineSet
Validated: 1
EndChar

StartChar: uni00B3
Encoding: 179 179 117
Width: 976
GlyphClass: 2
Flags: W
LayerCount: 2
Fore
SplineSet
288 2912 m 1,0,1
 496 2912 496 2912 496 2480 c 0,2,3
 496 2064 496 2064 240 2064 c 2,4,-1
 64 2064 l 1,5,-1
 64 2208 l 1,6,-1
 240 2208 l 2,7,8
 384 2208 384 2208 384 2480 c 0,9,10
 384 2784 384 2784 240 2784 c 2,11,-1
 128 2784 l 1,12,-1
 128 2896 l 1,13,-1
 352 3280 l 1,14,-1
 64 3280 l 1,15,-1
 64 3424 l 1,16,-1
 496 3424 l 1,17,-1
 496 3280 l 1,18,-1
 288 2912 l 1,0,1
EndSplineSet
Validated: 1
EndChar

StartChar: acute
Encoding: 180 180 118
Width: 2048
GlyphClass: 2
Flags: W
LayerCount: 2
Fore
SplineSet
992 3104 m 1,0,-1
 1488 3104 l 1,1,-1
 1008 2608 l 1,2,-1
 688 2608 l 1,3,-1
 992 3104 l 1,0,-1
EndSplineSet
Validated: 1
Substitution2: "'vert' Vertical Alternates (obs) in Hiragana & Katakana lookup 0 subtable" acute.vert
EndChar

StartChar: uni00B5
Encoding: 181 181 119
Width: 2064
GlyphClass: 2
Flags: W
LayerCount: 2
Fore
SplineSet
1744 0 m 1,0,-1
 1376 0 l 1,1,-1
 1376 208 l 1,2,3
 1184 0 1184 0 976 0 c 0,4,5
 784 0 784 0 688 176 c 1,6,-1
 688 -576 l 1,7,-1
 304 -576 l 1,8,-1
 304 1920 l 1,9,-1
 688 1920 l 1,10,-1
 688 544 l 1,11,12
 816 288 816 288 976 288 c 0,13,14
 1184 288 1184 288 1376 576 c 1,15,-1
 1376 1920 l 1,16,-1
 1744 1920 l 1,17,-1
 1744 0 l 1,0,-1
EndSplineSet
Validated: 1
EndChar

StartChar: paragraph
Encoding: 182 182 120
Width: 2048
GlyphClass: 2
Flags: W
LayerCount: 2
Fore
SplineSet
416 -304 m 1,0,-1
 416 1920 l 1,1,2
 405 1919 405 1919 394 1919 c 0,3,4
 264 1919 264 1919 176 2096 c 0,5,6
 80 2288 80 2288 80 2592 c 0,7,8
 80 2880 80 2880 176 3064 c 128,-1,9
 272 3248 272 3248 432 3248 c 2,10,-1
 976 3248 l 1,11,-1
 976 2992 l 1,12,-1
 928 2992 l 1,13,-1
 928 -304 l 1,14,-1
 768 -304 l 1,15,-1
 768 2992 l 1,16,-1
 576 2992 l 1,17,-1
 576 -304 l 1,18,-1
 416 -304 l 1,0,-1
EndSplineSet
Validated: 1
Substitution2: "'vert' Vertical Alternates (obs) in Hiragana & Katakana lookup 0 subtable" paragraph.vert
EndChar

StartChar: periodcentered
Encoding: 183 183 121
Width: 832
GlyphClass: 2
Flags: W
LayerCount: 2
Fore
SplineSet
320 1280 m 1,0,-1
 320 1776 l 1,1,-1
 512 1776 l 1,2,-1
 512 1280 l 1,3,-1
 320 1280 l 1,0,-1
EndSplineSet
Validated: 1
EndChar

StartChar: cedilla
Encoding: 184 184 122
Width: 832
GlyphClass: 2
Flags: W
LayerCount: 2
Fore
SplineSet
256 288 m 0,0,1
 256 416 256 416 296 528 c 128,-1,2
 336 640 336 640 400 640 c 256,3,4
 464 640 464 640 504 536 c 128,-1,5
 544 432 544 432 544 288 c 1,6,7
 547 218 547 218 547 154 c 0,8,9
 547 -135 547 -135 488 -312 c 0,10,11
 416 -528 416 -528 272 -576 c 1,12,-1
 256 -400 l 1,13,14
 336 -384 336 -384 368 -320 c 128,-1,15
 400 -256 400 -256 416 -160 c 128,-1,16
 432 -64 432 -64 400 -64 c 0,17,18
 336 -64 336 -64 296 32 c 128,-1,19
 256 128 256 128 256 288 c 0,0,1
EndSplineSet
Validated: 1
EndChar

StartChar: uni00B9
Encoding: 185 185 123
Width: 976
GlyphClass: 2
Flags: W
LayerCount: 2
Fore
SplineSet
320 2064 m 1,0,-1
 176 2064 l 1,1,-1
 176 3040 l 1,2,-1
 64 3040 l 1,3,-1
 64 3232 l 1,4,5
 192 3232 192 3232 224 3424 c 1,6,-1
 320 3424 l 1,7,-1
 320 2064 l 1,0,-1
EndSplineSet
Validated: 1
EndChar

StartChar: ordmasculine
Encoding: 186 186 124
Width: 976
GlyphClass: 2
Flags: W
LayerCount: 2
Fore
SplineSet
64 2752 m 0,0,1
 64 3008 64 3008 128 3216 c 128,-1,2
 192 3424 192 3424 304 3424 c 256,3,4
 416 3424 416 3424 480 3232 c 128,-1,5
 544 3040 544 3040 544 2752 c 0,6,7
 544 2448 544 2448 480 2256 c 128,-1,8
 416 2064 416 2064 304 2064 c 256,9,10
 192 2064 192 2064 128 2264 c 128,-1,11
 64 2464 64 2464 64 2752 c 0,0,1
160 2752 m 256,12,13
 160 2512 160 2512 200 2392 c 128,-1,14
 240 2272 240 2272 304 2272 c 256,15,16
 368 2272 368 2272 408 2392 c 128,-1,17
 448 2512 448 2512 448 2752 c 256,18,19
 448 2992 448 2992 408 3104 c 128,-1,20
 368 3216 368 3216 304 3216 c 256,21,22
 240 3216 240 3216 200 3104 c 128,-1,23
 160 2992 160 2992 160 2752 c 256,12,13
EndSplineSet
Validated: 1
EndChar

StartChar: guillemotright
Encoding: 187 187 125
Width: 2736
GlyphClass: 2
Flags: W
LayerCount: 2
Fore
SplineSet
896 288 m 1,0,-1
 2240 1472 l 1,1,-1
 896 2656 l 1,2,-1
 1056 2800 l 1,3,-1
 2528 1472 l 1,4,-1
 1056 160 l 1,5,-1
 896 288 l 1,0,-1
256 288 m 1,6,-1
 1584 1472 l 1,7,-1
 256 2656 l 1,8,-1
 400 2800 l 1,9,-1
 1888 1472 l 1,10,-1
 400 160 l 1,11,-1
 256 288 l 1,6,-1
EndSplineSet
Validated: 1
EndChar

StartChar: onequarter
Encoding: 188 188 126
Width: 2096
GlyphClass: 2
Flags: W
LayerCount: 2
Fore
SplineSet
1744 0 m 1,0,-1
 1536 0 l 1,1,-1
 1536 336 l 1,2,-1
 944 336 l 1,3,-1
 944 416 l 1,4,-1
 1568 1472 l 1,5,-1
 1744 1472 l 1,6,-1
 1744 512 l 1,7,-1
 1984 512 l 1,8,-1
 1984 336 l 1,9,-1
 1744 336 l 1,10,-1
 1744 0 l 1,0,-1
1536 1120 m 1,11,-1
 1168 512 l 1,12,-1
 1536 512 l 1,13,-1
 1536 1120 l 1,11,-1
1616 3104 m 1,14,-1
 1744 3072 l 1,15,-1
 464 16 l 1,16,-1
 336 64 l 1,17,-1
 1616 3104 l 1,14,-1
544 1632 m 1,18,-1
 352 1632 l 1,19,-1
 352 2816 l 1,20,-1
 144 2816 l 1,21,-1
 144 2960 l 1,22,23
 368 2960 368 2960 400 3104 c 1,24,-1
 544 3104 l 1,25,-1
 544 1632 l 1,18,-1
EndSplineSet
Validated: 1
EndChar

StartChar: onehalf
Encoding: 189 189 127
Width: 2096
GlyphClass: 2
Flags: W
LayerCount: 2
Fore
SplineSet
1504 1472 m 0,0,1
 1696 1472 1696 1472 1824 1360 c 128,-1,2
 1952 1248 1952 1248 1952 1056 c 0,3,4
 1952 848 1952 848 1744 624 c 1,5,-1
 1296 176 l 1,6,-1
 1952 176 l 1,7,-1
 1952 0 l 1,8,-1
 1088 0 l 1,9,-1
 1088 192 l 1,10,-1
 1568 672 l 1,11,12
 1760 880 1760 880 1760 1056 c 0,13,14
 1760 1200 1760 1200 1688 1248 c 128,-1,15
 1616 1296 1616 1296 1504 1296 c 0,16,17
 1408 1296 1408 1296 1336 1248 c 128,-1,18
 1264 1200 1264 1200 1264 1040 c 1,19,-1
 1072 1040 l 1,20,21
 1072 1232 1072 1232 1200 1352 c 128,-1,22
 1328 1472 1328 1472 1504 1472 c 0,0,1
544 1632 m 1,23,-1
 352 1632 l 1,24,-1
 352 2832 l 1,25,-1
 144 2832 l 1,26,-1
 144 2960 l 1,27,28
 368 2976 368 2976 400 3104 c 1,29,-1
 544 3104 l 1,30,-1
 544 1632 l 1,23,-1
1616 3104 m 1,31,-1
 1744 3072 l 1,32,-1
 464 16 l 1,33,-1
 336 64 l 1,34,-1
 1616 3104 l 1,31,-1
EndSplineSet
Validated: 1
EndChar

StartChar: threequarters
Encoding: 190 190 128
Width: 2096
GlyphClass: 2
Flags: W
LayerCount: 2
Fore
SplineSet
1808 0 m 1,0,-1
 1616 0 l 1,1,-1
 1616 336 l 1,2,-1
 1008 336 l 1,3,-1
 1008 544 l 1,4,-1
 1600 1472 l 1,5,-1
 1808 1472 l 1,6,-1
 1808 512 l 1,7,-1
 2064 512 l 1,8,-1
 2064 336 l 1,9,-1
 1808 336 l 1,10,-1
 1808 0 l 1,0,-1
1616 1136 m 1,11,-1
 1216 512 l 1,12,-1
 1616 512 l 1,13,-1
 1616 1136 l 1,11,-1
1616 3104 m 1,14,-1
 1744 3072 l 1,15,-1
 464 16 l 1,16,-1
 336 64 l 1,17,-1
 1616 3104 l 1,14,-1
560 2544 m 1,18,19
 976 2544 976 2544 976 2096 c 0,20,21
 976 1632 976 1632 464 1632 c 2,22,-1
 144 1632 l 1,23,-1
 144 1792 l 1,24,-1
 464 1792 l 2,25,26
 736 1792 736 1792 736 2096 c 0,27,28
 736 2416 736 2416 464 2416 c 2,29,-1
 256 2416 l 1,30,-1
 256 2544 l 1,31,-1
 672 2944 l 1,32,-1
 144 2944 l 1,33,-1
 144 3104 l 1,34,-1
 976 3104 l 1,35,-1
 976 2944 l 1,36,-1
 560 2544 l 1,18,19
EndSplineSet
Validated: 1
EndChar

StartChar: questiondown
Encoding: 191 191 129
Width: 1856
GlyphClass: 2
Flags: W
LayerCount: 2
Fore
SplineSet
1136 3168 m 1,0,-1
 1136 2720 l 1,1,-1
 752 2720 l 1,2,-1
 752 3168 l 1,3,-1
 1136 3168 l 1,0,-1
896 -160 m 1,4,5
 872 -161 872 -161 848 -161 c 0,6,7
 529 -161 529 -161 328 40 c 0,8,9
 112 256 112 256 112 560 c 0,10,11
 112 896 112 896 256 1072 c 128,-1,12
 400 1248 400 1248 576 1376 c 1,13,14
 752 1520 752 1520 776 1680 c 128,-1,15
 800 1840 800 1840 800 1984 c 2,16,-1
 800 2224 l 1,17,-1
 1104 2224 l 1,18,-1
 1104 1984 l 2,19,20
 1104 1824 1104 1824 1072 1640 c 128,-1,21
 1040 1456 1040 1456 832 1248 c 1,22,23
 624 1088 624 1088 512 952 c 128,-1,24
 400 816 400 816 400 576 c 0,25,26
 400 384 400 384 520 248 c 128,-1,27
 640 112 640 112 896 112 c 0,28,29
 1168 112 1168 112 1296 272 c 128,-1,30
 1424 432 1424 432 1424 672 c 2,31,-1
 1424 848 l 1,32,-1
 1696 848 l 1,33,-1
 1696 672 l 2,34,35
 1696 304 1696 304 1472 72 c 128,-1,36
 1248 -160 1248 -160 896 -160 c 1,4,5
EndSplineSet
Validated: 1
EndChar

StartChar: Agrave
Encoding: 192 192 130
Width: 2592
GlyphClass: 2
Flags: W
LayerCount: 2
Fore
SplineSet
848 3520 m 1,0,-1
 1280 3520 l 1,1,-1
 1648 2720 l 1,2,-1
 1408 2720 l 1,3,-1
 848 3520 l 1,0,-1
2032 0 m 1,4,-1
 1760 0 l 1,5,-1
 1568 672 l 1,6,-1
 928 672 l 1,7,-1
 752 0 l 1,8,-1
 480 0 l 1,9,-1
 1104 2352 l 1,10,-1
 1408 2352 l 1,11,-1
 2032 0 l 1,4,-1
1008 960 m 1,12,-1
 1504 960 l 1,13,-1
 1248 1904 l 1,14,-1
 1008 960 l 1,12,-1
EndSplineSet
Validated: 1
EndChar

StartChar: Aacute
Encoding: 193 193 131
Width: 2592
GlyphClass: 2
Flags: W
LayerCount: 2
Fore
SplineSet
1664 3520 m 1,0,-1
 1120 2720 l 1,1,-1
 864 2720 l 1,2,-1
 1232 3520 l 1,3,-1
 1664 3520 l 1,0,-1
2032 0 m 1,4,-1
 1760 0 l 1,5,-1
 1568 672 l 1,6,-1
 928 672 l 1,7,-1
 752 0 l 1,8,-1
 480 0 l 1,9,-1
 1104 2352 l 1,10,-1
 1408 2352 l 1,11,-1
 2032 0 l 1,4,-1
1008 960 m 1,12,-1
 1504 960 l 1,13,-1
 1248 1904 l 1,14,-1
 1008 960 l 1,12,-1
EndSplineSet
Validated: 1
EndChar

StartChar: Acircumflex
Encoding: 194 194 132
Width: 2592
GlyphClass: 2
Flags: W
LayerCount: 2
Fore
SplineSet
1248 3520 m 1,0,-1
 1376 3520 l 1,1,-1
 1808 2832 l 1,2,-1
 1648 2672 l 1,3,-1
 1312 3216 l 1,4,-1
 976 2672 l 1,5,-1
 816 2832 l 1,6,-1
 1248 3520 l 1,0,-1
2096 0 m 1,7,-1
 1824 0 l 1,8,-1
 1632 672 l 1,9,-1
 992 672 l 1,10,-1
 816 0 l 1,11,-1
 544 0 l 1,12,-1
 1168 2352 l 1,13,-1
 1472 2352 l 1,14,-1
 2096 0 l 1,7,-1
1072 960 m 1,15,-1
 1568 960 l 1,16,-1
 1328 1904 l 1,17,-1
 1072 960 l 1,15,-1
EndSplineSet
Validated: 1
EndChar

StartChar: Atilde
Encoding: 195 195 133
Width: 2592
GlyphClass: 2
Flags: W
LayerCount: 2
Fore
SplineSet
1936 2960 m 1,0,1
 1712 2656 1712 2656 1568 2656 c 256,2,3
 1424 2656 1424 2656 1312 2800 c 1,4,-1
 1120 3040 l 1,5,6
 1040 3152 1040 3152 928 3152 c 0,7,8
 800 3152 800 3152 544 2800 c 1,9,-1
 544 3200 l 1,10,11
 784 3520 784 3520 928 3520 c 256,12,13
 1072 3520 1072 3520 1168 3360 c 1,14,-1
 1360 3120 l 1,15,16
 1456 3008 1456 3008 1568 3008 c 256,17,18
 1680 3008 1680 3008 1936 3360 c 1,19,-1
 1936 2960 l 1,0,1
2016 0 m 1,20,-1
 1744 0 l 1,21,-1
 1552 672 l 1,22,-1
 912 672 l 1,23,-1
 736 0 l 1,24,-1
 464 0 l 1,25,-1
 1088 2352 l 1,26,-1
 1392 2352 l 1,27,-1
 2016 0 l 1,20,-1
992 960 m 1,28,-1
 1488 960 l 1,29,-1
 1232 1904 l 1,30,-1
 992 960 l 1,28,-1
EndSplineSet
Validated: 1
EndChar

StartChar: Adieresis
Encoding: 196 196 134
Width: 2592
GlyphClass: 2
Flags: W
LayerCount: 2
Fore
SplineSet
640 2720 m 1,0,-1
 640 3520 l 1,1,-1
 1040 3520 l 1,2,-1
 1040 2720 l 1,3,-1
 640 2720 l 1,0,-1
1472 2720 m 1,4,-1
 1472 3520 l 1,5,-1
 1888 3520 l 1,6,-1
 1888 2720 l 1,7,-1
 1472 2720 l 1,4,-1
2064 0 m 1,8,-1
 1776 0 l 1,9,-1
 1600 672 l 1,10,-1
 960 672 l 1,11,-1
 784 0 l 1,12,-1
 496 0 l 1,13,-1
 1120 2352 l 1,14,-1
 1440 2352 l 1,15,-1
 2064 0 l 1,8,-1
1024 960 m 1,16,-1
 1536 960 l 1,17,-1
 1280 1904 l 1,18,-1
 1024 960 l 1,16,-1
EndSplineSet
Validated: 1
EndChar

StartChar: Aring
Encoding: 197 197 135
Width: 2592
GlyphClass: 2
Flags: W
LayerCount: 2
Fore
SplineSet
832 3104 m 0,0,1
 832 3264 832 3264 960 3392 c 1,2,3
 1072 3520 1072 3520 1248 3520 c 0,4,5
 1408 3520 1408 3520 1536 3392 c 256,6,7
 1664 3264 1664 3264 1664 3104 c 0,8,9
 1664 2928 1664 2928 1536 2816 c 1,10,11
 1408 2688 1408 2688 1248 2688 c 0,12,13
 1072 2688 1072 2688 960 2816 c 1,14,15
 832 2928 832 2928 832 3104 c 0,0,1
976 3104 m 0,16,17
 976 2976 976 2976 1048 2896 c 128,-1,18
 1120 2816 1120 2816 1248 2816 c 0,19,20
 1360 2816 1360 2816 1440 2912 c 1,21,22
 1520 2976 1520 2976 1520 3104 c 0,23,24
 1520 3216 1520 3216 1440 3296 c 128,-1,25
 1360 3376 1360 3376 1248 3376 c 0,26,27
 1120 3376 1120 3376 1056 3296 c 1,28,29
 976 3216 976 3216 976 3104 c 0,16,17
2016 0 m 1,30,-1
 1744 0 l 1,31,-1
 1552 672 l 1,32,-1
 912 672 l 1,33,-1
 736 0 l 1,34,-1
 464 0 l 1,35,-1
 1088 2352 l 1,36,-1
 1392 2352 l 1,37,-1
 2016 0 l 1,30,-1
992 960 m 1,38,-1
 1488 960 l 1,39,-1
 1232 1904 l 1,40,-1
 992 960 l 1,38,-1
EndSplineSet
Validated: 1
EndChar

StartChar: AE
Encoding: 198 198 136
Width: 2736
GlyphClass: 2
Flags: W
LayerCount: 2
Fore
SplineSet
1360 1840 m 1,0,-1
 960 960 l 1,1,-1
 1360 960 l 1,2,-1
 1360 1840 l 1,0,-1
1360 688 m 1,3,-1
 832 688 l 1,4,-1
 528 0 l 1,5,-1
 256 0 l 1,6,-1
 1344 2352 l 1,7,-1
 2496 2352 l 1,8,-1
 2496 2080 l 1,9,-1
 1568 2080 l 1,10,-1
 1568 1376 l 1,11,-1
 2320 1376 l 1,12,-1
 2320 1088 l 1,13,-1
 1568 1088 l 1,14,-1
 1568 272 l 1,15,-1
 2496 272 l 1,16,-1
 2496 0 l 1,17,-1
 1360 0 l 1,18,-1
 1360 688 l 1,3,-1
EndSplineSet
Validated: 1
EndChar

StartChar: Ccedilla
Encoding: 199 199 137
Width: 2720
GlyphClass: 2
Flags: W
LayerCount: 2
Fore
SplineSet
1216 0 m 1,0,1
 752 48 752 48 416 392 c 128,-1,2
 80 736 80 736 80 1184 c 0,3,4
 80 1648 80 1648 440 2000 c 128,-1,5
 800 2352 800 2352 1424 2368 c 1,6,7
 2064 2352 2064 2352 2328 2144 c 128,-1,8
 2592 1936 2592 1936 2640 1552 c 1,9,-1
 2176 1552 l 1,10,11
 2096 1824 2096 1824 1928 1952 c 128,-1,12
 1760 2080 1760 2080 1424 2080 c 0,13,14
 1056 2080 1056 2080 808 1856 c 128,-1,15
 560 1632 560 1632 560 1184 c 0,16,17
 560 768 560 768 808 512 c 128,-1,18
 1056 256 1056 256 1376 256 c 256,19,20
 1696 256 1696 256 1912 384 c 128,-1,21
 2128 512 2128 512 2176 832 c 1,22,-1
 2640 832 l 1,23,24
 2624 432 2624 432 2312 232 c 128,-1,25
 2000 32 2000 32 1552 0 c 1,26,27
 1632 -32 1632 -32 1696 -32 c 1,28,29
 1920 -64 1920 -64 1968 -136 c 128,-1,30
 2016 -208 2016 -208 2016 -288 c 0,31,32
 2016 -448 2016 -448 1832 -512 c 128,-1,33
 1648 -576 1648 -576 1440 -576 c 1,34,35
 1402 -579 1402 -579 1364 -579 c 0,36,37
 1214 -579 1214 -579 1080 -528 c 0,38,39
 912 -464 912 -464 848 -400 c 1,40,-1
 1136 -288 l 1,41,42
 1248 -344 l 0,43,44
 1360 -400 1360 -400 1440 -400 c 0,45,46
 1552 -400 1552 -400 1600 -392 c 128,-1,47
 1648 -384 1648 -384 1664 -288 c 256,48,49
 1666 -277 1666 -277 1666 -267 c 0,50,51
 1666 -188 1666 -188 1552 -160 c 1,52,53
 1296 -112 1296 -112 1216 0 c 1,0,1
EndSplineSet
Validated: 1
EndChar

StartChar: Egrave
Encoding: 200 200 138
Width: 2320
GlyphClass: 2
Flags: W
LayerCount: 2
Fore
SplineSet
576 3536 m 1,0,-1
 1200 3536 l 1,1,-1
 1728 2720 l 1,2,-1
 1376 2720 l 1,3,-1
 576 3536 l 1,0,-1
2128 2352 m 1,4,-1
 2128 2080 l 1,5,-1
 592 2080 l 1,6,-1
 592 1376 l 1,7,-1
 1872 1376 l 1,8,-1
 1872 1088 l 1,9,-1
 592 1088 l 1,10,-1
 592 272 l 1,11,-1
 2128 272 l 1,12,-1
 2128 0 l 1,13,-1
 208 0 l 1,14,-1
 208 2352 l 1,15,-1
 2128 2352 l 1,4,-1
EndSplineSet
Validated: 1
EndChar

StartChar: Eacute
Encoding: 201 201 139
Width: 2320
GlyphClass: 2
Flags: W
LayerCount: 2
Fore
SplineSet
1728 3536 m 1,0,-1
 944 2720 l 1,1,-1
 576 2720 l 1,2,-1
 1120 3536 l 1,3,-1
 1728 3536 l 1,0,-1
2112 2352 m 1,4,-1
 2112 2064 l 1,5,-1
 576 2064 l 1,6,-1
 576 1360 l 1,7,-1
 1856 1360 l 1,8,-1
 1856 1088 l 1,9,-1
 576 1088 l 1,10,-1
 576 272 l 1,11,-1
 2112 272 l 1,12,-1
 2112 0 l 1,13,-1
 192 0 l 1,14,-1
 192 2352 l 1,15,-1
 2112 2352 l 1,4,-1
EndSplineSet
Validated: 1
EndChar

StartChar: Ecircumflex
Encoding: 202 202 140
Width: 2320
GlyphClass: 2
Flags: W
LayerCount: 2
Fore
SplineSet
1072 3536 m 1,0,-1
 1248 3536 l 1,1,-1
 1872 2768 l 1,2,-1
 1648 2576 l 1,3,-1
 1168 3184 l 1,4,-1
 672 2576 l 1,5,-1
 432 2768 l 1,6,-1
 1072 3536 l 1,0,-1
2128 2352 m 1,7,-1
 2128 2080 l 1,8,-1
 592 2080 l 1,9,-1
 592 1376 l 1,10,-1
 1872 1376 l 1,11,-1
 1872 1088 l 1,12,-1
 592 1088 l 1,13,-1
 592 272 l 1,14,-1
 2128 272 l 1,15,-1
 2128 0 l 1,16,-1
 208 0 l 1,17,-1
 208 2352 l 1,18,-1
 2128 2352 l 1,7,-1
EndSplineSet
Validated: 1
EndChar

StartChar: Edieresis
Encoding: 203 203 141
Width: 2320
GlyphClass: 2
Flags: W
LayerCount: 2
Fore
SplineSet
384 2720 m 1,0,-1
 384 3520 l 1,1,-1
 928 3520 l 1,2,-1
 928 2720 l 1,3,-1
 384 2720 l 1,0,-1
1392 2720 m 1,4,-1
 1392 3520 l 1,5,-1
 1936 3520 l 1,6,-1
 1936 2720 l 1,7,-1
 1392 2720 l 1,4,-1
2128 2352 m 1,8,-1
 2128 2080 l 1,9,-1
 592 2080 l 1,10,-1
 592 1376 l 1,11,-1
 1872 1376 l 1,12,-1
 1872 1088 l 1,13,-1
 592 1088 l 1,14,-1
 592 272 l 1,15,-1
 2128 272 l 1,16,-1
 2128 0 l 1,17,-1
 208 0 l 1,18,-1
 208 2352 l 1,19,-1
 2128 2352 l 1,8,-1
EndSplineSet
Validated: 1
EndChar

StartChar: Igrave
Encoding: 204 204 142
Width: 1376
GlyphClass: 2
Flags: W
LayerCount: 2
Fore
SplineSet
352 3536 m 1,0,-1
 720 3536 l 1,1,-1
 1024 2720 l 1,2,-1
 816 2720 l 1,3,-1
 352 3536 l 1,0,-1
816 0 m 1,4,-1
 576 0 l 1,5,-1
 576 2352 l 1,6,-1
 816 2352 l 1,7,-1
 816 0 l 1,4,-1
EndSplineSet
Validated: 1
EndChar

StartChar: Iacute
Encoding: 205 205 143
Width: 1184
GlyphClass: 2
Flags: W
LayerCount: 2
Fore
SplineSet
880 3536 m 1,0,-1
 480 2832 l 1,1,-1
 304 2832 l 1,2,-1
 576 3536 l 1,3,-1
 880 3536 l 1,0,-1
704 0 m 1,4,-1
 496 0 l 1,5,-1
 496 2352 l 1,6,-1
 704 2352 l 1,7,-1
 704 0 l 1,4,-1
EndSplineSet
Validated: 1
EndChar

StartChar: Icircumflex
Encoding: 206 206 144
Width: 1776
GlyphClass: 2
Flags: W
LayerCount: 2
Fore
SplineSet
816 3520 m 1,0,-1
 960 3520 l 1,1,-1
 1440 2960 l 1,2,-1
 1264 2816 l 1,3,-1
 896 3264 l 1,4,-1
 512 2816 l 1,5,-1
 336 2960 l 1,6,-1
 816 3520 l 1,0,-1
1040 0 m 1,7,-1
 752 0 l 1,8,-1
 752 2352 l 1,9,-1
 1040 2352 l 1,10,-1
 1040 0 l 1,7,-1
EndSplineSet
Validated: 1
EndChar

StartChar: Idieresis
Encoding: 207 207 145
Width: 1376
GlyphClass: 2
Flags: W
LayerCount: 2
Fore
SplineSet
160 3056 m 1,0,-1
 160 3536 l 1,1,-1
 480 3536 l 1,2,-1
 480 3056 l 1,3,-1
 160 3056 l 1,0,-1
832 3056 m 1,4,-1
 832 3536 l 1,5,-1
 1152 3536 l 1,6,-1
 1152 3056 l 1,7,-1
 832 3056 l 1,4,-1
816 0 m 1,8,-1
 576 0 l 1,9,-1
 576 2352 l 1,10,-1
 816 2352 l 1,11,-1
 816 0 l 1,8,-1
EndSplineSet
Validated: 1
EndChar

StartChar: Eth
Encoding: 208 208 146
Width: 2656
GlyphClass: 2
Flags: W
LayerCount: 2
Fore
SplineSet
992 1472 m 1,0,-1
 992 304 l 1,1,-1
 1312 304 l 2,2,3
 1712 304 1712 304 1872 648 c 128,-1,4
 2032 992 2032 992 2032 1544 c 128,-1,5
 2032 2096 2032 2096 1872 2464 c 128,-1,6
 1712 2832 1712 2832 1312 2832 c 2,7,-1
 992 2832 l 1,8,-1
 992 1744 l 1,9,-1
 1456 1744 l 1,10,-1
 1456 1472 l 1,11,-1
 992 1472 l 1,0,-1
752 1472 m 1,12,-1
 352 1472 l 1,13,-1
 352 1744 l 1,14,-1
 752 1744 l 1,15,-1
 752 3104 l 1,16,-1
 1312 3104 l 2,17,18
 1872 3104 1872 3104 2096 2680 c 128,-1,19
 2320 2256 2320 2256 2320 1552 c 128,-1,20
 2320 848 2320 848 2096 424 c 128,-1,21
 1872 0 1872 0 1312 0 c 2,22,-1
 752 0 l 1,23,-1
 752 1472 l 1,12,-1
EndSplineSet
Validated: 1
EndChar

StartChar: Ntilde
Encoding: 209 209 147
Width: 2624
GlyphClass: 2
Flags: W
LayerCount: 2
Fore
SplineSet
2368 3104 m 1,0,1
 2016 2864 2016 2864 1792 2864 c 0,2,3
 1584 2864 1584 2864 1424 2976 c 1,4,-1
 1136 3168 l 1,5,6
 1008 3248 1008 3248 832 3248 c 256,7,8
 656 3248 656 3248 256 2976 c 1,9,-1
 256 3280 l 1,10,11
 608 3520 608 3520 832 3520 c 256,12,13
 1056 3520 1056 3520 1200 3408 c 1,14,-1
 1488 3216 l 1,15,16
 1616 3136 1616 3136 1792 3136 c 0,17,18
 1984 3136 1984 3136 2368 3408 c 1,19,-1
 2368 3104 l 1,0,1
672 0 m 1,20,-1
 224 0 l 1,21,-1
 224 2352 l 1,22,-1
 800 2352 l 1,23,-1
 1968 576 l 1,24,-1
 1968 2352 l 1,25,-1
 2416 2352 l 1,26,-1
 2416 0 l 1,27,-1
 1856 0 l 1,28,-1
 672 1824 l 1,29,-1
 672 0 l 1,20,-1
EndSplineSet
Validated: 1
EndChar

StartChar: Ograve
Encoding: 210 210 148
Width: 2736
GlyphClass: 2
Flags: W
LayerCount: 2
Fore
SplineSet
784 3520 m 1,0,-1
 1376 3520 l 1,1,-1
 1888 2864 l 1,2,-1
 1536 2864 l 1,3,-1
 784 3520 l 1,0,-1
304 1168 m 0,4,5
 304 1632 304 1632 560 1992 c 128,-1,6
 816 2352 816 2352 1232 2352 c 2,7,-1
 1472 2352 l 2,8,9
 1872 2352 1872 2352 2144 1992 c 128,-1,10
 2416 1632 2416 1632 2416 1168 c 0,11,12
 2416 672 2416 672 2120 328 c 128,-1,13
 1824 -16 1824 -16 1352 -16 c 128,-1,14
 880 -16 880 -16 592 328 c 128,-1,15
 304 672 304 672 304 1168 c 0,4,5
640 1168 m 0,16,17
 640 704 640 704 864 480 c 128,-1,18
 1088 256 1088 256 1352 256 c 128,-1,19
 1616 256 1616 256 1848 480 c 128,-1,20
 2080 704 2080 704 2080 1168 c 0,21,22
 2080 1616 2080 1616 1856 1856 c 128,-1,23
 1632 2096 1632 2096 1408 2096 c 2,24,-1
 1296 2096 l 2,25,26
 1088 2096 1088 2096 864 1840 c 128,-1,27
 640 1584 640 1584 640 1168 c 0,16,17
EndSplineSet
Validated: 1
EndChar

StartChar: Oacute
Encoding: 211 211 149
Width: 2736
GlyphClass: 2
Flags: W
LayerCount: 2
Fore
SplineSet
1856 3520 m 1,0,-1
 1232 2816 l 1,1,-1
 944 2816 l 1,2,-1
 1360 3520 l 1,3,-1
 1856 3520 l 1,0,-1
304 1168 m 0,4,5
 304 1632 304 1632 560 1992 c 128,-1,6
 816 2352 816 2352 1232 2352 c 2,7,-1
 1472 2352 l 2,8,9
 1872 2352 1872 2352 2144 1992 c 128,-1,10
 2416 1632 2416 1632 2416 1168 c 0,11,12
 2416 672 2416 672 2120 328 c 128,-1,13
 1824 -16 1824 -16 1352 -16 c 128,-1,14
 880 -16 880 -16 592 328 c 128,-1,15
 304 672 304 672 304 1168 c 0,4,5
640 1168 m 0,16,17
 640 704 640 704 864 480 c 128,-1,18
 1088 256 1088 256 1352 256 c 128,-1,19
 1616 256 1616 256 1848 480 c 128,-1,20
 2080 704 2080 704 2080 1168 c 0,21,22
 2080 1616 2080 1616 1856 1856 c 128,-1,23
 1632 2096 1632 2096 1408 2096 c 2,24,-1
 1296 2096 l 2,25,26
 1088 2096 1088 2096 864 1840 c 128,-1,27
 640 1584 640 1584 640 1168 c 0,16,17
EndSplineSet
Validated: 1
EndChar

StartChar: Ocircumflex
Encoding: 212 212 150
Width: 2736
GlyphClass: 2
Flags: W
LayerCount: 2
Fore
SplineSet
1280 3520 m 1,0,-1
 1424 3520 l 1,1,-1
 1920 2960 l 1,2,-1
 1744 2816 l 1,3,-1
 1360 3280 l 1,4,-1
 976 2816 l 1,5,-1
 784 2960 l 1,6,-1
 1280 3520 l 1,0,-1
304 1168 m 0,7,8
 304 1632 304 1632 560 1992 c 128,-1,9
 816 2352 816 2352 1232 2352 c 2,10,-1
 1472 2352 l 2,11,12
 1872 2352 1872 2352 2144 1992 c 128,-1,13
 2416 1632 2416 1632 2416 1168 c 0,14,15
 2416 672 2416 672 2120 328 c 128,-1,16
 1824 -16 1824 -16 1352 -16 c 128,-1,17
 880 -16 880 -16 592 328 c 128,-1,18
 304 672 304 672 304 1168 c 0,7,8
640 1168 m 0,19,20
 640 704 640 704 864 480 c 128,-1,21
 1088 256 1088 256 1352 256 c 128,-1,22
 1616 256 1616 256 1848 480 c 128,-1,23
 2080 704 2080 704 2080 1168 c 0,24,25
 2080 1616 2080 1616 1856 1856 c 128,-1,26
 1632 2096 1632 2096 1408 2096 c 2,27,-1
 1296 2096 l 2,28,29
 1088 2096 1088 2096 864 1840 c 128,-1,30
 640 1584 640 1584 640 1168 c 0,19,20
EndSplineSet
Validated: 1
EndChar

StartChar: Otilde
Encoding: 213 213 151
Width: 2736
GlyphClass: 2
Flags: W
LayerCount: 2
Fore
SplineSet
2080 3104 m 1,0,1
 1856 2864 1856 2864 1696 2864 c 256,2,3
 1536 2864 1536 2864 1424 2976 c 2,4,-1
 1232 3168 l 1,5,6
 1136 3248 1136 3248 1024 3248 c 0,7,8
 896 3248 896 3248 624 2976 c 1,9,-1
 624 3296 l 1,10,11
 864 3536 864 3536 1024 3536 c 0,12,13
 1168 3536 1168 3536 1280 3424 c 2,14,-1
 1472 3232 l 1,15,16
 1568 3152 1568 3152 1696 3152 c 256,17,18
 1824 3152 1824 3152 2080 3424 c 1,19,-1
 2080 3104 l 1,0,1
304 1168 m 0,20,21
 304 1632 304 1632 560 1992 c 128,-1,22
 816 2352 816 2352 1232 2352 c 2,23,-1
 1472 2352 l 2,24,25
 1872 2352 1872 2352 2144 1992 c 128,-1,26
 2416 1632 2416 1632 2416 1168 c 0,27,28
 2416 672 2416 672 2120 328 c 128,-1,29
 1824 -16 1824 -16 1352 -16 c 128,-1,30
 880 -16 880 -16 592 328 c 128,-1,31
 304 672 304 672 304 1168 c 0,20,21
640 1168 m 0,32,33
 640 704 640 704 864 480 c 128,-1,34
 1088 256 1088 256 1352 256 c 128,-1,35
 1616 256 1616 256 1848 480 c 128,-1,36
 2080 704 2080 704 2080 1168 c 0,37,38
 2080 1616 2080 1616 1856 1856 c 128,-1,39
 1632 2096 1632 2096 1408 2096 c 2,40,-1
 1296 2096 l 2,41,42
 1088 2096 1088 2096 864 1840 c 128,-1,43
 640 1584 640 1584 640 1168 c 0,32,33
EndSplineSet
Validated: 1
EndChar

StartChar: Odieresis
Encoding: 214 214 152
Width: 2736
GlyphClass: 2
Flags: W
LayerCount: 2
Fore
SplineSet
704 2720 m 1,0,-1
 704 3520 l 1,1,-1
 1136 3520 l 1,2,-1
 1136 2720 l 1,3,-1
 704 2720 l 1,0,-1
1584 2720 m 1,4,-1
 1584 3520 l 1,5,-1
 2016 3520 l 1,6,-1
 2016 2720 l 1,7,-1
 1584 2720 l 1,4,-1
304 1168 m 0,8,9
 304 1632 304 1632 544 1992 c 128,-1,10
 784 2352 784 2352 1232 2352 c 2,11,-1
 1472 2352 l 2,12,13
 1920 2352 1920 2352 2168 1992 c 128,-1,14
 2416 1632 2416 1632 2416 1168 c 0,15,16
 2416 672 2416 672 2152 336 c 128,-1,17
 1888 0 1888 0 1456 0 c 2,18,-1
 1248 0 l 2,19,20
 832 0 832 0 568 336 c 128,-1,21
 304 672 304 672 304 1168 c 0,8,9
640 1168 m 0,22,23
 640 704 640 704 840 496 c 128,-1,24
 1040 288 1040 288 1296 288 c 2,25,-1
 1408 288 l 2,26,27
 1632 288 1632 288 1856 496 c 128,-1,28
 2080 704 2080 704 2080 1168 c 0,29,30
 2080 1616 2080 1616 1888 1840 c 128,-1,31
 1696 2064 1696 2064 1408 2064 c 2,32,-1
 1296 2064 l 2,33,34
 1008 2064 1008 2064 824 1824 c 128,-1,35
 640 1584 640 1584 640 1168 c 0,22,23
EndSplineSet
Validated: 1
EndChar

StartChar: multiply
Encoding: 215 215 153
Width: 4096
GlyphClass: 2
Flags: W
LayerCount: 2
Fore
SplineSet
992 2832 m 1,0,-1
 2048 1776 l 1,1,-1
 3104 2832 l 1,2,-1
 3312 2624 l 1,3,-1
 2256 1568 l 1,4,-1
 3344 496 l 1,5,-1
 3136 272 l 1,6,-1
 2048 1360 l 1,7,-1
 976 272 l 1,8,-1
 768 496 l 1,9,-1
 1840 1568 l 1,10,-1
 784 2624 l 1,11,-1
 992 2832 l 1,0,-1
EndSplineSet
Validated: 1
Substitution2: "'vert' Vertical Alternates (obs) in Hiragana & Katakana lookup 0 subtable" multiply.vert
EndChar

StartChar: Oslash
Encoding: 216 216 154
Width: 2736
GlyphClass: 2
Flags: W
LayerCount: 2
Fore
SplineSet
1808 2560 m 1,0,1
 1664 2768 1664 2768 1472 2768 c 0,2,3
 1264 2768 1264 2768 1104 2456 c 128,-1,4
 944 2144 944 2144 944 1568 c 0,5,6
 944 1120 944 1120 1024 832 c 1,7,-1
 1808 2560 l 1,0,1
1936 2304 m 1,8,-1
 1136 560 l 1,9,10
 1280 304 1280 304 1472 304 c 0,11,12
 1696 304 1696 304 1864 632 c 128,-1,13
 2032 960 2032 960 2032 1568 c 0,14,15
 2032 2000 2032 2000 1936 2304 c 1,8,-1
848 448 m 1,16,17
 608 912 608 912 608 1568 c 0,18,19
 608 2176 608 2176 848 2640 c 128,-1,20
 1088 3104 1088 3104 1472 3104 c 0,21,22
 1760 3104 1760 3104 1952 2864 c 1,23,-1
 2192 3376 l 1,24,-1
 2384 3264 l 1,25,-1
 2096 2656 l 1,26,27
 2352 2176 2352 2176 2352 1568 c 0,28,29
 2352 912 2352 912 2104 456 c 128,-1,30
 1856 0 1856 0 1472 0 c 0,31,32
 1200 0 1200 0 992 240 c 1,33,-1
 752 -288 l 1,34,-1
 560 -160 l 1,35,-1
 848 448 l 1,16,17
EndSplineSet
Validated: 1
EndChar

StartChar: Ugrave
Encoding: 217 217 155
Width: 2624
GlyphClass: 2
Flags: W
LayerCount: 2
Fore
SplineSet
768 3536 m 1,0,-1
 1456 3536 l 1,1,-1
 2064 2832 l 1,2,-1
 1648 2832 l 1,3,-1
 768 3536 l 1,0,-1
1312 320 m 256,4,5
 1600 320 1600 320 1768 480 c 128,-1,6
 1936 640 1936 640 1936 1040 c 2,7,-1
 1936 2352 l 1,8,-1
 2384 2352 l 1,9,-1
 2384 1040 l 2,10,11
 2384 448 2384 448 2072 216 c 128,-1,12
 1760 -16 1760 -16 1296 -16 c 128,-1,13
 832 -16 832 -16 544 216 c 128,-1,14
 256 448 256 448 256 1040 c 2,15,-1
 256 2352 l 1,16,-1
 704 2352 l 1,17,-1
 704 1040 l 2,18,19
 704 640 704 640 864 480 c 128,-1,20
 1024 320 1024 320 1312 320 c 256,4,5
EndSplineSet
Validated: 1
EndChar

StartChar: Uacute
Encoding: 218 218 156
Width: 2624
GlyphClass: 2
Flags: W
LayerCount: 2
Fore
SplineSet
1920 3536 m 1,0,-1
 1024 2832 l 1,1,-1
 624 2832 l 1,2,-1
 1216 3536 l 1,3,-1
 1920 3536 l 1,0,-1
1312 320 m 256,4,5
 1600 320 1600 320 1768 480 c 128,-1,6
 1936 640 1936 640 1936 1040 c 2,7,-1
 1936 2352 l 1,8,-1
 2384 2352 l 1,9,-1
 2384 1040 l 2,10,11
 2384 448 2384 448 2072 216 c 128,-1,12
 1760 -16 1760 -16 1296 -16 c 128,-1,13
 832 -16 832 -16 544 216 c 128,-1,14
 256 448 256 448 256 1040 c 2,15,-1
 256 2352 l 1,16,-1
 704 2352 l 1,17,-1
 704 1040 l 2,18,19
 704 640 704 640 864 480 c 128,-1,20
 1024 320 1024 320 1312 320 c 256,4,5
EndSplineSet
Validated: 1
EndChar

StartChar: Ucircumflex
Encoding: 219 219 157
Width: 2624
GlyphClass: 2
Flags: W
LayerCount: 2
Fore
SplineSet
1216 3520 m 1,0,-1
 1424 3520 l 1,1,-1
 2128 2960 l 1,2,-1
 1872 2816 l 1,3,-1
 1312 3264 l 1,4,-1
 768 2816 l 1,5,-1
 496 2960 l 1,6,-1
 1216 3520 l 1,0,-1
1312 320 m 256,7,8
 1600 320 1600 320 1768 480 c 128,-1,9
 1936 640 1936 640 1936 1040 c 2,10,-1
 1936 2352 l 1,11,-1
 2384 2352 l 1,12,-1
 2384 1040 l 2,13,14
 2384 448 2384 448 2072 216 c 128,-1,15
 1760 -16 1760 -16 1296 -16 c 128,-1,16
 832 -16 832 -16 544 216 c 128,-1,17
 256 448 256 448 256 1040 c 2,18,-1
 256 2352 l 1,19,-1
 704 2352 l 1,20,-1
 704 1040 l 2,21,22
 704 640 704 640 864 480 c 128,-1,23
 1024 320 1024 320 1312 320 c 256,7,8
EndSplineSet
Validated: 1
EndChar

StartChar: Udieresis
Encoding: 220 220 158
Width: 2624
GlyphClass: 2
Flags: W
LayerCount: 2
Fore
SplineSet
304 3056 m 1,0,-1
 304 3536 l 1,1,-1
 928 3536 l 1,2,-1
 928 3056 l 1,3,-1
 304 3056 l 1,0,-1
1584 3056 m 1,4,-1
 1584 3536 l 1,5,-1
 2192 3536 l 1,6,-1
 2192 3056 l 1,7,-1
 1584 3056 l 1,4,-1
1312 320 m 256,8,9
 1600 320 1600 320 1768 480 c 128,-1,10
 1936 640 1936 640 1936 1040 c 2,11,-1
 1936 2352 l 1,12,-1
 2384 2352 l 1,13,-1
 2384 1040 l 2,14,15
 2384 448 2384 448 2072 216 c 128,-1,16
 1760 -16 1760 -16 1296 -16 c 128,-1,17
 832 -16 832 -16 544 216 c 128,-1,18
 256 448 256 448 256 1040 c 2,19,-1
 256 2352 l 1,20,-1
 704 2352 l 1,21,-1
 704 1040 l 2,22,23
 704 640 704 640 864 480 c 128,-1,24
 1024 320 1024 320 1312 320 c 256,8,9
EndSplineSet
Validated: 1
EndChar

StartChar: Yacute
Encoding: 221 221 159
Width: 2416
GlyphClass: 2
Flags: W
LayerCount: 2
Fore
SplineSet
1840 3520 m 1,0,-1
 1024 2816 l 1,1,-1
 640 2816 l 1,2,-1
 1200 3520 l 1,3,-1
 1840 3520 l 1,0,-1
1424 0 m 1,4,-1
 1008 0 l 1,5,-1
 1008 1104 l 1,6,-1
 224 2352 l 1,7,-1
 640 2352 l 1,8,-1
 1216 1408 l 1,9,-1
 1792 2352 l 1,10,-1
 2208 2352 l 1,11,-1
 1424 1104 l 1,12,-1
 1424 0 l 1,4,-1
EndSplineSet
Validated: 1
EndChar

StartChar: Thorn
Encoding: 222 222 160
Width: 2224
GlyphClass: 2
Flags: W
LayerCount: 2
Fore
SplineSet
672 0 m 1,0,-1
 304 0 l 1,1,-1
 304 3248 l 1,2,-1
 672 3248 l 1,3,-1
 672 2384 l 1,4,-1
 1216 2384 l 2,5,6
 2000 2384 2000 2384 2016 1632 c 256,7,8
 2016 1618 2016 1618 2016 1603 c 0,9,10
 2016 879 2016 879 1216 864 c 1,11,-1
 672 864 l 1,12,-1
 672 0 l 1,0,-1
1696 1632 m 1,13,14
 1696 2096 1696 2096 1216 2112 c 1,15,-1
 672 2112 l 1,16,-1
 672 1120 l 1,17,-1
 1216 1120 l 2,18,19
 1680 1120 1680 1120 1696 1632 c 1,13,14
EndSplineSet
Validated: 1
EndChar

StartChar: germandbls
Encoding: 223 223 161
Width: 2224
GlyphClass: 2
Flags: W
LayerCount: 2
Fore
SplineSet
1088 3104 m 2,0,1
 1392 3104 1392 3104 1616 2872 c 128,-1,2
 1840 2640 1840 2640 1840 2304 c 0,3,4
 1840 2016 1840 2016 1688 1848 c 128,-1,5
 1536 1680 1536 1680 1424 1648 c 1,6,7
 1664 1600 1664 1600 1856 1376 c 128,-1,8
 2048 1152 2048 1152 2048 848 c 0,9,10
 2048 0 2048 0 1261 -0 c 0,11,12
 1246 0 1246 0 1232 0 c 1,13,-1
 768 0 l 1,14,-1
 768 288 l 1,15,-1
 1168 288 l 2,16,17
 1696 288 1696 288 1696 832 c 0,18,19
 1696 1168 1696 1168 1432 1344 c 128,-1,20
 1168 1520 1168 1520 880 1520 c 1,21,-1
 880 1776 l 1,22,23
 1152 1776 1152 1776 1312 1920 c 128,-1,24
 1472 2064 1472 2064 1472 2304 c 0,25,26
 1472 2576 1472 2576 1336 2696 c 128,-1,27
 1200 2816 1200 2816 960 2816 c 0,28,29
 784 2816 784 2816 664 2664 c 128,-1,30
 544 2512 544 2512 544 2176 c 2,31,-1
 544 0 l 1,32,-1
 176 0 l 1,33,-1
 176 2176 l 2,34,35
 176 2704 176 2704 408 2904 c 128,-1,36
 640 3104 640 3104 896 3104 c 2,37,-1
 1088 3104 l 2,0,1
EndSplineSet
Validated: 1
EndChar

StartChar: agrave
Encoding: 224 224 162
Width: 1952
GlyphClass: 2
Flags: W
LayerCount: 2
Fore
SplineSet
496 3248 m 1,0,-1
 1008 3248 l 1,1,-1
 1456 2544 l 1,2,-1
 1152 2544 l 1,3,-1
 496 3248 l 1,0,-1
1744 0 m 1,4,-1
 1456 0 l 1,5,-1
 1392 176 l 1,6,7
 1152 0 1152 0 768 0 c 0,8,9
 192 0 192 0 192 608 c 0,10,11
 192 1280 192 1280 1040 1280 c 2,12,-1
 1360 1280 l 1,13,-1
 1360 1392 l 2,14,15
 1360 1552 1360 1552 1272 1616 c 128,-1,16
 1184 1680 1184 1680 1040 1680 c 2,17,-1
 768 1680 l 2,18,19
 496 1680 496 1680 336 1568 c 1,20,-1
 208 1744 l 1,21,22
 464 1920 464 1920 752 1920 c 2,23,-1
 1104 1920 l 2,24,25
 1312 1920 1312 1920 1488 1800 c 128,-1,26
 1664 1680 1664 1680 1664 1392 c 2,27,-1
 1664 416 l 1,28,-1
 1744 0 l 1,4,-1
1360 1040 m 1,29,-1
 1040 1040 l 2,30,31
 544 1040 544 1040 528 592 c 1,32,33
 528 224 528 224 848 224 c 0,34,35
 1104 224 1104 224 1360 432 c 1,36,-1
 1360 1040 l 1,29,-1
EndSplineSet
Validated: 1
EndChar

StartChar: aacute
Encoding: 225 225 163
Width: 1952
GlyphClass: 2
Flags: W
LayerCount: 2
Fore
SplineSet
1456 3248 m 1,0,-1
 800 2544 l 1,1,-1
 496 2544 l 1,2,-1
 944 3248 l 1,3,-1
 1456 3248 l 1,0,-1
1744 0 m 1,4,-1
 1456 0 l 1,5,-1
 1392 176 l 1,6,7
 1152 0 1152 0 768 0 c 0,8,9
 192 0 192 0 192 608 c 0,10,11
 192 1280 192 1280 1040 1280 c 2,12,-1
 1360 1280 l 1,13,-1
 1360 1392 l 2,14,15
 1360 1552 1360 1552 1272 1616 c 128,-1,16
 1184 1680 1184 1680 1040 1680 c 2,17,-1
 768 1680 l 2,18,19
 496 1680 496 1680 336 1568 c 1,20,-1
 208 1744 l 1,21,22
 464 1920 464 1920 752 1920 c 2,23,-1
 1104 1920 l 2,24,25
 1312 1920 1312 1920 1488 1800 c 128,-1,26
 1664 1680 1664 1680 1664 1392 c 2,27,-1
 1664 416 l 1,28,-1
 1744 0 l 1,4,-1
1360 1040 m 1,29,-1
 1040 1040 l 2,30,31
 544 1040 544 1040 528 592 c 1,32,33
 528 224 528 224 848 224 c 0,34,35
 1104 224 1104 224 1360 432 c 1,36,-1
 1360 1040 l 1,29,-1
EndSplineSet
Validated: 1
EndChar

StartChar: acircumflex
Encoding: 226 226 164
Width: 1952
GlyphClass: 2
Flags: W
LayerCount: 2
Fore
SplineSet
896 3248 m 1,0,-1
 1056 3248 l 1,1,-1
 1584 2672 l 1,2,-1
 1392 2544 l 1,3,-1
 976 2992 l 1,4,-1
 576 2544 l 1,5,-1
 368 2672 l 1,6,-1
 896 3248 l 1,0,-1
1744 0 m 1,7,-1
 1456 0 l 1,8,-1
 1392 176 l 1,9,10
 1152 0 1152 0 768 0 c 0,11,12
 192 0 192 0 192 608 c 0,13,14
 192 1280 192 1280 1040 1280 c 2,15,-1
 1360 1280 l 1,16,-1
 1360 1392 l 2,17,18
 1360 1552 1360 1552 1272 1616 c 128,-1,19
 1184 1680 1184 1680 1040 1680 c 2,20,-1
 768 1680 l 2,21,22
 496 1680 496 1680 336 1568 c 1,23,-1
 208 1744 l 1,24,25
 464 1920 464 1920 752 1920 c 2,26,-1
 1104 1920 l 2,27,28
 1312 1920 1312 1920 1488 1800 c 128,-1,29
 1664 1680 1664 1680 1664 1392 c 2,30,-1
 1664 416 l 1,31,-1
 1744 0 l 1,7,-1
1360 1040 m 1,32,-1
 1040 1040 l 2,33,34
 544 1040 544 1040 528 592 c 1,35,36
 528 224 528 224 848 224 c 0,37,38
 1104 224 1104 224 1360 432 c 1,39,-1
 1360 1040 l 1,32,-1
EndSplineSet
Validated: 1
EndChar

StartChar: atilde
Encoding: 227 227 165
Width: 1952
GlyphClass: 2
Flags: W
LayerCount: 2
Fore
SplineSet
1760 2672 m 1,0,1
 1504 2432 1504 2432 1344 2432 c 256,2,3
 1184 2432 1184 2432 1056 2544 c 1,4,-1
 848 2736 l 1,5,6
 752 2816 752 2816 624 2816 c 0,7,8
 480 2816 480 2816 192 2544 c 1,9,-1
 192 2848 l 1,10,11
 448 3088 448 3088 624 3088 c 0,12,13
 784 3088 784 3088 896 2976 c 1,14,-1
 1104 2784 l 1,15,16
 1216 2704 1216 2704 1344 2704 c 256,17,18
 1472 2704 1472 2704 1760 2976 c 1,19,-1
 1760 2672 l 1,0,1
1744 0 m 1,20,-1
 1456 0 l 1,21,-1
 1392 176 l 1,22,23
 1152 0 1152 0 768 0 c 0,24,25
 192 0 192 0 192 608 c 0,26,27
 192 1280 192 1280 1040 1280 c 2,28,-1
 1360 1280 l 1,29,-1
 1360 1392 l 2,30,31
 1360 1552 1360 1552 1272 1616 c 128,-1,32
 1184 1680 1184 1680 1040 1680 c 2,33,-1
 768 1680 l 2,34,35
 496 1680 496 1680 336 1568 c 1,36,-1
 208 1744 l 1,37,38
 464 1920 464 1920 752 1920 c 2,39,-1
 1104 1920 l 2,40,41
 1312 1920 1312 1920 1488 1800 c 128,-1,42
 1664 1680 1664 1680 1664 1392 c 2,43,-1
 1664 416 l 1,44,-1
 1744 0 l 1,20,-1
1360 1040 m 1,45,-1
 1040 1040 l 2,46,47
 544 1040 544 1040 528 592 c 1,48,49
 528 224 528 224 848 224 c 0,50,51
 1104 224 1104 224 1360 432 c 1,52,-1
 1360 1040 l 1,45,-1
EndSplineSet
Validated: 1
EndChar

StartChar: adieresis
Encoding: 228 228 166
Width: 1952
GlyphClass: 2
Flags: W
LayerCount: 2
Fore
SplineSet
240 2352 m 1,0,-1
 240 3104 l 1,1,-1
 688 3104 l 1,2,-1
 688 2352 l 1,3,-1
 240 2352 l 1,0,-1
1184 2352 m 1,4,-1
 1184 3104 l 1,5,-1
 1632 3104 l 1,6,-1
 1632 2352 l 1,7,-1
 1184 2352 l 1,4,-1
1744 0 m 1,8,-1
 1456 0 l 1,9,-1
 1392 176 l 1,10,11
 1152 0 1152 0 768 0 c 0,12,13
 192 0 192 0 192 608 c 0,14,15
 192 1280 192 1280 1040 1280 c 2,16,-1
 1360 1280 l 1,17,-1
 1360 1392 l 2,18,19
 1360 1552 1360 1552 1272 1616 c 128,-1,20
 1184 1680 1184 1680 1040 1680 c 2,21,-1
 768 1680 l 2,22,23
 496 1680 496 1680 336 1568 c 1,24,-1
 208 1744 l 1,25,26
 464 1920 464 1920 752 1920 c 2,27,-1
 1104 1920 l 2,28,29
 1312 1920 1312 1920 1488 1800 c 128,-1,30
 1664 1680 1664 1680 1664 1392 c 2,31,-1
 1664 416 l 1,32,-1
 1744 0 l 1,8,-1
1360 1040 m 1,33,-1
 1040 1040 l 2,34,35
 544 1040 544 1040 528 592 c 1,36,37
 528 224 528 224 848 224 c 0,38,39
 1104 224 1104 224 1360 432 c 1,40,-1
 1360 1040 l 1,33,-1
EndSplineSet
Validated: 1
EndChar

StartChar: aring
Encoding: 229 229 167
Width: 1952
GlyphClass: 2
Flags: W
LayerCount: 2
Fore
SplineSet
512 2800 m 0,0,1
 512 2992 512 2992 656 3136 c 1,2,3
 784 3280 784 3280 976 3280 c 256,4,5
 1168 3280 1168 3280 1312 3136 c 1,6,7
 1440 2992 1440 2992 1440 2800 c 0,8,9
 1440 2592 1440 2592 1312 2448 c 1,10,11
 1168 2304 1168 2304 976 2304 c 256,12,13
 784 2304 784 2304 656 2448 c 1,14,15
 512 2592 512 2592 512 2800 c 0,0,1
672 2784 m 0,16,17
 672 2656 672 2656 760 2560 c 128,-1,18
 848 2464 848 2464 976 2464 c 256,19,20
 1104 2464 1104 2464 1200 2560 c 1,21,22
 1280 2656 1280 2656 1280 2784 c 0,23,24
 1280 2928 1280 2928 1192 3024 c 128,-1,25
 1104 3120 1104 3120 976 3120 c 256,26,27
 848 3120 848 3120 752 3024 c 1,28,29
 672 2928 672 2928 672 2784 c 0,16,17
1744 0 m 1,30,-1
 1456 0 l 1,31,-1
 1392 176 l 1,32,33
 1152 0 1152 0 768 0 c 0,34,35
 192 0 192 0 192 608 c 0,36,37
 192 1280 192 1280 1040 1280 c 2,38,-1
 1360 1280 l 1,39,-1
 1360 1392 l 2,40,41
 1360 1552 1360 1552 1272 1616 c 128,-1,42
 1184 1680 1184 1680 1040 1680 c 2,43,-1
 768 1680 l 2,44,45
 496 1680 496 1680 336 1568 c 1,46,-1
 208 1744 l 1,47,48
 464 1920 464 1920 752 1920 c 2,49,-1
 1104 1920 l 2,50,51
 1312 1920 1312 1920 1488 1800 c 128,-1,52
 1664 1680 1664 1680 1664 1392 c 2,53,-1
 1664 416 l 1,54,-1
 1744 0 l 1,30,-1
1360 1040 m 1,55,-1
 1040 1040 l 2,56,57
 544 1040 544 1040 528 592 c 1,58,59
 528 224 528 224 848 224 c 0,60,61
 1104 224 1104 224 1360 432 c 1,62,-1
 1360 1040 l 1,55,-1
EndSplineSet
Validated: 1
EndChar

StartChar: ae
Encoding: 230 230 168
Width: 2736
GlyphClass: 2
Flags: W
LayerCount: 2
Fore
SplineSet
1424 1216 m 1,0,-1
 2208 1216 l 1,1,2
 2144 1632 2144 1632 1824 1648 c 1,3,4
 1488 1632 1488 1632 1424 1216 c 1,0,-1
1312 1648 m 1,5,6
 1456 1920 1456 1920 1744 1920 c 2,7,-1
 1904 1920 l 2,8,9
 2128 1920 2128 1920 2328 1664 c 128,-1,10
 2528 1408 2528 1408 2528 960 c 1,11,-1
 1408 960 l 1,12,13
 1408 640 1408 640 1544 456 c 128,-1,14
 1680 272 1680 272 1872 272 c 0,15,16
 2016 272 2016 272 2104 360 c 128,-1,17
 2192 448 2192 448 2240 608 c 1,18,-1
 2512 608 l 1,19,20
 2384 -16 2384 -16 1872 -16 c 0,21,22
 1488 -16 1488 -16 1312 288 c 1,23,24
 992 0 992 0 640 -16 c 1,25,26
 400 -16 400 -16 296 120 c 128,-1,27
 192 256 192 256 192 480 c 0,28,29
 192 896 192 896 440 1056 c 128,-1,30
 688 1216 688 1216 1136 1264 c 1,31,32
 1136 1664 1136 1664 816 1696 c 1,33,34
 544 1696 544 1696 512 1392 c 1,35,-1
 224 1392 l 1,36,37
 272 1712 272 1712 416 1816 c 128,-1,38
 560 1920 560 1920 720 1920 c 2,39,-1
 928 1920 l 2,40,41
 1184 1920 1184 1920 1312 1648 c 1,5,6
1136 512 m 1,42,43
 1136 1008 l 1,44,45
 800 944 800 944 632 840 c 128,-1,46
 464 736 464 736 464 480 c 0,47,48
 464 288 464 288 640 288 c 0,49,50
 928 288 928 288 1136 512 c 1,42,43
EndSplineSet
Validated: 1
EndChar

StartChar: ccedilla
Encoding: 231 231 169
Width: 2048
GlyphClass: 2
Flags: W
LayerCount: 2
Fore
SplineSet
1168 0 m 1,0,1
 1248 -64 1248 -64 1344 -80 c 1,2,3
 1456 -128 1456 -128 1512 -176 c 128,-1,4
 1568 -224 1568 -224 1568 -288 c 0,5,6
 1568 -416 1568 -416 1440 -496 c 128,-1,7
 1312 -576 1312 -576 1088 -576 c 0,8,9
 896 -576 896 -576 776 -536 c 128,-1,10
 656 -496 656 -496 512 -352 c 1,11,-1
 656 -208 l 1,12,13
 768 -320 768 -320 864 -352 c 128,-1,14
 960 -384 960 -384 1088 -384 c 0,15,16
 1184 -384 1184 -384 1256 -368 c 128,-1,17
 1328 -352 1328 -352 1328 -288 c 0,18,19
 1328 -240 1328 -240 1168 -192 c 1,20,21
 976 -144 976 -144 928 0 c 1,22,23
 592 32 592 32 384 288 c 128,-1,24
 176 544 176 544 176 992 c 0,25,26
 176 1424 176 1424 392 1672 c 128,-1,27
 608 1920 608 1920 944 1920 c 2,28,-1
 1152 1920 l 2,29,30
 1440 1920 1440 1920 1648 1696 c 128,-1,31
 1856 1472 1856 1472 1872 1184 c 1,32,-1
 1568 1184 l 1,33,34
 1536 1392 1536 1392 1400 1520 c 128,-1,35
 1264 1648 1264 1648 1040 1648 c 0,36,37
 784 1648 784 1648 624 1472 c 128,-1,38
 464 1296 464 1296 464 992 c 0,39,40
 464 608 464 608 624 448 c 128,-1,41
 784 288 784 288 1040 288 c 0,42,43
 1280 288 1280 288 1408 400 c 128,-1,44
 1536 512 1536 512 1568 736 c 1,45,-1
 1872 736 l 1,46,47
 1840 400 1840 400 1672 216 c 128,-1,48
 1504 32 1504 32 1168 0 c 1,0,1
EndSplineSet
Validated: 1
EndChar

StartChar: egrave
Encoding: 232 232 170
Width: 2048
GlyphClass: 2
Flags: W
LayerCount: 2
Fore
SplineSet
512 3248 m 1,0,-1
 1056 3248 l 1,1,-1
 1536 2544 l 1,2,-1
 1216 2544 l 1,3,-1
 512 3248 l 1,0,-1
592 1056 m 1,4,5
 584 976 584 976 584 900 c 128,-1,6
 584 824 584 824 592 752 c 0,7,8
 624 464 624 464 752 352 c 128,-1,9
 880 240 880 240 1040 240 c 256,10,11
 1200 240 1200 240 1320 296 c 128,-1,12
 1440 352 1440 352 1536 528 c 1,13,-1
 1792 368 l 1,14,15
 1696 208 1696 208 1536 104 c 128,-1,16
 1376 0 1376 0 1136 0 c 2,17,-1
 960 0 l 2,18,19
 640 0 640 0 440 216 c 128,-1,20
 240 432 240 432 240 896 c 2,21,-1
 240 1088 l 2,22,23
 240 1536 240 1536 448 1728 c 128,-1,24
 656 1920 656 1920 944 1920 c 2,25,-1
 1136 1920 l 2,26,27
 1408 1920 1408 1920 1608 1728 c 128,-1,28
 1808 1536 1808 1536 1808 1280 c 2,29,-1
 1808 1056 l 1,30,-1
 592 1056 l 1,4,5
1472 1280 m 1,31,32
 1456 1456 1456 1456 1360 1568 c 128,-1,33
 1264 1680 1264 1680 1040 1680 c 0,34,35
 800 1680 800 1680 712 1560 c 128,-1,36
 624 1440 624 1440 608 1280 c 1,37,-1
 1472 1280 l 1,31,32
EndSplineSet
Validated: 1
EndChar

StartChar: eacute
Encoding: 233 233 171
Width: 2048
GlyphClass: 2
Flags: W
LayerCount: 2
Fore
SplineSet
1536 3248 m 1,0,-1
 832 2544 l 1,1,-1
 512 2544 l 1,2,-1
 992 3248 l 1,3,-1
 1536 3248 l 1,0,-1
592 1056 m 1,4,5
 584 976 584 976 584 900 c 128,-1,6
 584 824 584 824 592 752 c 0,7,8
 624 464 624 464 752 352 c 128,-1,9
 880 240 880 240 1040 240 c 256,10,11
 1200 240 1200 240 1320 296 c 128,-1,12
 1440 352 1440 352 1536 528 c 1,13,-1
 1792 368 l 1,14,15
 1696 208 1696 208 1536 104 c 128,-1,16
 1376 0 1376 0 1136 0 c 2,17,-1
 960 0 l 2,18,19
 640 0 640 0 440 216 c 128,-1,20
 240 432 240 432 240 896 c 2,21,-1
 240 1088 l 2,22,23
 240 1536 240 1536 448 1728 c 128,-1,24
 656 1920 656 1920 944 1920 c 2,25,-1
 1136 1920 l 2,26,27
 1408 1920 1408 1920 1608 1728 c 128,-1,28
 1808 1536 1808 1536 1808 1280 c 2,29,-1
 1808 1056 l 1,30,-1
 592 1056 l 1,4,5
1472 1280 m 1,31,32
 1456 1456 1456 1456 1360 1568 c 128,-1,33
 1264 1680 1264 1680 1040 1680 c 0,34,35
 800 1680 800 1680 712 1560 c 128,-1,36
 624 1440 624 1440 608 1280 c 1,37,-1
 1472 1280 l 1,31,32
EndSplineSet
Validated: 1
EndChar

StartChar: ecircumflex
Encoding: 234 234 172
Width: 2048
GlyphClass: 2
Flags: W
LayerCount: 2
Fore
SplineSet
944 3248 m 1,0,-1
 1104 3248 l 1,1,-1
 1664 2672 l 1,2,-1
 1456 2544 l 1,3,-1
 1024 2992 l 1,4,-1
 592 2544 l 1,5,-1
 384 2672 l 1,6,-1
 944 3248 l 1,0,-1
592 1056 m 1,7,8
 584 976 584 976 584 900 c 128,-1,9
 584 824 584 824 592 752 c 0,10,11
 624 464 624 464 752 352 c 128,-1,12
 880 240 880 240 1040 240 c 256,13,14
 1200 240 1200 240 1320 296 c 128,-1,15
 1440 352 1440 352 1536 528 c 1,16,-1
 1792 368 l 1,17,18
 1696 208 1696 208 1536 104 c 128,-1,19
 1376 0 1376 0 1136 0 c 2,20,-1
 960 0 l 2,21,22
 640 0 640 0 440 216 c 128,-1,23
 240 432 240 432 240 896 c 2,24,-1
 240 1088 l 2,25,26
 240 1536 240 1536 448 1728 c 128,-1,27
 656 1920 656 1920 944 1920 c 2,28,-1
 1136 1920 l 2,29,30
 1408 1920 1408 1920 1608 1728 c 128,-1,31
 1808 1536 1808 1536 1808 1280 c 2,32,-1
 1808 1056 l 1,33,-1
 592 1056 l 1,7,8
1472 1280 m 1,34,35
 1456 1456 1456 1456 1360 1568 c 128,-1,36
 1264 1680 1264 1680 1040 1680 c 0,37,38
 800 1680 800 1680 712 1560 c 128,-1,39
 624 1440 624 1440 608 1280 c 1,40,-1
 1472 1280 l 1,34,35
EndSplineSet
Validated: 1
EndChar

StartChar: edieresis
Encoding: 235 235 173
Width: 2048
GlyphClass: 2
Flags: W
LayerCount: 2
Fore
SplineSet
240 2544 m 1,0,-1
 240 3024 l 1,1,-1
 720 3024 l 1,2,-1
 720 2544 l 1,3,-1
 240 2544 l 1,0,-1
1232 2544 m 1,4,-1
 1232 3024 l 1,5,-1
 1712 3024 l 1,6,-1
 1712 2544 l 1,7,-1
 1232 2544 l 1,4,-1
592 1056 m 1,8,9
 584 976 584 976 584 900 c 128,-1,10
 584 824 584 824 592 752 c 0,11,12
 624 464 624 464 752 352 c 128,-1,13
 880 240 880 240 1040 240 c 256,14,15
 1200 240 1200 240 1320 296 c 128,-1,16
 1440 352 1440 352 1536 528 c 1,17,-1
 1792 368 l 1,18,19
 1696 208 1696 208 1536 104 c 128,-1,20
 1376 0 1376 0 1136 0 c 2,21,-1
 960 0 l 2,22,23
 640 0 640 0 440 216 c 128,-1,24
 240 432 240 432 240 896 c 2,25,-1
 240 1088 l 2,26,27
 240 1536 240 1536 448 1728 c 128,-1,28
 656 1920 656 1920 944 1920 c 2,29,-1
 1136 1920 l 2,30,31
 1408 1920 1408 1920 1608 1728 c 128,-1,32
 1808 1536 1808 1536 1808 1280 c 2,33,-1
 1808 1056 l 1,34,-1
 592 1056 l 1,8,9
1472 1280 m 1,35,36
 1456 1456 1456 1456 1360 1568 c 128,-1,37
 1264 1680 1264 1680 1040 1680 c 0,38,39
 800 1680 800 1680 712 1560 c 128,-1,40
 624 1440 624 1440 608 1280 c 1,41,-1
 1472 1280 l 1,35,36
EndSplineSet
Validated: 1
EndChar

StartChar: igrave
Encoding: 236 236 174
Width: 1200
GlyphClass: 2
Flags: W
LayerCount: 2
Fore
SplineSet
304 3248 m 1,0,-1
 624 3248 l 1,1,-1
 896 2544 l 1,2,-1
 704 2544 l 1,3,-1
 304 3248 l 1,0,-1
704 0 m 1,4,-1
 496 0 l 1,5,-1
 496 1920 l 1,6,-1
 704 1920 l 1,7,-1
 704 0 l 1,4,-1
EndSplineSet
Validated: 1
EndChar

StartChar: iacute
Encoding: 237 237 175
Width: 1200
GlyphClass: 2
Flags: W
LayerCount: 2
Fore
SplineSet
896 3248 m 1,0,-1
 496 2544 l 1,1,-1
 304 2544 l 1,2,-1
 576 3248 l 1,3,-1
 896 3248 l 1,0,-1
704 0 m 1,4,-1
 496 0 l 1,5,-1
 496 1920 l 1,6,-1
 704 1920 l 1,7,-1
 704 0 l 1,4,-1
EndSplineSet
Validated: 1
EndChar

StartChar: icircumflex
Encoding: 238 238 176
Width: 1776
GlyphClass: 2
Flags: W
LayerCount: 2
Fore
SplineSet
816 3248 m 1,0,-1
 960 3248 l 1,1,-1
 1440 2688 l 1,2,-1
 1264 2544 l 1,3,-1
 896 2992 l 1,4,-1
 512 2544 l 1,5,-1
 336 2688 l 1,6,-1
 816 3248 l 1,0,-1
1040 0 m 1,7,-1
 736 0 l 1,8,-1
 736 1920 l 1,9,-1
 1040 1920 l 1,10,-1
 1040 0 l 1,7,-1
EndSplineSet
Validated: 1
EndChar

StartChar: idieresis
Encoding: 239 239 177
Width: 1472
GlyphClass: 2
Flags: W
LayerCount: 2
Fore
SplineSet
176 2544 m 1,0,-1
 176 3024 l 1,1,-1
 528 3024 l 1,2,-1
 528 2544 l 1,3,-1
 176 2544 l 1,0,-1
896 2544 m 1,4,-1
 896 3024 l 1,5,-1
 1232 3024 l 1,6,-1
 1232 2544 l 1,7,-1
 896 2544 l 1,4,-1
864 0 m 1,8,-1
 608 0 l 1,9,-1
 608 1920 l 1,10,-1
 864 1920 l 1,11,-1
 864 0 l 1,8,-1
EndSplineSet
Validated: 1
EndChar

StartChar: eth
Encoding: 240 240 178
Width: 2096
GlyphClass: 2
Flags: W
LayerCount: 2
Fore
SplineSet
976 304 m 0,0,1
 1264 304 1264 304 1384 464 c 128,-1,2
 1504 624 1504 624 1504 944 c 256,3,4
 1504 1264 1504 1264 1352 1416 c 128,-1,5
 1200 1568 1200 1568 976 1568 c 0,6,7
 720 1568 720 1568 592 1360 c 128,-1,8
 464 1152 464 1152 464 944 c 0,9,10
 464 624 464 624 624 464 c 128,-1,11
 784 304 784 304 976 304 c 0,0,1
1536 2608 m 1,12,-1
 1952 2752 l 1,13,-1
 2048 2496 l 1,14,-1
 1696 2368 l 1,15,16
 1888 2000 1888 2000 1888 1216 c 0,17,18
 1888 592 1888 592 1648 296 c 128,-1,19
 1408 0 1408 0 1008 0 c 1,20,21
 987 -1 987 -1 966 -1 c 0,22,23
 581 -1 581 -1 376 280 c 0,24,25
 160 576 160 576 160 944 c 0,26,27
 160 1440 160 1440 400 1648 c 128,-1,28
 640 1856 640 1856 992 1856 c 0,29,30
 1136 1856 1136 1856 1288 1800 c 128,-1,31
 1440 1744 1440 1744 1520 1648 c 1,32,33
 1504 2048 1504 2048 1392 2272 c 1,34,-1
 448 1952 l 1,35,-1
 352 2208 l 1,36,-1
 1216 2496 l 1,37,38
 1056 2656 1056 2656 800 2784 c 1,39,-1
 960 3024 l 1,40,41
 1264 2880 1264 2880 1536 2608 c 1,12,-1
EndSplineSet
Validated: 1
EndChar

StartChar: ntilde
Encoding: 241 241 179
Width: 2048
GlyphClass: 2
Flags: W
LayerCount: 2
Fore
SplineSet
1840 2672 m 1,0,1
 1584 2432 1584 2432 1408 2432 c 256,2,3
 1232 2432 1232 2432 1104 2544 c 1,4,-1
 880 2736 l 1,5,6
 784 2816 784 2816 656 2816 c 0,7,8
 512 2816 512 2816 208 2544 c 1,9,-1
 208 2848 l 1,10,11
 480 3088 480 3088 656 3088 c 0,12,13
 816 3088 816 3088 944 2976 c 1,14,-1
 1168 2784 l 1,15,16
 1264 2704 1264 2704 1408 2704 c 256,17,18
 1552 2704 1552 2704 1840 2976 c 1,19,-1
 1840 2672 l 1,0,1
1728 0 m 1,20,-1
 1392 0 l 1,21,-1
 1392 1376 l 2,22,23
 1392 1520 1392 1520 1336 1576 c 128,-1,24
 1280 1632 1280 1632 1120 1632 c 0,25,26
 992 1632 992 1632 896 1568 c 128,-1,27
 800 1504 800 1504 656 1328 c 1,28,-1
 656 0 l 1,29,-1
 320 0 l 1,30,-1
 320 1920 l 1,31,-1
 656 1920 l 1,32,-1
 656 1648 l 1,33,34
 736 1776 736 1776 832 1848 c 128,-1,35
 928 1920 928 1920 1104 1920 c 2,36,-1
 1296 1920 l 2,37,38
 1504 1920 1504 1920 1616 1792 c 128,-1,39
 1728 1664 1728 1664 1728 1424 c 2,40,-1
 1728 0 l 1,20,-1
EndSplineSet
Validated: 1
EndChar

StartChar: ograve
Encoding: 242 242 180
Width: 2080
GlyphClass: 2
Flags: W
LayerCount: 2
Fore
SplineSet
528 3248 m 1,0,-1
 1072 3248 l 1,1,-1
 1552 2544 l 1,2,-1
 1232 2544 l 1,3,-1
 528 3248 l 1,0,-1
1152 1920 m 2,4,5
 1552 1920 1552 1920 1744 1664 c 128,-1,6
 1936 1408 1936 1408 1936 1008 c 2,7,-1
 1936 960 l 2,8,9
 1936 512 1936 512 1736 256 c 128,-1,10
 1536 0 1536 0 1152 0 c 2,11,-1
 912 0 l 2,12,13
 528 0 528 0 344 240 c 128,-1,14
 160 480 160 480 160 960 c 2,15,-1
 160 1008 l 2,16,17
 160 1424 160 1424 360 1672 c 128,-1,18
 560 1920 560 1920 912 1920 c 2,19,-1
 1152 1920 l 2,4,5
512 1008 m 2,20,-1
 512 960 l 2,21,22
 512 576 512 576 616 424 c 128,-1,23
 720 272 720 272 912 272 c 2,24,-1
 1152 272 l 2,25,26
 1344 272 1344 272 1464 448 c 128,-1,27
 1584 624 1584 624 1584 960 c 2,28,-1
 1584 1008 l 2,29,30
 1584 1328 1584 1328 1472 1488 c 128,-1,31
 1360 1648 1360 1648 1152 1648 c 2,32,-1
 912 1648 l 2,33,34
 736 1648 736 1648 624 1496 c 128,-1,35
 512 1344 512 1344 512 1008 c 2,20,-1
EndSplineSet
Validated: 1
EndChar

StartChar: oacute
Encoding: 243 243 181
Width: 2080
GlyphClass: 2
Flags: W
LayerCount: 2
Fore
SplineSet
1552 3248 m 1,0,-1
 848 2544 l 1,1,-1
 528 2544 l 1,2,-1
 1008 3248 l 1,3,-1
 1552 3248 l 1,0,-1
1152 1920 m 2,4,5
 1552 1920 1552 1920 1744 1664 c 128,-1,6
 1936 1408 1936 1408 1936 1008 c 2,7,-1
 1936 960 l 2,8,9
 1936 512 1936 512 1736 256 c 128,-1,10
 1536 0 1536 0 1152 0 c 2,11,-1
 912 0 l 2,12,13
 528 0 528 0 344 240 c 128,-1,14
 160 480 160 480 160 960 c 2,15,-1
 160 1008 l 2,16,17
 160 1424 160 1424 360 1672 c 128,-1,18
 560 1920 560 1920 912 1920 c 2,19,-1
 1152 1920 l 2,4,5
512 1008 m 2,20,-1
 512 960 l 2,21,22
 512 576 512 576 616 424 c 128,-1,23
 720 272 720 272 912 272 c 2,24,-1
 1152 272 l 2,25,26
 1344 272 1344 272 1464 448 c 128,-1,27
 1584 624 1584 624 1584 960 c 2,28,-1
 1584 1008 l 2,29,30
 1584 1328 1584 1328 1472 1488 c 128,-1,31
 1360 1648 1360 1648 1152 1648 c 2,32,-1
 912 1648 l 2,33,34
 736 1648 736 1648 624 1496 c 128,-1,35
 512 1344 512 1344 512 1008 c 2,20,-1
EndSplineSet
Validated: 1
EndChar

StartChar: ocircumflex
Encoding: 244 244 182
Width: 2080
GlyphClass: 2
Flags: W
LayerCount: 2
Fore
SplineSet
960 3248 m 1,0,-1
 1120 3248 l 1,1,-1
 1680 2672 l 1,2,-1
 1488 2544 l 1,3,-1
 1040 2992 l 1,4,-1
 608 2544 l 1,5,-1
 400 2672 l 1,6,-1
 960 3248 l 1,0,-1
1152 1920 m 2,7,8
 1552 1920 1552 1920 1744 1664 c 128,-1,9
 1936 1408 1936 1408 1936 1008 c 2,10,-1
 1936 960 l 2,11,12
 1936 512 1936 512 1736 256 c 128,-1,13
 1536 0 1536 0 1152 0 c 2,14,-1
 912 0 l 2,15,16
 528 0 528 0 344 240 c 128,-1,17
 160 480 160 480 160 960 c 2,18,-1
 160 1008 l 2,19,20
 160 1424 160 1424 360 1672 c 128,-1,21
 560 1920 560 1920 912 1920 c 2,22,-1
 1152 1920 l 2,7,8
512 1008 m 2,23,-1
 512 960 l 2,24,25
 512 576 512 576 616 424 c 128,-1,26
 720 272 720 272 912 272 c 2,27,-1
 1152 272 l 2,28,29
 1344 272 1344 272 1464 448 c 128,-1,30
 1584 624 1584 624 1584 960 c 2,31,-1
 1584 1008 l 2,32,33
 1584 1328 1584 1328 1472 1488 c 128,-1,34
 1360 1648 1360 1648 1152 1648 c 2,35,-1
 912 1648 l 2,36,37
 736 1648 736 1648 624 1496 c 128,-1,38
 512 1344 512 1344 512 1008 c 2,23,-1
EndSplineSet
Validated: 1
EndChar

StartChar: otilde
Encoding: 245 245 183
Width: 2080
GlyphClass: 2
Flags: W
LayerCount: 2
Fore
SplineSet
1872 2672 m 1,0,1
 1600 2432 1600 2432 1424 2432 c 256,2,3
 1248 2432 1248 2432 1120 2544 c 1,4,-1
 896 2736 l 1,5,6
 800 2816 800 2816 656 2816 c 256,7,8
 512 2816 512 2816 208 2544 c 1,9,-1
 208 2848 l 1,10,11
 480 3088 480 3088 656 3088 c 256,12,13
 832 3088 832 3088 960 2976 c 1,14,-1
 1184 2784 l 1,15,16
 1280 2704 1280 2704 1424 2704 c 256,17,18
 1568 2704 1568 2704 1872 2976 c 1,19,-1
 1872 2672 l 1,0,1
1152 1920 m 2,20,21
 1552 1920 1552 1920 1744 1664 c 128,-1,22
 1936 1408 1936 1408 1936 1008 c 2,23,-1
 1936 960 l 2,24,25
 1936 512 1936 512 1736 256 c 128,-1,26
 1536 0 1536 0 1152 0 c 2,27,-1
 912 0 l 2,28,29
 528 0 528 0 344 240 c 128,-1,30
 160 480 160 480 160 960 c 2,31,-1
 160 1008 l 2,32,33
 160 1424 160 1424 360 1672 c 128,-1,34
 560 1920 560 1920 912 1920 c 2,35,-1
 1152 1920 l 2,20,21
512 1008 m 2,36,-1
 512 960 l 2,37,38
 512 576 512 576 616 424 c 128,-1,39
 720 272 720 272 912 272 c 2,40,-1
 1152 272 l 2,41,42
 1344 272 1344 272 1464 448 c 128,-1,43
 1584 624 1584 624 1584 960 c 2,44,-1
 1584 1008 l 2,45,46
 1584 1328 1584 1328 1472 1488 c 128,-1,47
 1360 1648 1360 1648 1152 1648 c 2,48,-1
 912 1648 l 2,49,50
 736 1648 736 1648 624 1496 c 128,-1,51
 512 1344 512 1344 512 1008 c 2,36,-1
EndSplineSet
Validated: 1
EndChar

StartChar: odieresis
Encoding: 246 246 184
Width: 2080
GlyphClass: 2
Flags: W
LayerCount: 2
Fore
SplineSet
240 2544 m 1,0,-1
 240 3024 l 1,1,-1
 736 3024 l 1,2,-1
 736 2544 l 1,3,-1
 240 2544 l 1,0,-1
1248 2544 m 1,4,-1
 1248 3024 l 1,5,-1
 1744 3024 l 1,6,-1
 1744 2544 l 1,7,-1
 1248 2544 l 1,4,-1
1152 1920 m 2,8,9
 1552 1920 1552 1920 1744 1664 c 128,-1,10
 1936 1408 1936 1408 1936 1008 c 2,11,-1
 1936 960 l 2,12,13
 1936 512 1936 512 1736 256 c 128,-1,14
 1536 0 1536 0 1152 0 c 2,15,-1
 912 0 l 2,16,17
 528 0 528 0 344 240 c 128,-1,18
 160 480 160 480 160 960 c 2,19,-1
 160 1008 l 2,20,21
 160 1424 160 1424 360 1672 c 128,-1,22
 560 1920 560 1920 912 1920 c 2,23,-1
 1152 1920 l 2,8,9
512 1008 m 2,24,-1
 512 960 l 2,25,26
 512 576 512 576 616 424 c 128,-1,27
 720 272 720 272 912 272 c 2,28,-1
 1152 272 l 2,29,30
 1344 272 1344 272 1464 448 c 128,-1,31
 1584 624 1584 624 1584 960 c 2,32,-1
 1584 1008 l 2,33,34
 1584 1328 1584 1328 1472 1488 c 128,-1,35
 1360 1648 1360 1648 1152 1648 c 2,36,-1
 912 1648 l 2,37,38
 736 1648 736 1648 624 1496 c 128,-1,39
 512 1344 512 1344 512 1008 c 2,24,-1
EndSplineSet
Validated: 1
EndChar

StartChar: divide
Encoding: 247 247 185
Width: 4096
GlyphClass: 2
Flags: W
LayerCount: 2
Fore
SplineSet
624 1680 m 1,0,-1
 3424 1680 l 1,1,-1
 3424 1424 l 1,2,-1
 624 1424 l 1,3,-1
 624 1680 l 1,0,-1
2048 2672 m 0,4,5
 2272 2672 2272 2672 2272 2432 c 256,6,7
 2272 2192 2272 2192 2048 2192 c 0,8,9
 1808 2192 1808 2192 1808 2432 c 256,10,11
 1808 2672 1808 2672 2048 2672 c 0,4,5
2048 928 m 256,12,13
 2288 928 2288 928 2288 688 c 256,14,15
 2288 448 2288 448 2048 448 c 256,16,17
 1808 448 1808 448 1808 688 c 256,18,19
 1808 928 1808 928 2048 928 c 256,12,13
EndSplineSet
Validated: 1
Substitution2: "'vert' Vertical Alternates (obs) in Hiragana & Katakana lookup 0 subtable" divide.vert
EndChar

StartChar: oslash
Encoding: 248 248 186
Width: 2080
GlyphClass: 2
Flags: W
LayerCount: 2
Fore
SplineSet
1280 1568 m 1,0,1
 1168 1632 1168 1632 1040 1632 c 0,2,3
 832 1632 832 1632 656 1456 c 128,-1,4
 480 1280 480 1280 480 928 c 0,5,6
 480 656 480 656 592 496 c 1,7,-1
 1280 1568 l 1,0,1
448 224 m 1,8,9
 112 528 112 528 112 944 c 0,10,11
 112 1312 112 1312 368 1616 c 128,-1,12
 624 1920 624 1920 1040 1920 c 0,13,14
 1264 1920 1264 1920 1440 1840 c 1,15,-1
 1680 2256 l 1,16,-1
 1856 2144 l 1,17,-1
 1600 1728 l 1,18,19
 1984 1424 1984 1424 1984 928 c 0,20,21
 1984 528 1984 528 1720 264 c 128,-1,22
 1456 0 1456 0 1040 0 c 0,23,24
 768 0 768 0 608 112 c 1,25,-1
 352 -256 l 1,26,-1
 192 -144 l 1,27,-1
 448 224 l 1,8,9
1424 1472 m 1,28,-1
 720 336 l 1,29,30
 880 224 880 224 1040 224 c 0,31,32
 1248 224 1248 224 1424 400 c 128,-1,33
 1600 576 1600 576 1600 944 c 0,34,35
 1600 1280 1600 1280 1424 1472 c 1,28,-1
EndSplineSet
Validated: 1
EndChar

StartChar: ugrave
Encoding: 249 249 187
Width: 2048
GlyphClass: 2
Flags: W
LayerCount: 2
Fore
SplineSet
512 3248 m 1,0,-1
 1056 3248 l 1,1,-1
 1536 2544 l 1,2,-1
 1216 2544 l 1,3,-1
 512 3248 l 1,0,-1
1728 0 m 1,4,-1
 1360 0 l 1,5,-1
 1360 208 l 1,6,7
 1168 0 1168 0 800 0 c 0,8,9
 560 0 560 0 432 136 c 128,-1,10
 304 272 304 272 304 528 c 2,11,-1
 304 1920 l 1,12,-1
 672 1920 l 1,13,-1
 672 544 l 2,14,15
 672 288 672 288 928 288 c 0,16,17
 1168 288 1168 288 1360 576 c 1,18,-1
 1360 1920 l 1,19,-1
 1728 1920 l 1,20,-1
 1728 0 l 1,4,-1
EndSplineSet
Validated: 1
EndChar

StartChar: uacute
Encoding: 250 250 188
Width: 2048
GlyphClass: 2
Flags: W
LayerCount: 2
Fore
SplineSet
1536 3248 m 1,0,-1
 832 2544 l 1,1,-1
 512 2544 l 1,2,-1
 992 3248 l 1,3,-1
 1536 3248 l 1,0,-1
1728 0 m 1,4,-1
 1360 0 l 1,5,-1
 1360 208 l 1,6,7
 1168 0 1168 0 800 0 c 0,8,9
 560 0 560 0 432 136 c 128,-1,10
 304 272 304 272 304 528 c 2,11,-1
 304 1920 l 1,12,-1
 672 1920 l 1,13,-1
 672 544 l 2,14,15
 672 288 672 288 928 288 c 0,16,17
 1168 288 1168 288 1360 576 c 1,18,-1
 1360 1920 l 1,19,-1
 1728 1920 l 1,20,-1
 1728 0 l 1,4,-1
EndSplineSet
Validated: 1
EndChar

StartChar: ucircumflex
Encoding: 251 251 189
Width: 2048
GlyphClass: 2
Flags: W
LayerCount: 2
Fore
SplineSet
944 3248 m 1,0,-1
 1104 3248 l 1,1,-1
 1664 2688 l 1,2,-1
 1456 2544 l 1,3,-1
 1024 2992 l 1,4,-1
 592 2544 l 1,5,-1
 384 2688 l 1,6,-1
 944 3248 l 1,0,-1
1728 0 m 1,7,-1
 1360 0 l 1,8,-1
 1360 208 l 1,9,10
 1168 0 1168 0 800 0 c 0,11,12
 560 0 560 0 432 136 c 128,-1,13
 304 272 304 272 304 528 c 2,14,-1
 304 1920 l 1,15,-1
 672 1920 l 1,16,-1
 672 544 l 2,17,18
 672 288 672 288 928 288 c 0,19,20
 1168 288 1168 288 1360 576 c 1,21,-1
 1360 1920 l 1,22,-1
 1728 1920 l 1,23,-1
 1728 0 l 1,7,-1
EndSplineSet
Validated: 1
EndChar

StartChar: udieresis
Encoding: 252 252 190
Width: 2048
GlyphClass: 2
Flags: W
LayerCount: 2
Fore
SplineSet
240 2544 m 1,0,-1
 240 3024 l 1,1,-1
 720 3024 l 1,2,-1
 720 2544 l 1,3,-1
 240 2544 l 1,0,-1
1232 2544 m 1,4,-1
 1232 3024 l 1,5,-1
 1712 3024 l 1,6,-1
 1712 2544 l 1,7,-1
 1232 2544 l 1,4,-1
1728 0 m 1,8,-1
 1360 0 l 1,9,-1
 1360 208 l 1,10,11
 1168 0 1168 0 800 0 c 0,12,13
 560 0 560 0 432 136 c 128,-1,14
 304 272 304 272 304 528 c 2,15,-1
 304 1920 l 1,16,-1
 672 1920 l 1,17,-1
 672 544 l 2,18,19
 672 288 672 288 928 288 c 0,20,21
 1168 288 1168 288 1360 576 c 1,22,-1
 1360 1920 l 1,23,-1
 1728 1920 l 1,24,-1
 1728 0 l 1,8,-1
EndSplineSet
Validated: 1
EndChar

StartChar: yacute
Encoding: 253 253 191
Width: 1952
GlyphClass: 2
Flags: W
LayerCount: 2
Fore
SplineSet
1456 3248 m 1,0,-1
 800 2544 l 1,1,-1
 496 2544 l 1,2,-1
 944 3248 l 1,3,-1
 1456 3248 l 1,0,-1
1776 1920 m 1,4,-1
 848 -576 l 1,5,-1
 480 -576 l 1,6,-1
 752 160 l 1,7,-1
 192 1920 l 1,8,-1
 544 1920 l 1,9,-1
 944 608 l 1,10,-1
 1408 1920 l 1,11,-1
 1776 1920 l 1,4,-1
EndSplineSet
Validated: 1
EndChar

StartChar: thorn
Encoding: 254 254 192
Width: 2032
GlyphClass: 2
Flags: W
LayerCount: 2
Fore
SplineSet
272 -464 m 1,0,-1
 272 2720 l 1,1,-1
 576 2720 l 1,2,-1
 576 1920 l 1,3,4
 864 2128 864 2128 1136 2128 c 0,5,6
 1472 2128 1472 2128 1680 1872 c 128,-1,7
 1888 1616 1888 1616 1888 1152 c 0,8,9
 1888 656 1888 656 1664 424 c 128,-1,10
 1440 192 1440 192 1120 192 c 0,11,12
 832 192 832 192 576 368 c 1,13,-1
 576 -464 l 1,14,-1
 272 -464 l 1,0,-1
1120 512 m 0,15,16
 1536 512 1536 512 1536 1152 c 256,17,18
 1536 1792 1536 1792 1120 1808 c 1,19,20
 784 1808 784 1808 576 1536 c 1,21,-1
 576 688 l 1,22,23
 816 512 816 512 1120 512 c 0,15,16
EndSplineSet
Validated: 1
EndChar

StartChar: ydieresis
Encoding: 255 255 193
Width: 1952
GlyphClass: 2
Flags: W
LayerCount: 2
Fore
SplineSet
240 2544 m 1,0,-1
 240 3024 l 1,1,-1
 688 3024 l 1,2,-1
 688 2544 l 1,3,-1
 240 2544 l 1,0,-1
1184 2544 m 1,4,-1
 1184 3024 l 1,5,-1
 1632 3024 l 1,6,-1
 1632 2544 l 1,7,-1
 1184 2544 l 1,4,-1
1776 1920 m 1,8,-1
 848 -576 l 1,9,-1
 480 -576 l 1,10,-1
 752 160 l 1,11,-1
 192 1920 l 1,12,-1
 544 1920 l 1,13,-1
 944 608 l 1,14,-1
 1408 1920 l 1,15,-1
 1776 1920 l 1,8,-1
EndSplineSet
Validated: 1
EndChar

StartChar: Amacron
Encoding: 256 256 194
Width: 2592
GlyphClass: 2
Flags: W
LayerCount: 2
Fore
SplineSet
1968 2992 m 1,0,-1
 592 2992 l 1,1,-1
 592 3264 l 1,2,-1
 1968 3264 l 1,3,-1
 1968 2992 l 1,0,-1
2064 0 m 1,4,-1
 1776 0 l 1,5,-1
 1600 672 l 1,6,-1
 960 672 l 1,7,-1
 784 0 l 1,8,-1
 496 0 l 1,9,-1
 1120 2352 l 1,10,-1
 1440 2352 l 1,11,-1
 2064 0 l 1,4,-1
1024 960 m 1,12,-1
 1536 960 l 1,13,-1
 1280 1904 l 1,14,-1
 1024 960 l 1,12,-1
EndSplineSet
Validated: 1
EndChar

StartChar: amacron
Encoding: 257 257 195
Width: 1952
GlyphClass: 2
Flags: W
LayerCount: 2
Fore
SplineSet
1760 2992 m 1,0,-1
 192 2992 l 1,1,-1
 192 3264 l 1,2,-1
 1760 3264 l 1,3,-1
 1760 2992 l 1,0,-1
1744 0 m 1,4,-1
 1456 0 l 1,5,-1
 1392 176 l 1,6,7
 1152 0 1152 0 768 0 c 0,8,9
 192 0 192 0 192 608 c 0,10,11
 192 1280 192 1280 1040 1280 c 2,12,-1
 1360 1280 l 1,13,-1
 1360 1392 l 2,14,15
 1360 1552 1360 1552 1272 1624 c 128,-1,16
 1184 1696 1184 1696 1040 1696 c 2,17,-1
 768 1696 l 2,18,19
 496 1696 496 1696 336 1568 c 1,20,-1
 208 1760 l 1,21,22
 464 1920 464 1920 752 1920 c 2,23,-1
 1104 1920 l 2,24,25
 1312 1920 1312 1920 1488 1808 c 128,-1,26
 1664 1696 1664 1696 1664 1392 c 2,27,-1
 1664 416 l 1,28,-1
 1744 0 l 1,4,-1
1360 1040 m 1,29,-1
 1040 1040 l 2,30,31
 544 1040 544 1040 528 592 c 1,32,33
 528 224 528 224 848 224 c 0,34,35
 1104 224 1104 224 1360 432 c 1,36,-1
 1360 1040 l 1,29,-1
EndSplineSet
Validated: 1
EndChar

StartChar: Abreve
Encoding: 258 258 196
Width: 2592
GlyphClass: 2
Flags: W
LayerCount: 2
Fore
SplineSet
2032 3520 m 1,0,1
 2032 2704 2032 2704 1328 2704 c 0,2,3
 592 2704 592 2704 592 3520 c 1,4,-1
 800 3520 l 1,5,6
 800 2944 800 2944 1328 2944 c 1,7,8
 1840 2960 1840 2960 1840 3520 c 1,9,-1
 2032 3520 l 1,0,1
2096 0 m 1,10,-1
 1808 0 l 1,11,-1
 1616 672 l 1,12,-1
 976 672 l 1,13,-1
 800 0 l 1,14,-1
 528 0 l 1,15,-1
 1152 2352 l 1,16,-1
 1456 2352 l 1,17,-1
 2096 0 l 1,10,-1
1056 960 m 1,18,-1
 1552 960 l 1,19,-1
 1312 1904 l 1,20,-1
 1056 960 l 1,18,-1
EndSplineSet
Validated: 1
EndChar

StartChar: abreve
Encoding: 259 259 197
Width: 1952
GlyphClass: 2
Flags: W
LayerCount: 2
Fore
SplineSet
1792 3520 m 1,0,1
 1792 2704 1792 2704 992 2704 c 0,2,3
 160 2704 160 2704 160 3520 c 1,4,-1
 400 3520 l 1,5,6
 400 2944 400 2944 992 2944 c 1,7,8
 1568 2960 1568 2960 1584 3520 c 1,9,-1
 1792 3520 l 1,0,1
1744 0 m 1,10,-1
 1456 0 l 1,11,-1
 1392 176 l 1,12,13
 1152 0 1152 0 768 0 c 0,14,15
 192 0 192 0 192 608 c 0,16,17
 192 1280 192 1280 1040 1280 c 2,18,-1
 1360 1280 l 1,19,-1
 1360 1392 l 2,20,21
 1360 1552 1360 1552 1272 1624 c 128,-1,22
 1184 1696 1184 1696 1040 1696 c 2,23,-1
 768 1696 l 2,24,25
 496 1696 496 1696 336 1568 c 1,26,-1
 208 1760 l 1,27,28
 464 1920 464 1920 752 1920 c 2,29,-1
 1104 1920 l 2,30,31
 1312 1920 1312 1920 1488 1808 c 128,-1,32
 1664 1696 1664 1696 1664 1392 c 2,33,-1
 1664 416 l 1,34,-1
 1744 0 l 1,10,-1
1360 1040 m 1,35,-1
 1040 1040 l 2,36,37
 544 1040 544 1040 528 592 c 1,38,39
 528 224 528 224 848 224 c 0,40,41
 1104 224 1104 224 1360 432 c 1,42,-1
 1360 1040 l 1,35,-1
EndSplineSet
Validated: 1
EndChar

StartChar: Aogonek
Encoding: 260 260 198
Width: 2736
GlyphClass: 2
Flags: W
LayerCount: 2
Fore
SplineSet
2528 -576 m 1,0,-1
 2128 -576 l 2,1,2
 1744 -576 1744 -576 1744 -208 c 2,3,-1
 1744 0 l 1,4,-1
 1872 0 l 1,5,-1
 1680 880 l 1,6,-1
 1008 880 l 1,7,-1
 816 0 l 1,8,-1
 528 0 l 1,9,-1
 1184 3104 l 1,10,-1
 1520 3104 l 1,11,-1
 2176 0 l 1,12,-1
 1984 0 l 1,13,-1
 1984 -208 l 2,14,15
 1984 -352 1984 -352 2128 -352 c 2,16,-1
 2528 -352 l 1,17,-1
 2528 -576 l 1,0,-1
1088 1264 m 1,18,-1
 1616 1264 l 1,19,-1
 1344 2496 l 1,20,-1
 1088 1264 l 1,18,-1
EndSplineSet
Validated: 1
EndChar

StartChar: aogonek
Encoding: 261 261 199
Width: 2160
GlyphClass: 2
Flags: W
LayerCount: 2
Fore
SplineSet
2080 -576 m 1,0,-1
 1920 -576 l 2,1,2
 1504 -576 1504 -576 1504 -208 c 2,3,-1
 1504 176 l 1,4,5
 1264 0 1264 0 848 0 c 0,6,7
 208 0 208 0 208 608 c 0,8,9
 208 1280 208 1280 1152 1280 c 2,10,-1
 1504 1280 l 1,11,-1
 1504 1392 l 2,12,13
 1504 1552 1504 1552 1408 1624 c 128,-1,14
 1312 1696 1312 1696 1152 1696 c 2,15,-1
 848 1696 l 2,16,17
 560 1696 560 1696 368 1568 c 1,18,-1
 224 1760 l 1,19,20
 512 1920 512 1920 832 1920 c 2,21,-1
 1216 1920 l 2,22,23
 1456 1920 1456 1920 1648 1808 c 128,-1,24
 1840 1696 1840 1696 1840 1392 c 2,25,-1
 1840 416 l 1,26,-1
 1920 0 l 1,27,-1
 1760 0 l 1,28,-1
 1760 -208 l 2,29,30
 1760 -352 1760 -352 1920 -352 c 2,31,-1
 2080 -352 l 1,32,-1
 2080 -576 l 1,0,-1
1504 1040 m 1,33,-1
 1152 1040 l 2,34,35
 592 1040 592 1040 576 592 c 1,36,37
 576 224 576 224 928 224 c 0,38,39
 1216 224 1216 224 1504 432 c 1,40,-1
 1504 1040 l 1,33,-1
EndSplineSet
Validated: 1
EndChar

StartChar: Cacute
Encoding: 262 262 200
Width: 2720
GlyphClass: 2
Flags: W
LayerCount: 2
Fore
SplineSet
2080 752 m 1,0,1
 2080 432 2080 432 1912 216 c 128,-1,2
 1744 0 1744 0 1520 0 c 2,3,-1
 1280 0 l 2,4,5
 624 0 624 0 624 1168 c 2,6,-1
 624 1248 l 2,7,8
 624 2352 624 2352 1280 2352 c 2,9,-1
 1504 2352 l 2,10,11
 1760 2352 1760 2352 1920 2152 c 128,-1,12
 2080 1952 2080 1952 2080 1600 c 1,13,-1
 1808 1600 l 1,14,15
 1808 1776 1808 1776 1720 1920 c 128,-1,16
 1632 2064 1632 2064 1392 2064 c 0,17,18
 928 2064 928 2064 928 1264 c 2,19,-1
 928 1168 l 2,20,21
 928 288 928 288 1392 288 c 0,22,23
 1600 288 1600 288 1696 424 c 128,-1,24
 1792 560 1792 560 1808 752 c 1,25,-1
 2080 752 l 1,0,1
1824 3520 m 1,26,-1
 1248 2720 l 1,27,-1
 976 2720 l 1,28,-1
 1376 3520 l 1,29,-1
 1824 3520 l 1,26,-1
EndSplineSet
Validated: 1
EndChar

StartChar: cacute
Encoding: 263 263 201
Width: 2048
GlyphClass: 2
Flags: W
LayerCount: 2
Fore
SplineSet
1840 576 m 1,0,1
 1840 336 1840 336 1656 168 c 128,-1,2
 1472 0 1472 0 1216 0 c 2,3,-1
 944 0 l 2,4,5
 208 0 208 0 208 896 c 2,6,-1
 208 1040 l 2,7,8
 208 1904 208 1904 960 1920 c 1,9,-1
 1200 1920 l 2,10,11
 1488 1920 1488 1920 1664 1752 c 128,-1,12
 1840 1584 1840 1584 1840 1328 c 1,13,-1
 1536 1328 l 1,14,15
 1536 1456 1536 1456 1440 1552 c 128,-1,16
 1344 1648 1344 1648 1072 1648 c 0,17,18
 544 1648 544 1648 544 1056 c 2,19,-1
 544 912 l 2,20,21
 544 272 544 272 1072 272 c 0,22,23
 1312 272 1312 272 1416 352 c 128,-1,24
 1520 432 1520 432 1536 576 c 1,25,-1
 1840 576 l 1,0,1
1504 3520 m 1,26,-1
 864 2720 l 1,27,-1
 560 2720 l 1,28,-1
 1008 3520 l 1,29,-1
 1504 3520 l 1,26,-1
EndSplineSet
Validated: 1
EndChar

StartChar: Ccircumflex
Encoding: 264 264 202
Width: 2720
GlyphClass: 2
Flags: W
LayerCount: 2
Fore
SplineSet
2144 752 m 1,0,1
 2144 432 2144 432 1984 216 c 128,-1,2
 1824 0 1824 0 1584 0 c 2,3,-1
 1344 0 l 2,4,5
 704 0 704 0 704 1168 c 2,6,-1
 704 1248 l 2,7,8
 704 2352 704 2352 1360 2352 c 2,9,-1
 1584 2352 l 2,10,11
 1824 2352 1824 2352 1984 2152 c 128,-1,12
 2144 1952 2144 1952 2144 1600 c 1,13,-1
 1872 1600 l 1,14,15
 1872 1776 1872 1776 1784 1920 c 128,-1,16
 1696 2064 1696 2064 1456 2064 c 0,17,18
 992 2064 992 2064 992 1264 c 2,19,-1
 992 1168 l 2,20,21
 992 288 992 288 1456 288 c 0,22,23
 1680 288 1680 288 1768 424 c 128,-1,24
 1856 560 1856 560 1872 752 c 1,25,-1
 2144 752 l 1,0,1
1296 3520 m 1,26,-1
 1424 3520 l 1,27,-1
 1888 2832 l 1,28,-1
 1712 2672 l 1,29,-1
 1360 3216 l 1,30,-1
 1008 2672 l 1,31,-1
 832 2832 l 1,32,-1
 1296 3520 l 1,26,-1
EndSplineSet
Validated: 1
EndChar

StartChar: ccircumflex
Encoding: 265 265 203
Width: 2048
GlyphClass: 2
Flags: W
LayerCount: 2
Fore
SplineSet
944 3520 m 1,0,-1
 1088 3520 l 1,1,-1
 1600 2832 l 1,2,-1
 1408 2672 l 1,3,-1
 1008 3216 l 1,4,-1
 608 2672 l 1,5,-1
 416 2832 l 1,6,-1
 944 3520 l 1,0,-1
1840 576 m 1,7,8
 1840 336 1840 336 1656 168 c 128,-1,9
 1472 0 1472 0 1216 0 c 2,10,-1
 944 0 l 2,11,12
 208 0 208 0 208 896 c 2,13,-1
 208 1040 l 2,14,15
 208 1904 208 1904 960 1920 c 1,16,-1
 1200 1920 l 2,17,18
 1488 1920 1488 1920 1664 1752 c 128,-1,19
 1840 1584 1840 1584 1840 1328 c 1,20,-1
 1536 1328 l 1,21,22
 1536 1456 1536 1456 1440 1552 c 128,-1,23
 1344 1648 1344 1648 1072 1648 c 0,24,25
 544 1648 544 1648 544 1056 c 2,26,-1
 544 912 l 2,27,28
 544 272 544 272 1072 272 c 0,29,30
 1312 272 1312 272 1416 352 c 128,-1,31
 1520 432 1520 432 1536 576 c 1,32,-1
 1840 576 l 1,7,8
EndSplineSet
Validated: 1
EndChar

StartChar: Cdotaccent
Encoding: 266 266 204
Width: 2720
GlyphClass: 2
Flags: W
LayerCount: 2
Fore
SplineSet
2448 752 m 1,0,1
 2448 432 2448 432 2200 216 c 128,-1,2
 1952 0 1952 0 1616 0 c 2,3,-1
 1264 0 l 2,4,5
 288 0 288 0 288 1168 c 2,6,-1
 288 1248 l 2,7,8
 288 2352 288 2352 1264 2352 c 2,9,-1
 1600 2352 l 2,10,11
 1984 2352 1984 2352 2216 2152 c 128,-1,12
 2448 1952 2448 1952 2448 1600 c 1,13,-1
 2048 1600 l 1,14,15
 2048 1776 2048 1776 1920 1920 c 128,-1,16
 1792 2064 1792 2064 1424 2064 c 0,17,18
 720 2064 720 2064 720 1264 c 2,19,-1
 720 1168 l 2,20,21
 720 288 720 288 1424 288 c 0,22,23
 1744 288 1744 288 1880 424 c 128,-1,24
 2016 560 2016 560 2048 752 c 1,25,-1
 2448 752 l 1,0,1
1104 2720 m 1,26,-1
 1104 3536 l 1,27,-1
 1744 3536 l 1,28,-1
 1744 2720 l 1,29,-1
 1104 2720 l 1,26,-1
EndSplineSet
Validated: 1
EndChar

StartChar: cdotaccent
Encoding: 267 267 205
Width: 2048
GlyphClass: 2
Flags: W
LayerCount: 2
Fore
SplineSet
784 2720 m 1,0,-1
 784 3536 l 1,1,-1
 1264 3536 l 1,2,-1
 1264 2720 l 1,3,-1
 784 2720 l 1,0,-1
1840 576 m 1,4,5
 1840 336 1840 336 1656 168 c 128,-1,6
 1472 0 1472 0 1216 0 c 2,7,-1
 944 0 l 2,8,9
 208 0 208 0 208 896 c 2,10,-1
 208 1040 l 2,11,12
 208 1904 208 1904 960 1920 c 1,13,-1
 1200 1920 l 2,14,15
 1488 1920 1488 1920 1664 1752 c 128,-1,16
 1840 1584 1840 1584 1840 1328 c 1,17,-1
 1536 1328 l 1,18,19
 1536 1456 1536 1456 1440 1552 c 128,-1,20
 1344 1648 1344 1648 1072 1648 c 0,21,22
 544 1648 544 1648 544 1056 c 2,23,-1
 544 912 l 2,24,25
 544 272 544 272 1072 272 c 0,26,27
 1312 272 1312 272 1416 352 c 128,-1,28
 1520 432 1520 432 1536 576 c 1,29,-1
 1840 576 l 1,4,5
EndSplineSet
Validated: 1
EndChar

StartChar: Ccaron
Encoding: 268 268 206
Width: 2720
GlyphClass: 2
Flags: W
LayerCount: 2
Fore
SplineSet
2016 752 m 1,0,1
 2016 432 2016 432 1856 216 c 128,-1,2
 1696 0 1696 0 1456 0 c 2,3,-1
 1216 0 l 2,4,5
 576 0 576 0 576 1168 c 2,6,-1
 576 1248 l 2,7,8
 576 2352 576 2352 1232 2352 c 2,9,-1
 1456 2352 l 2,10,11
 1696 2352 1696 2352 1856 2152 c 128,-1,12
 2016 1952 2016 1952 2016 1600 c 1,13,-1
 1744 1600 l 1,14,15
 1744 1776 1744 1776 1664 1920 c 128,-1,16
 1584 2064 1584 2064 1328 2064 c 0,17,18
 864 2064 864 2064 864 1264 c 2,19,-1
 864 1168 l 2,20,21
 864 288 864 288 1328 288 c 0,22,23
 1552 288 1552 288 1640 424 c 128,-1,24
 1728 560 1728 560 1744 752 c 1,25,-1
 2016 752 l 1,0,1
1520 2656 m 1,26,-1
 1376 2656 l 1,27,-1
 928 3344 l 1,28,-1
 1088 3520 l 1,29,-1
 1440 2960 l 1,30,-1
 1808 3520 l 1,31,-1
 1968 3344 l 1,32,-1
 1520 2656 l 1,26,-1
EndSplineSet
Validated: 1
EndChar

StartChar: ccaron
Encoding: 269 269 207
Width: 2048
GlyphClass: 2
Flags: W
LayerCount: 2
Fore
SplineSet
1184 2656 m 1,0,-1
 1024 2656 l 1,1,-1
 512 3344 l 1,2,-1
 704 3520 l 1,3,-1
 1104 2960 l 1,4,-1
 1504 3520 l 1,5,-1
 1696 3344 l 1,6,-1
 1184 2656 l 1,0,-1
1840 576 m 1,7,8
 1840 336 1840 336 1656 168 c 128,-1,9
 1472 0 1472 0 1216 0 c 2,10,-1
 944 0 l 2,11,12
 208 0 208 0 208 896 c 2,13,-1
 208 1040 l 2,14,15
 208 1904 208 1904 960 1920 c 1,16,-1
 1200 1920 l 2,17,18
 1488 1920 1488 1920 1664 1752 c 128,-1,19
 1840 1584 1840 1584 1840 1328 c 1,20,-1
 1536 1328 l 1,21,22
 1536 1456 1536 1456 1440 1552 c 128,-1,23
 1344 1648 1344 1648 1072 1648 c 0,24,25
 544 1648 544 1648 544 1056 c 2,26,-1
 544 912 l 2,27,28
 544 272 544 272 1072 272 c 0,29,30
 1312 272 1312 272 1416 352 c 128,-1,31
 1520 432 1520 432 1536 576 c 1,32,-1
 1840 576 l 1,7,8
EndSplineSet
Validated: 1
EndChar

StartChar: Dcaron
Encoding: 270 270 208
Width: 2656
GlyphClass: 2
Flags: W
LayerCount: 2
Fore
SplineSet
288 2352 m 1,0,-1
 1200 2352 l 2,1,2
 2352 2352 2352 2352 2384 1184 c 1,3,4
 2384 0 2384 0 1184 0 c 2,5,-1
 288 0 l 1,6,-1
 288 2352 l 1,0,-1
624 224 m 1,7,-1
 1184 224 l 2,8,9
 2016 224 2016 224 2016 1184 c 0,10,11
 2016 2128 2016 2128 1184 2128 c 2,12,-1
 624 2128 l 1,13,-1
 624 224 l 1,7,-1
1408 2656 m 1,14,-1
 1280 2656 l 1,15,-1
 832 3344 l 1,16,-1
 992 3520 l 1,17,-1
 1344 2960 l 1,18,-1
 1696 3520 l 1,19,-1
 1856 3344 l 1,20,-1
 1408 2656 l 1,14,-1
EndSplineSet
Validated: 1
EndChar

StartChar: dcaron
Encoding: 271 271 209
Width: 2480
GlyphClass: 2
Flags: W
LayerCount: 2
Fore
SplineSet
1344 0 m 1,0,-1
 1072 0 l 1,1,-1
 1072 128 l 1,2,3
 960 0 960 0 832 0 c 2,4,-1
 672 0 l 2,5,6
 192 0 192 0 192 1088 c 2,7,-1
 192 1248 l 2,8,9
 192 2352 192 2352 672 2352 c 2,10,-1
 832 2352 l 2,11,12
 976 2352 976 2352 1072 2224 c 1,13,-1
 1072 3520 l 1,14,-1
 1344 3520 l 1,15,-1
 1344 0 l 1,0,-1
1072 464 m 1,16,-1
 1072 1872 l 1,17,18
 976 2064 976 2064 832 2064 c 0,19,20
 464 2064 464 2064 464 1248 c 2,21,-1
 464 1088 l 2,22,23
 464 288 464 288 816 288 c 0,24,25
 960 288 960 288 1072 464 c 1,16,-1
2080 3104 m 1,26,-1
 2080 2512 l 2,27,28
 2080 1760 2080 1760 1712 1728 c 1,29,-1
 1712 2016 l 1,30,31
 1888 2016 1888 2016 1888 2528 c 1,32,-1
 1712 2528 l 1,33,-1
 1712 3104 l 1,34,-1
 2080 3104 l 1,26,-1
EndSplineSet
Validated: 1
EndChar

StartChar: Dcroat
Encoding: 272 272 210
Width: 2656
GlyphClass: 2
Flags: W
LayerCount: 2
Fore
SplineSet
288 3104 m 1,0,-1
 1200 3104 l 2,1,2
 2368 3104 2368 3104 2384 1552 c 1,3,4
 2384 0 2384 0 1184 0 c 2,5,-1
 288 0 l 1,6,-1
 288 1424 l 1,7,-1
 48 1424 l 1,8,-1
 48 1696 l 1,9,-1
 288 1696 l 1,10,-1
 288 3104 l 1,0,-1
624 304 m 1,11,-1
 1184 304 l 2,12,13
 2032 304 2032 304 2032 1552 c 0,14,15
 2032 2816 2032 2816 1184 2816 c 2,16,-1
 624 2816 l 1,17,-1
 624 1696 l 1,18,-1
 1280 1696 l 1,19,-1
 1280 1424 l 1,20,-1
 624 1424 l 1,21,-1
 624 304 l 1,11,-1
EndSplineSet
Validated: 1
EndChar

StartChar: dcroat
Encoding: 273 273 211
Width: 2192
GlyphClass: 2
Flags: W
LayerCount: 2
Fore
SplineSet
1184 0 m 1,0,-1
 944 0 l 1,1,-1
 944 128 l 1,2,3
 848 0 848 0 736 0 c 2,4,-1
 592 0 l 2,5,6
 160 0 160 0 160 1088 c 2,7,-1
 160 1248 l 2,8,9
 160 2352 160 2352 592 2352 c 2,10,-1
 736 2352 l 2,11,12
 864 2352 864 2352 944 2224 c 1,13,-1
 944 2736 l 1,14,-1
 496 2736 l 1,15,-1
 496 3008 l 1,16,-1
 944 3008 l 1,17,-1
 944 3520 l 1,18,-1
 1184 3520 l 1,19,-1
 1184 3008 l 1,20,-1
 1664 3008 l 1,21,-1
 1664 2736 l 1,22,-1
 1184 2736 l 1,23,-1
 1184 0 l 1,0,-1
944 464 m 1,24,-1
 944 1872 l 1,25,26
 864 2064 864 2064 736 2064 c 0,27,28
 416 2064 416 2064 416 1248 c 2,29,-1
 416 1088 l 2,30,31
 416 288 416 288 720 288 c 0,32,33
 848 288 848 288 944 464 c 1,24,-1
EndSplineSet
Validated: 1
EndChar

StartChar: Emacron
Encoding: 274 274 212
Width: 2320
GlyphClass: 2
Flags: W
LayerCount: 2
Fore
SplineSet
1808 2352 m 1,0,-1
 1808 2080 l 1,1,-1
 784 2080 l 1,2,-1
 784 1376 l 1,3,-1
 1632 1376 l 1,4,-1
 1632 1088 l 1,5,-1
 784 1088 l 1,6,-1
 784 272 l 1,7,-1
 1808 272 l 1,8,-1
 1808 0 l 1,9,-1
 528 0 l 1,10,-1
 528 2352 l 1,11,-1
 1808 2352 l 1,0,-1
1776 2992 m 1,12,-1
 528 2992 l 1,13,-1
 528 3264 l 1,14,-1
 1776 3264 l 1,15,-1
 1776 2992 l 1,12,-1
EndSplineSet
Validated: 1
EndChar

StartChar: emacron
Encoding: 275 275 213
Width: 2048
GlyphClass: 2
Flags: W
LayerCount: 2
Fore
SplineSet
592 1056 m 1,0,1
 584 976 584 976 584 900 c 128,-1,2
 584 824 584 824 592 752 c 0,3,4
 624 464 624 464 752 344 c 128,-1,5
 880 224 880 224 1040 224 c 256,6,7
 1200 224 1200 224 1320 288 c 128,-1,8
 1440 352 1440 352 1536 512 c 1,9,-1
 1792 368 l 1,10,11
 1696 192 1696 192 1536 96 c 128,-1,12
 1376 0 1376 0 1136 0 c 2,13,-1
 960 0 l 2,14,15
 640 0 640 0 440 208 c 128,-1,16
 240 416 240 416 240 896 c 2,17,-1
 240 1088 l 2,18,19
 240 1536 240 1536 448 1728 c 128,-1,20
 656 1920 656 1920 944 1920 c 2,21,-1
 1136 1920 l 2,22,23
 1408 1920 1408 1920 1608 1728 c 128,-1,24
 1808 1536 1808 1536 1808 1280 c 2,25,-1
 1808 1056 l 1,26,-1
 592 1056 l 1,0,1
1472 1280 m 1,27,28
 1456 1456 1456 1456 1360 1568 c 128,-1,29
 1264 1680 1264 1680 1040 1680 c 0,30,31
 800 1680 800 1680 712 1560 c 128,-1,32
 624 1440 624 1440 608 1280 c 1,33,-1
 1472 1280 l 1,27,28
1840 2992 m 1,34,-1
 208 2992 l 1,35,-1
 208 3264 l 1,36,-1
 1840 3264 l 1,37,-1
 1840 2992 l 1,34,-1
EndSplineSet
Validated: 1
EndChar

StartChar: Ebreve
Encoding: 276 276 214
Width: 2320
GlyphClass: 2
Flags: W
LayerCount: 2
Fore
SplineSet
2128 2352 m 1,0,-1
 2128 2080 l 1,1,-1
 592 2080 l 1,2,-1
 592 1376 l 1,3,-1
 1872 1376 l 1,4,-1
 1872 1088 l 1,5,-1
 592 1088 l 1,6,-1
 592 272 l 1,7,-1
 2128 272 l 1,8,-1
 2128 0 l 1,9,-1
 208 0 l 1,10,-1
 208 2352 l 1,11,-1
 2128 2352 l 1,0,-1
2128 3520 m 1,12,13
 2128 2704 2128 2704 1168 2704 c 0,14,15
 192 2704 192 2704 192 3520 c 1,16,-1
 464 3520 l 1,17,18
 480 2944 480 2944 1168 2944 c 1,19,20
 1856 2960 1856 2960 1872 3520 c 1,21,-1
 2128 3520 l 1,12,13
EndSplineSet
Validated: 1
EndChar

StartChar: ebreve
Encoding: 277 277 215
Width: 2048
GlyphClass: 2
Flags: W
LayerCount: 2
Fore
SplineSet
592 1056 m 1,0,1
 584 976 584 976 584 900 c 128,-1,2
 584 824 584 824 592 752 c 0,3,4
 624 464 624 464 752 344 c 128,-1,5
 880 224 880 224 1040 224 c 256,6,7
 1200 224 1200 224 1320 288 c 128,-1,8
 1440 352 1440 352 1536 512 c 1,9,-1
 1792 368 l 1,10,11
 1696 192 1696 192 1536 96 c 128,-1,12
 1376 0 1376 0 1136 0 c 2,13,-1
 960 0 l 2,14,15
 640 0 640 0 440 208 c 128,-1,16
 240 416 240 416 240 896 c 2,17,-1
 240 1088 l 2,18,19
 240 1536 240 1536 448 1728 c 128,-1,20
 656 1920 656 1920 944 1920 c 2,21,-1
 1136 1920 l 2,22,23
 1408 1920 1408 1920 1608 1728 c 128,-1,24
 1808 1536 1808 1536 1808 1280 c 2,25,-1
 1808 1056 l 1,26,-1
 592 1056 l 1,0,1
1472 1280 m 1,27,28
 1456 1456 1456 1456 1360 1568 c 128,-1,29
 1264 1680 1264 1680 1040 1680 c 0,30,31
 800 1680 800 1680 712 1560 c 128,-1,32
 624 1440 624 1440 608 1280 c 1,33,-1
 1472 1280 l 1,27,28
1888 3520 m 1,34,35
 1888 2704 1888 2704 1040 2704 c 0,36,37
 160 2704 160 2704 160 3520 c 1,38,-1
 416 3520 l 1,39,40
 416 2944 416 2944 1040 2944 c 1,41,42
 1648 2960 1648 2960 1664 3520 c 1,43,-1
 1888 3520 l 1,34,35
EndSplineSet
Validated: 1
EndChar

StartChar: Edotaccent
Encoding: 278 278 216
Width: 2320
GlyphClass: 2
Flags: W
LayerCount: 2
Fore
SplineSet
2128 2352 m 1,0,-1
 2128 2080 l 1,1,-1
 592 2080 l 1,2,-1
 592 1376 l 1,3,-1
 1872 1376 l 1,4,-1
 1872 1088 l 1,5,-1
 592 1088 l 1,6,-1
 592 272 l 1,7,-1
 2128 272 l 1,8,-1
 2128 0 l 1,9,-1
 208 0 l 1,10,-1
 208 2352 l 1,11,-1
 2128 2352 l 1,0,-1
896 2720 m 1,12,-1
 896 3536 l 1,13,-1
 1440 3536 l 1,14,-1
 1440 2720 l 1,15,-1
 896 2720 l 1,12,-1
EndSplineSet
Validated: 1
EndChar

StartChar: edotaccent
Encoding: 279 279 217
Width: 2048
GlyphClass: 2
Flags: W
LayerCount: 2
Fore
SplineSet
592 1056 m 1,0,1
 584 976 584 976 584 900 c 128,-1,2
 584 824 584 824 592 752 c 0,3,4
 624 464 624 464 752 344 c 128,-1,5
 880 224 880 224 1040 224 c 256,6,7
 1200 224 1200 224 1320 288 c 128,-1,8
 1440 352 1440 352 1536 512 c 1,9,-1
 1792 368 l 1,10,11
 1696 192 1696 192 1536 96 c 128,-1,12
 1376 0 1376 0 1136 0 c 2,13,-1
 960 0 l 2,14,15
 640 0 640 0 440 208 c 128,-1,16
 240 416 240 416 240 896 c 2,17,-1
 240 1088 l 2,18,19
 240 1536 240 1536 448 1728 c 128,-1,20
 656 1920 656 1920 944 1920 c 2,21,-1
 1136 1920 l 2,22,23
 1408 1920 1408 1920 1608 1728 c 128,-1,24
 1808 1536 1808 1536 1808 1280 c 2,25,-1
 1808 1056 l 1,26,-1
 592 1056 l 1,0,1
1472 1280 m 1,27,28
 1456 1456 1456 1456 1360 1568 c 128,-1,29
 1264 1680 1264 1680 1040 1680 c 0,30,31
 800 1680 800 1680 712 1560 c 128,-1,32
 624 1440 624 1440 608 1280 c 1,33,-1
 1472 1280 l 1,27,28
768 2720 m 1,34,-1
 768 3536 l 1,35,-1
 1248 3536 l 1,36,-1
 1248 2720 l 1,37,-1
 768 2720 l 1,34,-1
EndSplineSet
Validated: 1
EndChar

StartChar: Eogonek
Encoding: 280 280 218
Width: 2320
GlyphClass: 2
Flags: W
LayerCount: 2
Fore
SplineSet
1616 -576 m 1,0,-1
 1280 -576 l 2,1,2
 944 -576 944 -576 944 -208 c 2,3,-1
 944 0 l 1,4,-1
 256 0 l 1,5,-1
 256 3104 l 1,6,-1
 1536 3104 l 1,7,-1
 1536 2800 l 1,8,-1
 512 2800 l 1,9,-1
 512 1808 l 1,10,-1
 1376 1808 l 1,11,-1
 1376 1504 l 1,12,-1
 512 1504 l 1,13,-1
 512 304 l 1,14,-1
 1536 304 l 1,15,-1
 1536 0 l 1,16,-1
 1152 0 l 1,17,-1
 1152 -208 l 2,18,19
 1152 -352 1152 -352 1280 -352 c 2,20,-1
 1616 -352 l 1,21,-1
 1616 -576 l 1,0,-1
EndSplineSet
Validated: 1
EndChar

StartChar: eogonek
Encoding: 281 281 219
Width: 2048
GlyphClass: 2
Flags: W
LayerCount: 2
Fore
SplineSet
1696 -576 m 1,0,-1
 1296 -576 l 2,1,2
 848 -576 848 -576 848 -192 c 2,3,-1
 848 0 l 1,4,5
 608 32 608 32 424 232 c 128,-1,6
 240 432 240 432 240 896 c 2,7,-1
 240 1088 l 2,8,9
 240 1536 240 1536 448 1728 c 128,-1,10
 656 1920 656 1920 944 1920 c 2,11,-1
 1136 1920 l 2,12,13
 1408 1920 1408 1920 1608 1728 c 128,-1,14
 1808 1536 1808 1536 1808 1280 c 2,15,-1
 1808 1056 l 1,16,-1
 592 1056 l 1,17,18
 584 976 584 976 584 900 c 128,-1,19
 584 824 584 824 592 752 c 0,20,21
 624 464 624 464 752 352 c 128,-1,22
 880 240 880 240 1040 240 c 256,23,24
 1200 240 1200 240 1320 296 c 128,-1,25
 1440 352 1440 352 1536 528 c 1,26,-1
 1792 368 l 1,27,28
 1696 208 1696 208 1536 96 c 128,-1,29
 1376 -16 1376 -16 1136 -16 c 1,30,-1
 1136 -192 l 2,31,32
 1136 -336 1136 -336 1296 -336 c 2,33,-1
 1696 -336 l 1,34,-1
 1696 -576 l 1,0,-1
1472 1280 m 1,35,36
 1456 1456 1456 1456 1360 1568 c 128,-1,37
 1264 1680 1264 1680 1040 1680 c 0,38,39
 800 1680 800 1680 712 1560 c 128,-1,40
 624 1440 624 1440 608 1280 c 1,41,-1
 1472 1280 l 1,35,36
EndSplineSet
Validated: 1
EndChar

StartChar: Ecaron
Encoding: 282 282 220
Width: 2320
GlyphClass: 2
Flags: W
LayerCount: 2
Fore
SplineSet
1808 2352 m 1,0,-1
 1808 2080 l 1,1,-1
 784 2080 l 1,2,-1
 784 1376 l 1,3,-1
 1632 1376 l 1,4,-1
 1632 1088 l 1,5,-1
 784 1088 l 1,6,-1
 784 272 l 1,7,-1
 1808 272 l 1,8,-1
 1808 0 l 1,9,-1
 528 0 l 1,10,-1
 528 2352 l 1,11,-1
 1808 2352 l 1,0,-1
1296 2656 m 1,12,-1
 1184 2656 l 1,13,-1
 784 3344 l 1,14,-1
 928 3520 l 1,15,-1
 1232 2960 l 1,16,-1
 1536 3520 l 1,17,-1
 1680 3344 l 1,18,-1
 1296 2656 l 1,12,-1
EndSplineSet
Validated: 1
EndChar

StartChar: ecaron
Encoding: 283 283 221
Width: 2048
GlyphClass: 2
Flags: W
LayerCount: 2
Fore
SplineSet
592 1056 m 1,0,1
 584 976 584 976 584 900 c 128,-1,2
 584 824 584 824 592 752 c 0,3,4
 624 464 624 464 752 344 c 128,-1,5
 880 224 880 224 1040 224 c 256,6,7
 1200 224 1200 224 1320 288 c 128,-1,8
 1440 352 1440 352 1536 512 c 1,9,-1
 1792 368 l 1,10,11
 1696 192 1696 192 1536 96 c 128,-1,12
 1376 0 1376 0 1136 0 c 2,13,-1
 960 0 l 2,14,15
 640 0 640 0 440 208 c 128,-1,16
 240 416 240 416 240 896 c 2,17,-1
 240 1088 l 2,18,19
 240 1536 240 1536 448 1728 c 128,-1,20
 656 1920 656 1920 944 1920 c 2,21,-1
 1136 1920 l 2,22,23
 1408 1920 1408 1920 1608 1728 c 128,-1,24
 1808 1536 1808 1536 1808 1280 c 2,25,-1
 1808 1056 l 1,26,-1
 592 1056 l 1,0,1
1472 1280 m 1,27,28
 1456 1456 1456 1456 1360 1568 c 128,-1,29
 1264 1680 1264 1680 1040 1680 c 0,30,31
 800 1680 800 1680 712 1560 c 128,-1,32
 624 1440 624 1440 608 1280 c 1,33,-1
 1472 1280 l 1,27,28
1104 2656 m 1,34,-1
 944 2656 l 1,35,-1
 432 3344 l 1,36,-1
 624 3520 l 1,37,-1
 1024 2960 l 1,38,-1
 1424 3520 l 1,39,-1
 1616 3344 l 1,40,-1
 1104 2656 l 1,34,-1
EndSplineSet
Validated: 1
EndChar

StartChar: Gcircumflex
Encoding: 284 284 222
Width: 2736
GlyphClass: 2
Flags: W
LayerCount: 2
Fore
SplineSet
2288 0 m 1,0,-1
 2016 0 l 1,1,-1
 2016 208 l 1,2,3
 1824 0 1824 0 1536 0 c 2,4,-1
 1280 0 l 2,5,6
 416 0 416 0 416 1168 c 0,7,8
 416 2352 416 2352 1264 2352 c 2,9,-1
 1536 2352 l 2,10,11
 1872 2352 1872 2352 2064 2216 c 128,-1,12
 2256 2080 2256 2080 2288 1824 c 1,13,-1
 2000 1824 l 1,14,15
 1984 1936 1984 1936 1880 2032 c 128,-1,16
 1776 2128 1776 2128 1552 2128 c 2,17,-1
 1264 2128 l 2,18,19
 720 2128 720 2128 720 1168 c 0,20,21
 720 224 720 224 1280 224 c 2,22,-1
 1536 224 l 2,23,24
 1808 224 1808 224 2016 528 c 1,25,-1
 2016 1152 l 1,26,-1
 1600 1152 l 1,27,-1
 1600 1360 l 1,28,-1
 2288 1360 l 1,29,-1
 2288 0 l 1,0,-1
1312 3520 m 1,30,-1
 1440 3520 l 1,31,-1
 1888 2832 l 1,32,-1
 1728 2672 l 1,33,-1
 1376 3216 l 1,34,-1
 1008 2672 l 1,35,-1
 848 2832 l 1,36,-1
 1312 3520 l 1,30,-1
EndSplineSet
Validated: 1
EndChar

StartChar: gcircumflex
Encoding: 285 285 223
Width: 1888
GlyphClass: 2
Flags: W
LayerCount: 2
Fore
SplineSet
368 -224 m 1,0,1
 640 -304 640 -304 856 -304 c 128,-1,2
 1072 -304 1072 -304 1152 -192 c 128,-1,3
 1232 -80 1232 -80 1232 96 c 1,4,5
 1088 -16 1088 -16 912 -16 c 2,6,-1
 768 -16 l 2,7,8
 256 -16 256 -16 256 816 c 2,9,-1
 256 1024 l 1,10,11
 272 1920 272 1920 768 1920 c 2,12,-1
 912 1920 l 2,13,14
 1088 1920 1088 1920 1232 1792 c 1,15,-1
 1232 1920 l 1,16,-1
 1536 1920 l 1,17,-1
 1536 224 l 2,18,19
 1536 -144 1536 -144 1384 -360 c 128,-1,20
 1232 -576 1232 -576 896 -576 c 0,21,22
 624 -576 624 -576 368 -512 c 1,23,-1
 368 -224 l 1,0,1
560 832 m 2,24,25
 560 224 560 224 912 224 c 0,26,27
 1088 224 1088 224 1232 384 c 1,28,-1
 1232 1488 l 1,29,30
 1088 1664 1088 1664 912 1664 c 0,31,32
 560 1664 560 1664 560 1024 c 2,33,-1
 560 832 l 2,24,25
896 3520 m 1,34,-1
 1024 3520 l 1,35,-1
 1504 2832 l 1,36,-1
 1328 2672 l 1,37,-1
 960 3216 l 1,38,-1
 592 2672 l 1,39,-1
 416 2832 l 1,40,-1
 896 3520 l 1,34,-1
EndSplineSet
Validated: 1
EndChar

StartChar: Gbreve
Encoding: 286 286 224
Width: 2736
GlyphClass: 2
Flags: W
LayerCount: 2
Fore
SplineSet
2272 0 m 1,0,-1
 2000 0 l 1,1,-1
 2000 208 l 1,2,3
 1808 0 1808 0 1536 0 c 2,4,-1
 1264 0 l 2,5,6
 400 0 400 0 400 1168 c 0,7,8
 400 2352 400 2352 1248 2352 c 2,9,-1
 1536 2352 l 2,10,11
 1856 2352 1856 2352 2048 2216 c 128,-1,12
 2240 2080 2240 2080 2272 1824 c 1,13,-1
 1984 1824 l 1,14,15
 1984 1936 1984 1936 1872 2032 c 128,-1,16
 1760 2128 1760 2128 1536 2128 c 2,17,-1
 1248 2128 l 2,18,19
 704 2128 704 2128 704 1168 c 0,20,21
 704 224 704 224 1264 224 c 2,22,-1
 1536 224 l 2,23,24
 1792 224 1792 224 2000 528 c 1,25,-1
 2000 1152 l 1,26,-1
 1584 1152 l 1,27,-1
 1584 1360 l 1,28,-1
 2272 1360 l 1,29,-1
 2272 0 l 1,0,-1
2144 3520 m 1,30,31
 2144 2704 2144 2704 1392 2704 c 0,32,33
 624 2704 624 2704 624 3520 c 1,34,-1
 832 3520 l 1,35,36
 848 2944 848 2944 1392 2944 c 1,37,38
 1936 2960 1936 2960 1952 3520 c 1,39,-1
 2144 3520 l 1,30,31
EndSplineSet
Validated: 1
EndChar

StartChar: gbreve
Encoding: 287 287 225
Width: 1888
GlyphClass: 2
Flags: W
LayerCount: 2
Fore
SplineSet
1744 3520 m 1,0,1
 1744 2704 1744 2704 960 2704 c 0,2,3
 144 2704 144 2704 144 3520 c 1,4,-1
 384 3520 l 1,5,6
 384 2944 384 2944 960 2944 c 1,7,8
 1520 2960 1520 2960 1536 3520 c 1,9,-1
 1744 3520 l 1,0,1
368 -224 m 1,10,11
 640 -304 640 -304 856 -304 c 128,-1,12
 1072 -304 1072 -304 1152 -192 c 128,-1,13
 1232 -80 1232 -80 1232 96 c 1,14,15
 1088 -16 1088 -16 912 -16 c 2,16,-1
 768 -16 l 2,17,18
 256 -16 256 -16 256 816 c 2,19,-1
 256 1024 l 1,20,21
 272 1920 272 1920 768 1920 c 2,22,-1
 912 1920 l 2,23,24
 1088 1920 1088 1920 1232 1792 c 1,25,-1
 1232 1920 l 1,26,-1
 1536 1920 l 1,27,-1
 1536 224 l 2,28,29
 1536 -144 1536 -144 1384 -360 c 128,-1,30
 1232 -576 1232 -576 896 -576 c 0,31,32
 624 -576 624 -576 368 -512 c 1,33,-1
 368 -224 l 1,10,11
560 832 m 2,34,35
 560 224 560 224 912 224 c 0,36,37
 1088 224 1088 224 1232 384 c 1,38,-1
 1232 1488 l 1,39,40
 1088 1664 1088 1664 912 1664 c 0,41,42
 560 1664 560 1664 560 1024 c 2,43,-1
 560 832 l 2,34,35
EndSplineSet
Validated: 1
EndChar

StartChar: Gdotaccent
Encoding: 288 288 226
Width: 2736
GlyphClass: 2
Flags: W
LayerCount: 2
Fore
SplineSet
2288 0 m 1,0,-1
 2016 0 l 1,1,-1
 2016 208 l 1,2,3
 1824 0 1824 0 1536 0 c 2,4,-1
 1280 0 l 2,5,6
 416 0 416 0 416 1168 c 0,7,8
 416 2352 416 2352 1264 2352 c 2,9,-1
 1536 2352 l 2,10,11
 1872 2352 1872 2352 2064 2216 c 128,-1,12
 2256 2080 2256 2080 2288 1824 c 1,13,-1
 2000 1824 l 1,14,15
 1984 1936 1984 1936 1880 2032 c 128,-1,16
 1776 2128 1776 2128 1552 2128 c 2,17,-1
 1264 2128 l 2,18,19
 720 2128 720 2128 720 1168 c 0,20,21
 720 224 720 224 1280 224 c 2,22,-1
 1536 224 l 2,23,24
 1808 224 1808 224 2016 528 c 1,25,-1
 2016 1152 l 1,26,-1
 1600 1152 l 1,27,-1
 1600 1360 l 1,28,-1
 2288 1360 l 1,29,-1
 2288 0 l 1,0,-1
1168 2720 m 1,30,-1
 1168 3536 l 1,31,-1
 1600 3536 l 1,32,-1
 1600 2720 l 1,33,-1
 1168 2720 l 1,30,-1
EndSplineSet
Validated: 1
EndChar

StartChar: gdotaccent
Encoding: 289 289 227
Width: 1888
GlyphClass: 2
Flags: W
LayerCount: 2
Fore
SplineSet
720 2720 m 1,0,-1
 720 3536 l 1,1,-1
 1168 3536 l 1,2,-1
 1168 2720 l 1,3,-1
 720 2720 l 1,0,-1
368 -224 m 1,4,5
 640 -304 640 -304 856 -304 c 128,-1,6
 1072 -304 1072 -304 1152 -192 c 128,-1,7
 1232 -80 1232 -80 1232 96 c 1,8,9
 1088 -16 1088 -16 912 -16 c 2,10,-1
 768 -16 l 2,11,12
 256 -16 256 -16 256 816 c 2,13,-1
 256 1024 l 1,14,15
 272 1920 272 1920 768 1920 c 2,16,-1
 912 1920 l 2,17,18
 1088 1920 1088 1920 1232 1792 c 1,19,-1
 1232 1920 l 1,20,-1
 1536 1920 l 1,21,-1
 1536 224 l 2,22,23
 1536 -144 1536 -144 1384 -360 c 128,-1,24
 1232 -576 1232 -576 896 -576 c 0,25,26
 624 -576 624 -576 368 -512 c 1,27,-1
 368 -224 l 1,4,5
560 832 m 2,28,29
 560 224 560 224 912 224 c 0,30,31
 1088 224 1088 224 1232 384 c 1,32,-1
 1232 1488 l 1,33,34
 1088 1664 1088 1664 912 1664 c 0,35,36
 560 1664 560 1664 560 1024 c 2,37,-1
 560 832 l 2,28,29
EndSplineSet
Validated: 1
EndChar

StartChar: Gcommaaccent
Encoding: 290 290 228
Width: 2736
GlyphClass: 2
Flags: W
LayerCount: 2
Fore
SplineSet
2288 0 m 1,0,-1
 2016 0 l 1,1,-1
 2016 208 l 1,2,3
 1824 0 1824 0 1536 0 c 2,4,-1
 1280 0 l 2,5,6
 416 0 416 0 416 1168 c 0,7,8
 416 2352 416 2352 1264 2352 c 2,9,-1
 1536 2352 l 2,10,11
 1872 2352 1872 2352 2064 2216 c 128,-1,12
 2256 2080 2256 2080 2288 1824 c 1,13,-1
 2000 1824 l 1,14,15
 1984 1936 1984 1936 1880 2032 c 128,-1,16
 1776 2128 1776 2128 1552 2128 c 2,17,-1
 1264 2128 l 2,18,19
 720 2128 720 2128 720 1168 c 0,20,21
 720 224 720 224 1280 224 c 2,22,-1
 1536 224 l 2,23,24
 1808 224 1808 224 2016 528 c 1,25,-1
 2016 1152 l 1,26,-1
 1600 1152 l 1,27,-1
 1600 1360 l 1,28,-1
 2288 1360 l 1,29,-1
 2288 0 l 1,0,-1
1600 -96 m 1,30,-1
 1600 -304 l 2,31,32
 1600 -560 1600 -560 1184 -576 c 1,33,-1
 1184 -480 l 1,34,35
 1392 -480 1392 -480 1392 -288 c 1,36,-1
 1184 -288 l 1,37,-1
 1184 -96 l 1,38,-1
 1600 -96 l 1,30,-1
EndSplineSet
Validated: 1
EndChar

StartChar: gcommaaccent
Encoding: 291 291 229
Width: 1888
GlyphClass: 2
Flags: W
LayerCount: 2
Fore
SplineSet
704 2352 m 1,0,-1
 704 2720 l 2,1,2
 704 3504 704 3504 1136 3520 c 1,3,-1
 1136 3232 l 1,4,5
 928 3232 928 3232 928 2720 c 1,6,-1
 1136 2720 l 1,7,-1
 1136 2352 l 1,8,-1
 704 2352 l 1,0,-1
368 -224 m 1,9,10
 640 -304 640 -304 856 -304 c 128,-1,11
 1072 -304 1072 -304 1152 -192 c 128,-1,12
 1232 -80 1232 -80 1232 96 c 1,13,14
 1088 -16 1088 -16 912 -16 c 2,15,-1
 768 -16 l 2,16,17
 256 -16 256 -16 256 816 c 2,18,-1
 256 1024 l 1,19,20
 272 1920 272 1920 768 1920 c 2,21,-1
 912 1920 l 2,22,23
 1088 1920 1088 1920 1232 1792 c 1,24,-1
 1232 1920 l 1,25,-1
 1536 1920 l 1,26,-1
 1536 224 l 2,27,28
 1536 -144 1536 -144 1384 -360 c 128,-1,29
 1232 -576 1232 -576 896 -576 c 0,30,31
 624 -576 624 -576 368 -512 c 1,32,-1
 368 -224 l 1,9,10
560 832 m 2,33,34
 560 224 560 224 912 224 c 0,35,36
 1088 224 1088 224 1232 384 c 1,37,-1
 1232 1488 l 1,38,39
 1088 1664 1088 1664 912 1664 c 0,40,41
 560 1664 560 1664 560 1024 c 2,42,-1
 560 832 l 2,33,34
EndSplineSet
Validated: 1
EndChar

StartChar: Hcircumflex
Encoding: 292 292 230
Width: 2624
GlyphClass: 2
Flags: W
LayerCount: 2
Fore
SplineSet
2128 0 m 1,0,-1
 1856 0 l 1,1,-1
 1856 1136 l 1,2,-1
 768 1136 l 1,3,-1
 768 0 l 1,4,-1
 480 0 l 1,5,-1
 480 2352 l 1,6,-1
 768 2352 l 1,7,-1
 768 1376 l 1,8,-1
 1856 1376 l 1,9,-1
 1856 2352 l 1,10,-1
 2128 2352 l 1,11,-1
 2128 0 l 1,0,-1
1248 3520 m 1,12,-1
 1376 3520 l 1,13,-1
 1808 2832 l 1,14,-1
 1664 2672 l 1,15,-1
 1312 3216 l 1,16,-1
 976 2672 l 1,17,-1
 816 2832 l 1,18,-1
 1248 3520 l 1,12,-1
EndSplineSet
Validated: 1
EndChar

StartChar: hcircumflex
Encoding: 293 293 231
Width: 2048
GlyphClass: 2
Flags: W
LayerCount: 2
Fore
SplineSet
1744 0 m 1,0,-1
 1408 0 l 1,1,-1
 1408 1136 l 2,2,3
 1408 1248 1408 1248 1336 1296 c 128,-1,4
 1264 1344 1264 1344 1136 1344 c 256,5,6
 1008 1344 1008 1344 904 1288 c 128,-1,7
 800 1232 800 1232 672 1056 c 1,8,-1
 672 0 l 1,9,-1
 336 0 l 1,10,-1
 336 2352 l 1,11,-1
 672 2352 l 1,12,-1
 672 1376 l 1,13,14
 784 1488 784 1488 880 1544 c 128,-1,15
 976 1600 976 1600 1120 1600 c 2,16,-1
 1312 1600 l 2,17,18
 1504 1600 1504 1600 1624 1480 c 128,-1,19
 1744 1360 1744 1360 1744 1136 c 2,20,-1
 1744 0 l 1,0,-1
960 3520 m 1,21,-1
 1104 3520 l 1,22,-1
 1616 2832 l 1,23,-1
 1424 2672 l 1,24,-1
 1024 3216 l 1,25,-1
 624 2672 l 1,26,-1
 432 2832 l 1,27,-1
 960 3520 l 1,21,-1
EndSplineSet
Validated: 1
EndChar

StartChar: Hbar
Encoding: 294 294 232
Width: 2624
GlyphClass: 2
Flags: W
LayerCount: 2
Fore
SplineSet
2128 0 m 1,0,-1
 1856 0 l 1,1,-1
 1856 1520 l 1,2,-1
 768 1520 l 1,3,-1
 768 0 l 1,4,-1
 480 0 l 1,5,-1
 480 2400 l 1,6,-1
 224 2400 l 1,7,-1
 224 2672 l 1,8,-1
 480 2672 l 1,9,-1
 480 3104 l 1,10,-1
 768 3104 l 1,11,-1
 768 2672 l 1,12,-1
 1856 2672 l 1,13,-1
 1856 3104 l 1,14,-1
 2128 3104 l 1,15,-1
 2128 2672 l 1,16,-1
 2400 2672 l 1,17,-1
 2400 2400 l 1,18,-1
 2128 2400 l 1,19,-1
 2128 0 l 1,0,-1
768 1792 m 1,20,-1
 1856 1792 l 1,21,-1
 1856 2400 l 1,22,-1
 768 2400 l 1,23,-1
 768 1792 l 1,20,-1
EndSplineSet
Validated: 1
EndChar

StartChar: hbar
Encoding: 295 295 233
Width: 2048
GlyphClass: 2
Flags: W
LayerCount: 2
Fore
SplineSet
1744 0 m 1,0,-1
 1408 0 l 1,1,-1
 1408 1808 l 2,2,3
 1408 1936 1408 1936 1352 2000 c 128,-1,4
 1296 2064 1296 2064 1136 2064 c 0,5,6
 1008 2064 1008 2064 912 1992 c 128,-1,7
 816 1920 816 1920 672 1760 c 1,8,-1
 672 0 l 1,9,-1
 336 0 l 1,10,-1
 336 2784 l 1,11,-1
 128 2784 l 1,12,-1
 128 3056 l 1,13,-1
 336 3056 l 1,14,-1
 336 3520 l 1,15,-1
 672 3520 l 1,16,-1
 672 3056 l 1,17,-1
 1312 3056 l 1,18,-1
 1312 2784 l 1,19,-1
 672 2784 l 1,20,-1
 672 2064 l 1,21,22
 752 2208 752 2208 848 2280 c 128,-1,23
 944 2352 944 2352 1120 2352 c 2,24,-1
 1312 2352 l 2,25,26
 1520 2352 1520 2352 1632 2224 c 128,-1,27
 1744 2096 1744 2096 1744 1856 c 2,28,-1
 1744 0 l 1,0,-1
EndSplineSet
Validated: 1
EndChar

StartChar: Itilde
Encoding: 296 296 234
Width: 1856
GlyphClass: 2
Flags: W
LayerCount: 2
Fore
SplineSet
1664 3040 m 1,0,1
 1440 2800 1440 2800 1280 2800 c 256,2,3
 1120 2800 1120 2800 1008 2912 c 1,4,-1
 800 3104 l 1,5,6
 720 3184 720 3184 592 3184 c 256,7,8
 464 3184 464 3184 192 2912 c 1,9,-1
 192 3216 l 1,10,11
 432 3456 432 3456 592 3456 c 0,12,13
 736 3456 736 3456 848 3344 c 1,14,-1
 1056 3152 l 1,15,16
 1152 3072 1152 3072 1280 3072 c 256,17,18
 1408 3072 1408 3072 1664 3344 c 1,19,-1
 1664 3040 l 1,0,1
1280 0 m 1,20,-1
 592 0 l 1,21,-1
 592 224 l 1,22,-1
 800 224 l 1,23,-1
 800 2128 l 1,24,-1
 592 2128 l 1,25,-1
 592 2352 l 1,26,-1
 1280 2352 l 1,27,-1
 1280 2128 l 1,28,-1
 1072 2128 l 1,29,-1
 1072 224 l 1,30,-1
 1280 224 l 1,31,-1
 1280 0 l 1,20,-1
EndSplineSet
Validated: 1
EndChar

StartChar: itilde
Encoding: 297 297 235
Width: 1728
GlyphClass: 2
Flags: W
LayerCount: 2
Fore
SplineSet
1552 2672 m 1,0,1
 1328 2432 1328 2432 1184 2432 c 256,2,3
 1040 2432 1040 2432 928 2544 c 1,4,-1
 752 2736 l 1,5,6
 672 2816 672 2816 544 2816 c 0,7,8
 432 2816 432 2816 176 2544 c 1,9,-1
 176 2848 l 1,10,11
 400 3088 400 3088 544 3088 c 256,12,13
 688 3088 688 3088 800 2976 c 1,14,-1
 976 2784 l 1,15,16
 1072 2704 1072 2704 1184 2704 c 0,17,18
 1312 2704 1312 2704 1552 2976 c 1,19,-1
 1552 2672 l 1,0,1
1024 0 m 1,20,-1
 720 0 l 1,21,-1
 720 1920 l 1,22,-1
 1024 1920 l 1,23,-1
 1024 0 l 1,20,-1
EndSplineSet
Validated: 1
EndChar

StartChar: Imacron
Encoding: 298 298 236
Width: 1488
GlyphClass: 2
Flags: W
LayerCount: 2
Fore
SplineSet
1024 0 m 1,0,-1
 480 0 l 1,1,-1
 480 224 l 1,2,-1
 640 224 l 1,3,-1
 640 2128 l 1,4,-1
 480 2128 l 1,5,-1
 480 2352 l 1,6,-1
 1024 2352 l 1,7,-1
 1024 2128 l 1,8,-1
 864 2128 l 1,9,-1
 864 224 l 1,10,-1
 1024 224 l 1,11,-1
 1024 0 l 1,0,-1
1344 2992 m 1,12,-1
 144 2992 l 1,13,-1
 144 3264 l 1,14,-1
 1344 3264 l 1,15,-1
 1344 2992 l 1,12,-1
EndSplineSet
Validated: 1
EndChar

StartChar: imacron
Encoding: 299 299 237
Width: 1456
GlyphClass: 2
Flags: W
LayerCount: 2
Fore
SplineSet
864 0 m 1,0,-1
 608 0 l 1,1,-1
 608 1920 l 1,2,-1
 864 1920 l 1,3,-1
 864 0 l 1,0,-1
1312 2992 m 1,4,-1
 144 2992 l 1,5,-1
 144 3264 l 1,6,-1
 1312 3264 l 1,7,-1
 1312 2992 l 1,4,-1
EndSplineSet
Validated: 1
EndChar

StartChar: Ibreve
Encoding: 300 300 238
Width: 1776
GlyphClass: 2
Flags: W
LayerCount: 2
Fore
SplineSet
1232 0 m 1,0,-1
 576 0 l 1,1,-1
 576 224 l 1,2,-1
 768 224 l 1,3,-1
 768 2128 l 1,4,-1
 576 2128 l 1,5,-1
 576 2352 l 1,6,-1
 1232 2352 l 1,7,-1
 1232 2128 l 1,8,-1
 1024 2128 l 1,9,-1
 1024 224 l 1,10,-1
 1232 224 l 1,11,-1
 1232 0 l 1,0,-1
1632 3520 m 1,12,13
 1632 2704 1632 2704 896 2704 c 0,14,15
 144 2704 144 2704 144 3520 c 1,16,-1
 352 3520 l 1,17,18
 368 2944 368 2944 896 2944 c 1,19,20
 1424 2960 1424 2960 1440 3520 c 1,21,-1
 1632 3520 l 1,12,13
EndSplineSet
Validated: 1
EndChar

StartChar: ibreve
Encoding: 301 301 239
Width: 1680
GlyphClass: 2
Flags: W
LayerCount: 2
Fore
SplineSet
992 0 m 1,0,-1
 704 0 l 1,1,-1
 704 1920 l 1,2,-1
 992 1920 l 1,3,-1
 992 0 l 1,0,-1
1552 3520 m 1,4,5
 1552 2704 1552 2704 848 2704 c 0,6,7
 128 2704 128 2704 128 3520 c 1,8,-1
 336 3520 l 1,9,10
 352 2944 352 2944 848 2944 c 1,11,12
 1344 2960 1344 2960 1360 3520 c 1,13,-1
 1552 3520 l 1,4,5
EndSplineSet
Validated: 1
EndChar

StartChar: Iogonek
Encoding: 302 302 240
Width: 1088
GlyphClass: 2
Flags: W
LayerCount: 2
Fore
SplineSet
944 -576 m 1,0,-1
 704 -576 l 2,1,2
 480 -576 480 -576 480 -208 c 2,3,-1
 480 0 l 1,4,-1
 352 0 l 1,5,-1
 352 288 l 1,6,-1
 464 288 l 1,7,-1
 464 2816 l 1,8,-1
 352 2816 l 1,9,-1
 352 3104 l 1,10,-1
 752 3104 l 1,11,-1
 752 2816 l 1,12,-1
 640 2816 l 1,13,-1
 640 288 l 1,14,-1
 752 288 l 1,15,-1
 752 0 l 1,16,-1
 624 0 l 1,17,-1
 624 -208 l 2,18,19
 624 -352 624 -352 704 -352 c 2,20,-1
 944 -352 l 1,21,-1
 944 -576 l 1,0,-1
EndSplineSet
Validated: 1
EndChar

StartChar: iogonek
Encoding: 303 303 241
Width: 1024
GlyphClass: 2
Flags: W
LayerCount: 2
Fore
SplineSet
896 -576 m 1,0,-1
 640 -576 l 2,1,2
 464 -576 464 -576 464 -208 c 2,3,-1
 464 0 l 1,4,-1
 432 0 l 1,5,-1
 432 1920 l 1,6,-1
 608 1920 l 1,7,-1
 608 0 l 1,8,-1
 560 0 l 1,9,-1
 560 -208 l 2,10,11
 560 -352 560 -352 640 -352 c 2,12,-1
 896 -352 l 1,13,-1
 896 -576 l 1,0,-1
608 2352 m 1,14,-1
 432 2352 l 1,15,-1
 432 3104 l 1,16,-1
 608 3104 l 1,17,-1
 608 2352 l 1,14,-1
EndSplineSet
Validated: 1
EndChar

StartChar: Idotaccent
Encoding: 304 304 242
Width: 1008
GlyphClass: 2
Flags: W
LayerCount: 2
Fore
SplineSet
704 0 m 1,0,-1
 320 0 l 1,1,-1
 320 224 l 1,2,-1
 432 224 l 1,3,-1
 432 2128 l 1,4,-1
 320 2128 l 1,5,-1
 320 2352 l 1,6,-1
 704 2352 l 1,7,-1
 704 2128 l 1,8,-1
 592 2128 l 1,9,-1
 592 224 l 1,10,-1
 704 224 l 1,11,-1
 704 0 l 1,0,-1
384 2720 m 1,12,-1
 384 3536 l 1,13,-1
 624 3536 l 1,14,-1
 624 2720 l 1,15,-1
 384 2720 l 1,12,-1
EndSplineSet
Validated: 1
EndChar

StartChar: dotlessi
Encoding: 305 305 243
Width: 864
GlyphClass: 2
Flags: W
LayerCount: 2
Fore
SplineSet
512 0 m 1,0,-1
 368 0 l 1,1,-1
 368 1920 l 1,2,-1
 512 1920 l 1,3,-1
 512 0 l 1,0,-1
EndSplineSet
Validated: 1
EndChar

StartChar: IJ
Encoding: 306 306 244
Width: 2736
GlyphClass: 2
Flags: W
LayerCount: 2
Fore
SplineSet
960 0 m 1,0,-1
 288 0 l 1,1,-1
 288 304 l 1,2,-1
 480 304 l 1,3,-1
 480 2816 l 1,4,-1
 288 2816 l 1,5,-1
 288 3104 l 1,6,-1
 960 3104 l 1,7,-1
 960 2816 l 1,8,-1
 752 2816 l 1,9,-1
 752 304 l 1,10,-1
 960 304 l 1,11,-1
 960 0 l 1,0,-1
2384 3104 m 1,12,-1
 2384 896 l 2,13,14
 2384 0 2384 0 1712 0 c 0,15,16
 1472 0 1472 0 1248 128 c 1,17,-1
 1344 416 l 1,18,19
 1536 304 1536 304 1712 304 c 0,20,21
 2064 304 2064 304 2080 896 c 1,22,-1
 2080 3104 l 1,23,-1
 2384 3104 l 1,12,-1
EndSplineSet
Validated: 1
EndChar

StartChar: ij
Encoding: 307 307 245
Width: 1632
GlyphClass: 2
Flags: W
LayerCount: 2
Fore
SplineSet
544 0 m 1,0,-1
 272 0 l 1,1,-1
 272 2352 l 1,2,-1
 544 2352 l 1,3,-1
 544 0 l 1,0,-1
544 2720 m 1,4,-1
 272 2720 l 1,5,-1
 272 3520 l 1,6,-1
 544 3520 l 1,7,-1
 544 2720 l 1,4,-1
1376 2720 m 1,8,-1
 1104 2720 l 1,9,-1
 1104 3520 l 1,10,-1
 1376 3520 l 1,11,-1
 1376 2720 l 1,8,-1
1376 2352 m 1,12,-1
 1376 -64 l 2,13,14
 1376 -576 1376 -576 1040 -576 c 2,15,-1
 832 -576 l 1,16,-1
 832 -256 l 1,17,-1
 960 -256 l 2,18,19
 1104 -256 1104 -256 1104 -64 c 2,20,-1
 1104 2352 l 1,21,-1
 1376 2352 l 1,12,-1
EndSplineSet
Validated: 1
EndChar

StartChar: Jcircumflex
Encoding: 308 308 246
Width: 2224
GlyphClass: 2
Flags: W
LayerCount: 2
Fore
SplineSet
1808 2352 m 1,0,-1
 1808 896 l 2,1,2
 1808 0 1808 0 992 0 c 0,3,4
 704 0 704 0 416 128 c 1,5,-1
 544 416 l 1,6,7
 784 304 784 304 992 304 c 0,8,9
 1424 304 1424 304 1440 896 c 1,10,-1
 1440 2352 l 1,11,-1
 1808 2352 l 1,0,-1
1024 3520 m 1,12,-1
 1184 3520 l 1,13,-1
 1728 2832 l 1,14,-1
 1536 2672 l 1,15,-1
 1104 3216 l 1,16,-1
 672 2672 l 1,17,-1
 448 2832 l 1,18,-1
 1024 3520 l 1,12,-1
EndSplineSet
Validated: 1
EndChar

StartChar: jcircumflex
Encoding: 309 309 247
Width: 1728
GlyphClass: 2
Flags: W
LayerCount: 2
Fore
SplineSet
1008 1920 m 1,0,-1
 1008 -64 l 2,1,2
 1008 -576 1008 -576 656 -576 c 2,3,-1
 240 -576 l 1,4,-1
 240 -256 l 1,5,-1
 576 -256 l 2,6,7
 704 -256 704 -256 720 -64 c 1,8,-1
 720 1920 l 1,9,-1
 1008 1920 l 1,0,-1
800 3520 m 1,10,-1
 928 3520 l 1,11,-1
 1360 2832 l 1,12,-1
 1200 2672 l 1,13,-1
 864 3216 l 1,14,-1
 528 2672 l 1,15,-1
 368 2832 l 1,16,-1
 800 3520 l 1,10,-1
EndSplineSet
Validated: 1
EndChar

StartChar: Kcommaaccent
Encoding: 310 310 248
Width: 2448
GlyphClass: 2
Flags: W
LayerCount: 2
Fore
SplineSet
1472 -96 m 1,0,-1
 1472 -304 l 2,1,2
 1472 -560 1472 -560 928 -576 c 1,3,-1
 928 -480 l 1,4,5
 1184 -480 1184 -480 1184 -288 c 1,6,-1
 928 -288 l 1,7,-1
 928 -96 l 1,8,-1
 1472 -96 l 1,0,-1
2432 0 m 1,9,-1
 1968 0 l 1,10,-1
 1056 1664 l 1,11,-1
 784 1376 l 1,12,-1
 784 0 l 1,13,-1
 400 0 l 1,14,-1
 400 3104 l 1,15,-1
 784 3104 l 1,16,-1
 784 1840 l 1,17,-1
 1920 3104 l 1,18,-1
 2368 3104 l 1,19,-1
 1312 1920 l 1,20,-1
 2432 0 l 1,9,-1
EndSplineSet
Validated: 1
EndChar

StartChar: kcommaaccent
Encoding: 311 311 249
Width: 1888
GlyphClass: 2
Flags: W
LayerCount: 2
Fore
SplineSet
1152 -96 m 1,0,-1
 1152 -304 l 2,1,2
 1152 -560 1152 -560 720 -576 c 1,3,-1
 720 -480 l 1,4,5
 928 -480 928 -480 928 -288 c 1,6,-1
 720 -288 l 1,7,-1
 720 -96 l 1,8,-1
 1152 -96 l 1,0,-1
1584 0 m 1,9,-1
 1232 0 l 1,10,-1
 784 1104 l 1,11,-1
 624 864 l 1,12,-1
 624 0 l 1,13,-1
 320 0 l 1,14,-1
 320 3520 l 1,15,-1
 624 3520 l 1,16,-1
 624 1392 l 1,17,-1
 1200 2352 l 1,18,-1
 1568 2352 l 1,19,-1
 992 1408 l 1,20,-1
 1584 0 l 1,9,-1
EndSplineSet
Validated: 1
EndChar

StartChar: kgreenlandic
Encoding: 312 312 250
Width: 1888
GlyphClass: 2
Flags: W
LayerCount: 2
Fore
SplineSet
1648 0 m 1,0,-1
 1328 0 l 1,1,-1
 688 1024 l 1,2,-1
 512 848 l 1,3,-1
 512 0 l 1,4,-1
 240 0 l 1,5,-1
 240 1920 l 1,6,-1
 512 1920 l 1,7,-1
 512 1136 l 1,8,-1
 1296 1920 l 1,9,-1
 1616 1920 l 1,10,-1
 864 1184 l 1,11,-1
 1648 0 l 1,0,-1
EndSplineSet
Validated: 1
EndChar

StartChar: Lacute
Encoding: 313 313 251
Width: 2208
GlyphClass: 2
Flags: W
LayerCount: 2
Fore
SplineSet
1472 3520 m 1,0,-1
 1008 2720 l 1,1,-1
 800 2720 l 1,2,-1
 1120 3520 l 1,3,-1
 1472 3520 l 1,0,-1
1280 0 m 1,4,-1
 240 0 l 1,5,-1
 240 2352 l 1,6,-1
 480 2352 l 1,7,-1
 480 304 l 1,8,-1
 1280 304 l 1,9,-1
 1280 0 l 1,4,-1
EndSplineSet
Validated: 1
EndChar

StartChar: lacute
Encoding: 314 314 252
Width: 1072
GlyphClass: 2
Flags: W
LayerCount: 2
Fore
SplineSet
800 3520 m 1,0,-1
 464 2720 l 1,1,-1
 320 2720 l 1,2,-1
 544 3520 l 1,3,-1
 800 3520 l 1,0,-1
640 0 m 1,4,-1
 448 0 l 1,5,-1
 448 2352 l 1,6,-1
 640 2352 l 1,7,-1
 640 0 l 1,4,-1
EndSplineSet
Validated: 1
EndChar

StartChar: Lcommaaccent
Encoding: 315 315 253
Width: 2208
GlyphClass: 2
Flags: W
LayerCount: 2
Fore
SplineSet
1344 -96 m 1,0,-1
 1344 -304 l 2,1,2
 1344 -560 1344 -560 848 -576 c 1,3,-1
 848 -480 l 1,4,5
 1088 -480 1088 -480 1088 -288 c 1,6,-1
 848 -288 l 1,7,-1
 848 -96 l 1,8,-1
 1344 -96 l 1,0,-1
1920 0 m 1,9,-1
 368 0 l 1,10,-1
 368 3104 l 1,11,-1
 704 3104 l 1,12,-1
 704 304 l 1,13,-1
 1920 304 l 1,14,-1
 1920 0 l 1,9,-1
EndSplineSet
Validated: 1
EndChar

StartChar: lcommaaccent
Encoding: 316 316 254
Width: 1008
GlyphClass: 2
Flags: W
LayerCount: 2
Fore
SplineSet
624 -96 m 1,0,-1
 624 -304 l 2,1,2
 624 -560 624 -560 384 -576 c 1,3,-1
 384 -480 l 1,4,5
 496 -480 496 -480 496 -288 c 1,6,-1
 384 -288 l 1,7,-1
 384 -96 l 1,8,-1
 624 -96 l 1,0,-1
592 0 m 1,9,-1
 432 0 l 1,10,-1
 432 2720 l 1,11,-1
 592 2720 l 1,12,-1
 592 0 l 1,9,-1
EndSplineSet
Validated: 1
EndChar

StartChar: Lcaron
Encoding: 317 317 255
Width: 2208
GlyphClass: 2
Flags: W
LayerCount: 2
Fore
SplineSet
1280 0 m 1,0,-1
 240 0 l 1,1,-1
 240 3104 l 1,2,-1
 480 3104 l 1,3,-1
 480 304 l 1,4,-1
 1280 304 l 1,5,-1
 1280 0 l 1,0,-1
1856 3104 m 1,6,-1
 1856 2512 l 2,7,8
 1856 1760 1856 1760 1520 1728 c 1,9,-1
 1520 2016 l 1,10,11
 1680 2016 1680 2016 1680 2528 c 1,12,-1
 1520 2528 l 1,13,-1
 1520 3104 l 1,14,-1
 1856 3104 l 1,6,-1
EndSplineSet
Validated: 1
EndChar

StartChar: lcaron
Encoding: 318 318 256
Width: 1328
GlyphClass: 2
Flags: W
LayerCount: 2
Fore
SplineSet
1120 3104 m 1,0,-1
 1120 2512 l 2,1,2
 1120 1760 1120 1760 816 1728 c 1,3,-1
 816 2016 l 1,4,5
 960 2016 960 2016 960 2528 c 1,6,-1
 816 2528 l 1,7,-1
 816 3104 l 1,8,-1
 1120 3104 l 1,0,-1
528 0 m 1,9,-1
 304 0 l 1,10,-1
 304 3104 l 1,11,-1
 528 3104 l 1,12,-1
 528 0 l 1,9,-1
EndSplineSet
Validated: 1
EndChar

StartChar: Ldot
Encoding: 319 319 257
Width: 2208
GlyphClass: 2
Flags: W
LayerCount: 2
Fore
SplineSet
1920 0 m 1,0,-1
 368 0 l 1,1,-1
 368 3104 l 1,2,-1
 704 3104 l 1,3,-1
 704 304 l 1,4,-1
 1920 304 l 1,5,-1
 1920 0 l 1,0,-1
1712 2464 m 1,6,-1
 1712 1872 l 1,7,-1
 1216 1872 l 1,8,-1
 1216 2464 l 1,9,-1
 1712 2464 l 1,6,-1
EndSplineSet
Validated: 1
EndChar

StartChar: ldot
Encoding: 320 320 258
Width: 1376
GlyphClass: 2
Flags: W
LayerCount: 2
Fore
SplineSet
1152 2352 m 1,0,-1
 1152 1872 l 1,1,-1
 848 1872 l 1,2,-1
 848 2352 l 1,3,-1
 1152 2352 l 1,0,-1
560 0 m 1,4,-1
 320 0 l 1,5,-1
 320 3104 l 1,6,-1
 560 3104 l 1,7,-1
 560 0 l 1,4,-1
EndSplineSet
Validated: 1
EndChar

StartChar: Lslash
Encoding: 321 321 259
Width: 2208
GlyphClass: 2
Flags: W
LayerCount: 2
Fore
SplineSet
1952 0 m 1,0,-1
 480 0 l 1,1,-1
 480 1472 l 1,2,-1
 192 1264 l 1,3,-1
 192 1632 l 1,4,-1
 480 1840 l 1,5,-1
 480 3104 l 1,6,-1
 720 3104 l 1,7,-1
 720 2000 l 1,8,-1
 1264 2384 l 1,9,-1
 1264 2016 l 1,10,-1
 720 1632 l 1,11,-1
 720 304 l 1,12,-1
 1952 304 l 1,13,-1
 1952 0 l 1,0,-1
EndSplineSet
Validated: 1
EndChar

StartChar: lslash
Encoding: 322 322 260
Width: 1264
GlyphClass: 2
Flags: W
LayerCount: 2
Fore
SplineSet
416 0 m 1,0,-1
 416 1472 l 1,1,-1
 160 1264 l 1,2,-1
 160 1632 l 1,3,-1
 416 1840 l 1,4,-1
 416 3104 l 1,5,-1
 624 3104 l 1,6,-1
 624 2000 l 1,7,-1
 1088 2384 l 1,8,-1
 1088 2016 l 1,9,-1
 624 1632 l 1,10,-1
 624 0 l 1,11,-1
 416 0 l 1,0,-1
EndSplineSet
Validated: 1
EndChar

StartChar: Nacute
Encoding: 323 323 261
Width: 2624
GlyphClass: 2
Flags: W
LayerCount: 2
Fore
SplineSet
1760 3520 m 1,0,-1
 1200 2720 l 1,1,-1
 944 2720 l 1,2,-1
 1328 3520 l 1,3,-1
 1760 3520 l 1,0,-1
1952 0 m 1,4,-1
 1552 0 l 1,5,-1
 512 2032 l 1,6,-1
 512 0 l 1,7,-1
 240 0 l 1,8,-1
 240 2352 l 1,9,-1
 640 2352 l 1,10,-1
 1664 336 l 1,11,-1
 1664 2352 l 1,12,-1
 1952 2352 l 1,13,-1
 1952 0 l 1,4,-1
EndSplineSet
Validated: 1
EndChar

StartChar: nacute
Encoding: 324 324 262
Width: 2048
GlyphClass: 2
Flags: W
LayerCount: 2
Fore
SplineSet
1504 3520 m 1,0,-1
 864 2720 l 1,1,-1
 560 2720 l 1,2,-1
 1008 3520 l 1,3,-1
 1504 3520 l 1,0,-1
1744 0 m 1,4,-1
 1408 0 l 1,5,-1
 1408 1376 l 2,6,7
 1408 1520 1408 1520 1352 1576 c 128,-1,8
 1296 1632 1296 1632 1136 1632 c 0,9,10
 1008 1632 1008 1632 912 1568 c 128,-1,11
 816 1504 816 1504 672 1328 c 1,12,-1
 672 0 l 1,13,-1
 336 0 l 1,14,-1
 336 1920 l 1,15,-1
 672 1920 l 1,16,-1
 672 1648 l 1,17,18
 752 1776 752 1776 848 1848 c 128,-1,19
 944 1920 944 1920 1120 1920 c 2,20,-1
 1312 1920 l 2,21,22
 1520 1920 1520 1920 1632 1792 c 128,-1,23
 1744 1664 1744 1664 1744 1424 c 2,24,-1
 1744 0 l 1,4,-1
EndSplineSet
Validated: 1
EndChar

StartChar: Ncommaaccent
Encoding: 325 325 263
Width: 2624
GlyphClass: 2
Flags: W
LayerCount: 2
Fore
SplineSet
1072 -96 m 1,0,-1
 1072 -304 l 2,1,2
 1072 -560 1072 -560 672 -576 c 1,3,-1
 672 -480 l 1,4,5
 864 -480 864 -480 864 -288 c 1,6,-1
 672 -288 l 1,7,-1
 672 -96 l 1,8,-1
 1072 -96 l 1,0,-1
1952 0 m 1,9,-1
 1552 0 l 1,10,-1
 512 2672 l 1,11,-1
 512 0 l 1,12,-1
 240 0 l 1,13,-1
 240 3104 l 1,14,-1
 640 3104 l 1,15,-1
 1664 448 l 1,16,-1
 1664 3104 l 1,17,-1
 1952 3104 l 1,18,-1
 1952 0 l 1,9,-1
EndSplineSet
Validated: 1
EndChar

StartChar: ncommaaccent
Encoding: 326 326 264
Width: 2048
GlyphClass: 2
Flags: W
LayerCount: 2
Fore
SplineSet
1248 -96 m 1,0,-1
 1248 -304 l 2,1,2
 1248 -560 1248 -560 784 -576 c 1,3,-1
 784 -480 l 1,4,5
 1008 -480 1008 -480 1008 -288 c 1,6,-1
 784 -288 l 1,7,-1
 784 -96 l 1,8,-1
 1248 -96 l 1,0,-1
1744 0 m 1,9,-1
 1408 0 l 1,10,-1
 1408 1376 l 2,11,12
 1408 1520 1408 1520 1352 1576 c 128,-1,13
 1296 1632 1296 1632 1136 1632 c 0,14,15
 1008 1632 1008 1632 912 1568 c 128,-1,16
 816 1504 816 1504 672 1328 c 1,17,-1
 672 0 l 1,18,-1
 336 0 l 1,19,-1
 336 1920 l 1,20,-1
 672 1920 l 1,21,-1
 672 1648 l 1,22,23
 752 1776 752 1776 848 1848 c 128,-1,24
 944 1920 944 1920 1120 1920 c 2,25,-1
 1312 1920 l 2,26,27
 1520 1920 1520 1920 1632 1792 c 128,-1,28
 1744 1664 1744 1664 1744 1424 c 2,29,-1
 1744 0 l 1,9,-1
EndSplineSet
Validated: 1
EndChar

StartChar: Ncaron
Encoding: 327 327 265
Width: 2624
GlyphClass: 2
Flags: W
LayerCount: 2
Fore
SplineSet
1952 0 m 1,0,-1
 1552 0 l 1,1,-1
 512 2032 l 1,2,-1
 512 0 l 1,3,-1
 240 0 l 1,4,-1
 240 2352 l 1,5,-1
 640 2352 l 1,6,-1
 1664 336 l 1,7,-1
 1664 2352 l 1,8,-1
 1952 2352 l 1,9,-1
 1952 0 l 1,0,-1
2032 3520 m 1,10,11
 2032 2704 2032 2704 1312 2704 c 0,12,13
 560 2704 560 2704 560 3520 c 1,14,-1
 784 3520 l 1,15,16
 784 2944 784 2944 1312 2944 c 1,17,18
 1824 2960 1824 2960 1840 3520 c 1,19,-1
 2032 3520 l 1,10,11
EndSplineSet
Validated: 1
EndChar

StartChar: ncaron
Encoding: 328 328 266
Width: 2048
GlyphClass: 2
Flags: W
LayerCount: 2
Fore
SplineSet
1744 0 m 1,0,-1
 1408 0 l 1,1,-1
 1408 1376 l 2,2,3
 1408 1520 1408 1520 1352 1576 c 128,-1,4
 1296 1632 1296 1632 1136 1632 c 0,5,6
 1008 1632 1008 1632 912 1568 c 128,-1,7
 816 1504 816 1504 672 1328 c 1,8,-1
 672 0 l 1,9,-1
 336 0 l 1,10,-1
 336 1920 l 1,11,-1
 672 1920 l 1,12,-1
 672 1648 l 1,13,14
 752 1776 752 1776 848 1848 c 128,-1,15
 944 1920 944 1920 1120 1920 c 2,16,-1
 1312 1920 l 2,17,18
 1520 1920 1520 1920 1632 1792 c 128,-1,19
 1744 1664 1744 1664 1744 1424 c 2,20,-1
 1744 0 l 1,0,-1
1888 3520 m 1,21,22
 1888 2704 1888 2704 1040 2704 c 0,23,24
 160 2704 160 2704 160 3520 c 1,25,-1
 416 3520 l 1,26,27
 416 2944 416 2944 1040 2944 c 1,28,29
 1648 2960 1648 2960 1664 3520 c 1,30,-1
 1888 3520 l 1,21,22
EndSplineSet
Validated: 1
EndChar

StartChar: napostrophe
Encoding: 329 329 267
Width: 2048
GlyphClass: 2
Flags: W
LayerCount: 2
Fore
SplineSet
720 3520 m 1,0,-1
 720 2928 l 2,1,2
 720 2176 720 2176 256 2144 c 1,3,-1
 256 2432 l 1,4,5
 480 2432 480 2432 480 2944 c 1,6,-1
 256 2944 l 1,7,-1
 256 3520 l 1,8,-1
 720 3520 l 1,0,-1
1744 0 m 1,9,-1
 1408 0 l 1,10,-1
 1408 1376 l 2,11,12
 1408 1520 1408 1520 1352 1576 c 128,-1,13
 1296 1632 1296 1632 1136 1632 c 0,14,15
 1008 1632 1008 1632 912 1568 c 128,-1,16
 816 1504 816 1504 672 1328 c 1,17,-1
 672 0 l 1,18,-1
 336 0 l 1,19,-1
 336 1920 l 1,20,-1
 672 1920 l 1,21,-1
 672 1648 l 1,22,23
 752 1776 752 1776 848 1848 c 128,-1,24
 944 1920 944 1920 1120 1920 c 2,25,-1
 1312 1920 l 2,26,27
 1520 1920 1520 1920 1632 1792 c 128,-1,28
 1744 1664 1744 1664 1744 1424 c 2,29,-1
 1744 0 l 1,9,-1
EndSplineSet
Validated: 1
EndChar

StartChar: Eng
Encoding: 330 330 268
Width: 2304
GlyphClass: 2
Flags: W
LayerCount: 2
Fore
SplineSet
1584 2560 m 2,0,1
 1584 2704 1584 2704 1520 2760 c 128,-1,2
 1456 2816 1456 2816 1280 2816 c 0,3,4
 1136 2816 1136 2816 1032 2752 c 128,-1,5
 928 2688 928 2688 752 2512 c 1,6,-1
 752 0 l 1,7,-1
 384 0 l 1,8,-1
 384 3104 l 1,9,-1
 752 3104 l 1,10,-1
 752 2832 l 1,11,12
 848 2960 848 2960 960 3032 c 128,-1,13
 1072 3104 1072 3104 1248 3104 c 2,14,-1
 1472 3104 l 2,15,16
 1712 3104 1712 3104 1840 2976 c 128,-1,17
 1968 2848 1968 2848 1968 2608 c 2,18,-1
 1968 896 l 2,19,20
 1968 0 1968 0 1280 0 c 0,21,22
 1072 0 1072 0 864 128 c 1,23,-1
 992 416 l 1,24,25
 1136 304 1136 304 1280 304 c 0,26,27
 1568 304 1568 304 1584 896 c 1,28,-1
 1584 2560 l 2,0,1
EndSplineSet
Validated: 1
EndChar

StartChar: eng
Encoding: 331 331 269
Width: 2048
GlyphClass: 2
Flags: W
LayerCount: 2
Fore
SplineSet
1408 1376 m 2,0,1
 1408 1520 1408 1520 1352 1576 c 128,-1,2
 1296 1632 1296 1632 1136 1632 c 0,3,4
 1008 1632 1008 1632 912 1568 c 128,-1,5
 816 1504 816 1504 672 1328 c 1,6,-1
 672 0 l 1,7,-1
 336 0 l 1,8,-1
 336 1920 l 1,9,-1
 672 1920 l 1,10,-1
 672 1648 l 1,11,12
 752 1776 752 1776 848 1848 c 128,-1,13
 944 1920 944 1920 1120 1920 c 2,14,-1
 1312 1920 l 2,15,16
 1520 1920 1520 1920 1632 1792 c 128,-1,17
 1744 1664 1744 1664 1744 1424 c 2,18,-1
 1744 80 l 2,19,20
 1744 -576 1744 -576 1136 -576 c 0,21,22
 944 -576 944 -576 768 -448 c 1,23,-1
 880 -160 l 1,24,25
 1008 -272 1008 -272 1136 -272 c 0,26,27
 1392 -272 1392 -272 1408 80 c 1,28,-1
 1408 1376 l 2,0,1
EndSplineSet
Validated: 1
EndChar

StartChar: Omacron
Encoding: 332 332 270
Width: 2736
GlyphClass: 2
Flags: W
LayerCount: 2
Fore
SplineSet
2048 2992 m 1,0,-1
 576 2992 l 1,1,-1
 576 3264 l 1,2,-1
 2048 3264 l 1,3,-1
 2048 2992 l 1,0,-1
1472 2352 m 2,4,5
 2352 2352 2352 2352 2368 1168 c 1,6,7
 2368 0 2368 0 1472 0 c 2,8,-1
 1232 0 l 2,9,10
 368 0 368 0 368 1127 c 0,11,12
 368 1147 368 1147 368 1168 c 1,13,14
 368 1189 368 1189 368 1210 c 0,15,16
 368 2352 368 2352 1232 2352 c 2,17,-1
 1472 2352 l 2,4,5
1232 2128 m 2,18,19
 672 2128 672 2128 672 1168 c 1,20,21
 672 1143 672 1143 672 1119 c 0,22,23
 672 240 672 240 1232 224 c 1,24,-1
 1472 224 l 2,25,26
 2048 224 2048 224 2048 1168 c 0,27,28
 2048 2128 2048 2128 1472 2128 c 2,29,-1
 1232 2128 l 2,18,19
EndSplineSet
Validated: 1
EndChar

